<svg viewBox="0 0 1496 400" xmlns="http://www.w3.org/2000/svg"><g><g><g><g><g><line x1="50" y1="377" x2="45" y2="377" style="visibility: inherit;" fill="rgb(0, 0, 0)" stroke="rgb(204, 204, 204)" stroke-width="1px"></line><line x1="50" y1="335.1111111111111" x2="45" y2="335.1111111111111" style="visibility: inherit;" fill="rgb(0, 0, 0)" stroke="rgb(204, 204, 204)" stroke-width="1px"></line><line x1="50" y1="293.22222222222223" x2="45" y2="293.22222222222223" style="visibility: inherit;" fill="rgb(0, 0, 0)" stroke="rgb(204, 204, 204)" stroke-width="1px"></line><line x1="50" y1="251.3333333333333" x2="45" y2="251.3333333333333" style="visibility: inherit;" fill="rgb(0, 0, 0)" stroke="rgb(204, 204, 204)" stroke-width="1px"></line><line x1="50" y1="209.44444444444446" x2="45" y2="209.44444444444446" style="visibility: inherit;" fill="rgb(0, 0, 0)" stroke="rgb(204, 204, 204)" stroke-width="1px"></line><line x1="50" y1="167.55555555555554" x2="45" y2="167.55555555555554" style="visibility: inherit;" fill="rgb(0, 0, 0)" stroke="rgb(204, 204, 204)" stroke-width="1px"></line><line x1="50" y1="125.6666666666666" x2="45" y2="125.6666666666666" style="visibility: inherit;" fill="rgb(0, 0, 0)" stroke="rgb(204, 204, 204)" stroke-width="1px"></line><line x1="50" y1="83.77777777777777" x2="45" y2="83.77777777777777" style="visibility: inherit;" fill="rgb(0, 0, 0)" stroke="rgb(204, 204, 204)" stroke-width="1px"></line><line x1="50" y1="41.88888888888882" x2="45" y2="41.88888888888882" style="visibility: inherit;" fill="rgb(0, 0, 0)" stroke="rgb(204, 204, 204)" stroke-width="1px"></line><line x1="50" y1="0" x2="45" y2="0" style="visibility: inherit;" fill="rgb(0, 0, 0)" stroke="rgb(204, 204, 204)" stroke-width="1px"></line></g><g transform="translate(40, 0)"><text x="0" y="377" dx="0em" dy="0.3em" style="text-anchor: end; visibility: hidden; font-family: Roboto, sans-serif; font-size: 12px; font-weight: 200;" fill="rgb(255, 255, 255)" stroke="none" stroke-width="1px">0.5</text><text x="0" y="335.1111111111111" dx="0em" dy="0.3em" style="text-anchor: end; visibility: inherit; font-family: Roboto, sans-serif; font-size: 12px; font-weight: 200;" fill="rgb(255, 255, 255)" stroke="none" stroke-width="1px">0.55</text><text x="0" y="293.22222222222223" dx="0em" dy="0.3em" style="text-anchor: end; visibility: inherit; font-family: Roboto, sans-serif; font-size: 12px; font-weight: 200;" fill="rgb(255, 255, 255)" stroke="none" stroke-width="1px">0.6</text><text x="0" y="251.3333333333333" dx="0em" dy="0.3em" style="text-anchor: end; visibility: inherit; font-family: Roboto, sans-serif; font-size: 12px; font-weight: 200;" fill="rgb(255, 255, 255)" stroke="none" stroke-width="1px">0.65</text><text x="0" y="209.44444444444446" dx="0em" dy="0.3em" style="text-anchor: end; visibility: inherit; font-family: Roboto, sans-serif; font-size: 12px; font-weight: 200;" fill="rgb(255, 255, 255)" stroke="none" stroke-width="1px">0.7</text><text x="0" y="167.55555555555554" dx="0em" dy="0.3em" style="text-anchor: end; visibility: inherit; font-family: Roboto, sans-serif; font-size: 12px; font-weight: 200;" fill="rgb(255, 255, 255)" stroke="none" stroke-width="1px">0.75</text><text x="0" y="125.6666666666666" dx="0em" dy="0.3em" style="text-anchor: end; visibility: inherit; font-family: Roboto, sans-serif; font-size: 12px; font-weight: 200;" fill="rgb(255, 255, 255)" stroke="none" stroke-width="1px">0.8</text><text x="0" y="83.77777777777777" dx="0em" dy="0.3em" style="text-anchor: end; visibility: inherit; font-family: Roboto, sans-serif; font-size: 12px; font-weight: 200;" fill="rgb(255, 255, 255)" stroke="none" stroke-width="1px">0.85</text><text x="0" y="41.88888888888882" dx="0em" dy="0.3em" style="text-anchor: end; visibility: inherit; font-family: Roboto, sans-serif; font-size: 12px; font-weight: 200;" fill="rgb(255, 255, 255)" stroke="none" stroke-width="1px">0.9</text><text x="0" y="0" dx="0em" dy="0.3em" style="text-anchor: end; visibility: hidden; font-family: Roboto, sans-serif; font-size: 12px; font-weight: 200;" fill="rgb(255, 255, 255)" stroke="none" stroke-width="1px">0.95</text></g><line x1="50" y1="0" x2="50" y2="377" fill="rgb(0, 0, 0)" stroke="rgb(204, 204, 204)" stroke-width="1px"></line></g></g><g transform="translate(50, 0)" clip-path="url(#clip_0)"><clipPath id="clip_0"><rect width="1446" height="377"></rect></clipPath><g><g><g><line x1="0" y1="0" x2="0" y2="377" fill="rgb(0, 0, 0)" stroke="rgb(189, 189, 189)" stroke-width="1px" opacity="0.25"></line><line x1="96.4" y1="0" x2="96.4" y2="377" fill="rgb(0, 0, 0)" stroke="rgb(189, 189, 189)" stroke-width="1px" opacity="0.25"></line><line x1="192.8" y1="0" x2="192.8" y2="377" fill="rgb(0, 0, 0)" stroke="rgb(189, 189, 189)" stroke-width="1px" opacity="0.25"></line><line x1="289.2" y1="0" x2="289.2" y2="377" fill="rgb(0, 0, 0)" stroke="rgb(189, 189, 189)" stroke-width="1px" opacity="0.25"></line><line x1="385.6" y1="0" x2="385.6" y2="377" fill="rgb(0, 0, 0)" stroke="rgb(189, 189, 189)" stroke-width="1px" opacity="0.25"></line><line x1="482" y1="0" x2="482" y2="377" fill="rgb(0, 0, 0)" stroke="rgb(189, 189, 189)" stroke-width="1px" opacity="0.25"></line><line x1="578.4" y1="0" x2="578.4" y2="377" fill="rgb(0, 0, 0)" stroke="rgb(189, 189, 189)" stroke-width="1px" opacity="0.25"></line><line x1="674.8" y1="0" x2="674.8" y2="377" fill="rgb(0, 0, 0)" stroke="rgb(189, 189, 189)" stroke-width="1px" opacity="0.25"></line><line x1="771.2" y1="0" x2="771.2" y2="377" fill="rgb(0, 0, 0)" stroke="rgb(189, 189, 189)" stroke-width="1px" opacity="0.25"></line><line x1="867.6" y1="0" x2="867.6" y2="377" fill="rgb(0, 0, 0)" stroke="rgb(189, 189, 189)" stroke-width="1px" opacity="0.25"></line><line x1="964" y1="0" x2="964" y2="377" fill="rgb(0, 0, 0)" stroke="rgb(189, 189, 189)" stroke-width="1px" opacity="0.25"></line><line x1="1060.3999999999999" y1="0" x2="1060.3999999999999" y2="377" fill="rgb(0, 0, 0)" stroke="rgb(189, 189, 189)" stroke-width="1px" opacity="0.25"></line><line x1="1156.8" y1="0" x2="1156.8" y2="377" fill="rgb(0, 0, 0)" stroke="rgb(189, 189, 189)" stroke-width="1px" opacity="0.25"></line><line x1="1253.2" y1="0" x2="1253.2" y2="377" fill="rgb(0, 0, 0)" stroke="rgb(189, 189, 189)" stroke-width="1px" opacity="0.25"></line><line x1="1349.6" y1="0" x2="1349.6" y2="377" fill="rgb(0, 0, 0)" stroke="rgb(189, 189, 189)" stroke-width="1px" opacity="0.25"></line><line x1="1446" y1="0" x2="1446" y2="377" fill="rgb(0, 0, 0)" stroke="rgb(189, 189, 189)" stroke-width="1px" opacity="0.25"></line></g><g><line x1="0" y1="377" x2="1446" y2="377" fill="rgb(0, 0, 0)" stroke="rgb(189, 189, 189)" stroke-width="1px" opacity="0.25"></line><line x1="0" y1="335.1111111111111" x2="1446" y2="335.1111111111111" fill="rgb(0, 0, 0)" stroke="rgb(189, 189, 189)" stroke-width="1px" opacity="0.25"></line><line x1="0" y1="293.22222222222223" x2="1446" y2="293.22222222222223" fill="rgb(0, 0, 0)" stroke="rgb(189, 189, 189)" stroke-width="1px" opacity="0.25"></line><line x1="0" y1="251.3333333333333" x2="1446" y2="251.3333333333333" fill="rgb(0, 0, 0)" stroke="rgb(189, 189, 189)" stroke-width="1px" opacity="0.25"></line><line x1="0" y1="209.44444444444446" x2="1446" y2="209.44444444444446" fill="rgb(0, 0, 0)" stroke="rgb(189, 189, 189)" stroke-width="1px" opacity="0.25"></line><line x1="0" y1="167.55555555555554" x2="1446" y2="167.55555555555554" fill="rgb(0, 0, 0)" stroke="rgb(189, 189, 189)" stroke-width="1px" opacity="0.25"></line><line x1="0" y1="125.6666666666666" x2="1446" y2="125.6666666666666" fill="rgb(0, 0, 0)" stroke="rgb(189, 189, 189)" stroke-width="1px" opacity="0.25"></line><line x1="0" y1="83.77777777777777" x2="1446" y2="83.77777777777777" fill="rgb(0, 0, 0)" stroke="rgb(189, 189, 189)" stroke-width="1px" opacity="0.25"></line><line x1="0" y1="41.88888888888882" x2="1446" y2="41.88888888888882" fill="rgb(0, 0, 0)" stroke="rgb(189, 189, 189)" stroke-width="1px" opacity="0.25"></line><line x1="0" y1="0" x2="1446" y2="0" fill="rgb(0, 0, 0)" stroke="rgb(189, 189, 189)" stroke-width="1px" opacity="0.25"></line></g></g></g><g><g><line x1="0" y1="795.8888888888889" x2="1446" y2="795.8888888888889" fill="rgb(0, 0, 0)" stroke="rgb(153, 153, 153)" stroke-width="1.5px"></line></g></g><g><g><line x1="96.4" y1="0" x2="96.4" y2="377" fill="rgb(0, 0, 0)" stroke="rgb(153, 153, 153)" stroke-width="1.5px"></line></g></g><g><g><g><g><g><path stroke="rgb(238, 51, 119)" stroke-width="2px" d="M96.4,712.111109862725L144.6,324.6388888888889L192.8,256.5694344573551L241,178.02776779068836L289.2,167.55555555555554L337.4,130.90278776486713L385.6,141.37499999999997L433.8,78.541676653756L482,89.01388888888887L530.1999999999999,78.541676653756L578.4,57.597202248043466L626.6,83.77775780359902L674.8,68.06946441862313L723,62.83333333333332L771.2,68.06946441862313L819.4,36.65277777777773L867.6,52.36112109820045L915.8,36.65277777777773L964,47.1249900129106L1012.1999999999999,47.1249900129106L1060.3999999999999,36.65277777777773L1108.6000000000001,36.65277777777773" style="fill: none;" fill="none"></path></g><g><path stroke="rgb(204, 51, 17)" stroke-width="2px" d="M96.4,691.1666666666667L144.6,314.16667665375604L192.8,246.09722222222217L241,162.3194244702657L289.2,178.02776779068836L337.4,130.90278776486713L385.6,151.84721223513282L433.8,99.48610112402173L482,104.72223220931154L530.1999999999999,78.541676653756L578.4,73.30554556846614L626.6,57.597202248043466L674.8,68.06946441862313L723,68.06946441862313L771.2,57.597202248043466L819.4,41.888908863067584L867.6,47.1249900129106L915.8,47.1249900129106L964,52.36112109820045L1012.1999999999999,47.1249900129106L1060.3999999999999,57.597202248043466L1108.6000000000001,52.36112109820045" style="fill: none;" fill="none"></path></g><g><path stroke="rgb(255, 112, 67)" stroke-width="2px" d="M96.4,743.5277777777778L144.6,335.11110112402173L192.8,246.09722222222217L241,178.02776779068836L289.2,193.7361111111111L337.4,125.66665667957727L385.6,151.84721223513282L433.8,99.48610112402173L482,89.01388888888887L530.1999999999999,83.77775780359902L578.4,94.25001997417871L626.6,78.541676653756L674.8,109.95831335915456L723,62.83333333333332L771.2,57.597202248043466L819.4,62.83333333333332L867.6,62.83333333333332L915.8,68.06946441862313L964,78.541676653756L1012.1999999999999,89.01388888888887L1060.3999999999999,68.06946441862313" style="fill: none;" fill="none"></path></g><g><path stroke="rgb(0, 153, 136)" stroke-width="2px" d="M96.4,434.59721722867755L144.6,246.09722222222217L192.8,162.3194244702657L241,157.08334332042267L289.2,104.72223220931154L337.4,68.06946441862313L385.6,125.66665667957727L433.8,52.36112109820045L482,68.06946441862313L530.1999999999999,68.06946441862313L578.4,68.06946441862313L626.6,68.06946441862313L674.8,41.888908863067584L723,68.06946441862313L771.2,41.888908863067584L819.4,52.36112109820045L867.6,36.65277777777773L915.8,31.416646692487877L964,57.597202248043466L1012.1999999999999,52.36112109820045L1060.3999999999999,31.416646692487877L1108.6000000000001,31.416646692487877L1156.8,31.416646692487877L1205,41.888908863067584" style="fill: none;" fill="none"></path></g><g><path stroke="rgb(51, 187, 238)" stroke-width="2px" d="M96.4,450.3055605491003L144.6,267.0416466924879L192.8,214.68053558137683L241,146.6111310852898L289.2,151.84721223513282L337.4,104.72223220931154L385.6,104.72223220931154L433.8,89.01388888888887L482,73.30554556846614L530.1999999999999,62.83333333333332L578.4,57.597202248043466L626.6,57.597202248043466L674.8,68.06946441862313L723,62.83333333333332L771.2,47.1249900129106L819.4,52.36112109820045L867.6,36.65277777777773L915.8,36.65277777777773L964,68.06946441862313L1012.1999999999999,52.36112109820045L1060.3999999999999,41.888908863067584L1108.6000000000001,52.36112109820045L1156.8,52.36112109820045" style="fill: none;" fill="none"></path></g><g><path stroke="rgb(0, 119, 187)" stroke-width="2px" d="M96.4,565.4999950064554L144.6,308.9305455684662L192.8,235.62500998708936L241,172.7916866408454L289.2,162.3194244702657L337.4,120.43057552973427L385.6,141.37499999999997L433.8,78.541676653756L482,83.77775780359902L530.1999999999999,99.48610112402173L578.4,83.77775780359902L626.6,73.30554556846614L674.8,94.25001997417871L723,73.30554556846614L771.2,83.77775780359902L819.4,68.06946441862313L867.6,73.30554556846614L915.8,57.597202248043466L964,73.30554556846614L1012.1999999999999,89.01388888888887L1060.3999999999999,52.36112109820045L1108.6000000000001,78.541676653756L1156.8,68.06946441862313L1205,57.597202248043466L1253.2,52.36112109820045L1301.4,68.06946441862313L1349.6,52.36112109820045" style="fill: none;" fill="none"></path></g></g></g></g></g></g><g transform="translate(50, 377)" clip-path="url(#clip_1)"><clipPath id="clip_1"><rect width="1446" height="23"></rect></clipPath><g><g><line x1="0" y1="0" x2="0" y2="5" style="visibility: inherit;" fill="rgb(0, 0, 0)" stroke="rgb(204, 204, 204)" stroke-width="1px"></line><line x1="96.4" y1="0" x2="96.4" y2="5" style="visibility: inherit;" fill="rgb(0, 0, 0)" stroke="rgb(204, 204, 204)" stroke-width="1px"></line><line x1="192.8" y1="0" x2="192.8" y2="5" style="visibility: inherit;" fill="rgb(0, 0, 0)" stroke="rgb(204, 204, 204)" stroke-width="1px"></line><line x1="289.2" y1="0" x2="289.2" y2="5" style="visibility: inherit;" fill="rgb(0, 0, 0)" stroke="rgb(204, 204, 204)" stroke-width="1px"></line><line x1="385.6" y1="0" x2="385.6" y2="5" style="visibility: inherit;" fill="rgb(0, 0, 0)" stroke="rgb(204, 204, 204)" stroke-width="1px"></line><line x1="482" y1="0" x2="482" y2="5" style="visibility: inherit;" fill="rgb(0, 0, 0)" stroke="rgb(204, 204, 204)" stroke-width="1px"></line><line x1="578.4" y1="0" x2="578.4" y2="5" style="visibility: inherit;" fill="rgb(0, 0, 0)" stroke="rgb(204, 204, 204)" stroke-width="1px"></line><line x1="674.8" y1="0" x2="674.8" y2="5" style="visibility: inherit;" fill="rgb(0, 0, 0)" stroke="rgb(204, 204, 204)" stroke-width="1px"></line><line x1="771.2" y1="0" x2="771.2" y2="5" style="visibility: inherit;" fill="rgb(0, 0, 0)" stroke="rgb(204, 204, 204)" stroke-width="1px"></line><line x1="867.6" y1="0" x2="867.6" y2="5" style="visibility: inherit;" fill="rgb(0, 0, 0)" stroke="rgb(204, 204, 204)" stroke-width="1px"></line><line x1="964" y1="0" x2="964" y2="5" style="visibility: inherit;" fill="rgb(0, 0, 0)" stroke="rgb(204, 204, 204)" stroke-width="1px"></line><line x1="1060.3999999999999" y1="0" x2="1060.3999999999999" y2="5" style="visibility: inherit;" fill="rgb(0, 0, 0)" stroke="rgb(204, 204, 204)" stroke-width="1px"></line><line x1="1156.8" y1="0" x2="1156.8" y2="5" style="visibility: inherit;" fill="rgb(0, 0, 0)" stroke="rgb(204, 204, 204)" stroke-width="1px"></line><line x1="1253.2" y1="0" x2="1253.2" y2="5" style="visibility: inherit;" fill="rgb(0, 0, 0)" stroke="rgb(204, 204, 204)" stroke-width="1px"></line><line x1="1349.6" y1="0" x2="1349.6" y2="5" style="visibility: inherit;" fill="rgb(0, 0, 0)" stroke="rgb(204, 204, 204)" stroke-width="1px"></line><line x1="1446" y1="0" x2="1446" y2="5" style="visibility: inherit;" fill="rgb(0, 0, 0)" stroke="rgb(204, 204, 204)" stroke-width="1px"></line></g><g transform="translate(0, 8)"><text x="0" y="0" dx="0em" dy="0.95em" style="text-anchor: middle; visibility: hidden; font-family: Roboto, sans-serif; font-size: 12px; font-weight: 200;" fill="rgb(255, 255, 255)" stroke="none" stroke-width="1px">-2</text><text x="96.4" y="0" dx="0em" dy="0.95em" style="text-anchor: middle; visibility: inherit; font-family: Roboto, sans-serif; font-size: 12px; font-weight: 200;" fill="rgb(255, 255, 255)" stroke="none" stroke-width="1px">0</text><text x="192.8" y="0" dx="0em" dy="0.95em" style="text-anchor: middle; visibility: inherit; font-family: Roboto, sans-serif; font-size: 12px; font-weight: 200;" fill="rgb(255, 255, 255)" stroke="none" stroke-width="1px">2</text><text x="289.2" y="0" dx="0em" dy="0.95em" style="text-anchor: middle; visibility: inherit; font-family: Roboto, sans-serif; font-size: 12px; font-weight: 200;" fill="rgb(255, 255, 255)" stroke="none" stroke-width="1px">4</text><text x="385.6" y="0" dx="0em" dy="0.95em" style="text-anchor: middle; visibility: inherit; font-family: Roboto, sans-serif; font-size: 12px; font-weight: 200;" fill="rgb(255, 255, 255)" stroke="none" stroke-width="1px">6</text><text x="482" y="0" dx="0em" dy="0.95em" style="text-anchor: middle; visibility: inherit; font-family: Roboto, sans-serif; font-size: 12px; font-weight: 200;" fill="rgb(255, 255, 255)" stroke="none" stroke-width="1px">8</text><text x="578.4" y="0" dx="0em" dy="0.95em" style="text-anchor: middle; visibility: inherit; font-family: Roboto, sans-serif; font-size: 12px; font-weight: 200;" fill="rgb(255, 255, 255)" stroke="none" stroke-width="1px">10</text><text x="674.8" y="0" dx="0em" dy="0.95em" style="text-anchor: middle; visibility: inherit; font-family: Roboto, sans-serif; font-size: 12px; font-weight: 200;" fill="rgb(255, 255, 255)" stroke="none" stroke-width="1px">12</text><text x="771.2" y="0" dx="0em" dy="0.95em" style="text-anchor: middle; visibility: inherit; font-family: Roboto, sans-serif; font-size: 12px; font-weight: 200;" fill="rgb(255, 255, 255)" stroke="none" stroke-width="1px">14</text><text x="867.6" y="0" dx="0em" dy="0.95em" style="text-anchor: middle; visibility: inherit; font-family: Roboto, sans-serif; font-size: 12px; font-weight: 200;" fill="rgb(255, 255, 255)" stroke="none" stroke-width="1px">16</text><text x="964" y="0" dx="0em" dy="0.95em" style="text-anchor: middle; visibility: inherit; font-family: Roboto, sans-serif; font-size: 12px; font-weight: 200;" fill="rgb(255, 255, 255)" stroke="none" stroke-width="1px">18</text><text x="1060.3999999999999" y="0" dx="0em" dy="0.95em" style="text-anchor: middle; visibility: inherit; font-family: Roboto, sans-serif; font-size: 12px; font-weight: 200;" fill="rgb(255, 255, 255)" stroke="none" stroke-width="1px">20</text><text x="1156.8" y="0" dx="0em" dy="0.95em" style="text-anchor: middle; visibility: inherit; font-family: Roboto, sans-serif; font-size: 12px; font-weight: 200;" fill="rgb(255, 255, 255)" stroke="none" stroke-width="1px">22</text><text x="1253.2" y="0" dx="0em" dy="0.95em" style="text-anchor: middle; visibility: inherit; font-family: Roboto, sans-serif; font-size: 12px; font-weight: 200;" fill="rgb(255, 255, 255)" stroke="none" stroke-width="1px">24</text><text x="1349.6" y="0" dx="0em" dy="0.95em" style="text-anchor: middle; visibility: inherit; font-family: Roboto, sans-serif; font-size: 12px; font-weight: 200;" fill="rgb(255, 255, 255)" stroke="none" stroke-width="1px">26</text><text x="1446" y="0" dx="0em" dy="0.95em" style="text-anchor: middle; visibility: hidden; font-family: Roboto, sans-serif; font-size: 12px; font-weight: 200;" fill="rgb(255, 255, 255)" stroke="none" stroke-width="1px">28</text></g><line x1="0" y1="0" x2="1446" y2="0" fill="rgb(0, 0, 0)" stroke="rgb(204, 204, 204)" stroke-width="1px"></line></g></g></g></g></svg>