<svg viewBox="0 0 1496 400" xmlns="http://www.w3.org/2000/svg"><g><g><g><g><g><line x1="41.171875" y1="377" x2="36.171875" y2="377" style="visibility: inherit;" fill="rgb(0, 0, 0)" stroke="rgb(204, 204, 204)" stroke-width="1px"></line><line x1="41.171875" y1="339.3" x2="36.171875" y2="339.3" style="visibility: inherit;" fill="rgb(0, 0, 0)" stroke="rgb(204, 204, 204)" stroke-width="1px"></line><line x1="41.171875" y1="301.6" x2="36.171875" y2="301.6" style="visibility: inherit;" fill="rgb(0, 0, 0)" stroke="rgb(204, 204, 204)" stroke-width="1px"></line><line x1="41.171875" y1="263.9" x2="36.171875" y2="263.9" style="visibility: inherit;" fill="rgb(0, 0, 0)" stroke="rgb(204, 204, 204)" stroke-width="1px"></line><line x1="41.171875" y1="226.2" x2="36.171875" y2="226.2" style="visibility: inherit;" fill="rgb(0, 0, 0)" stroke="rgb(204, 204, 204)" stroke-width="1px"></line><line x1="41.171875" y1="188.5" x2="36.171875" y2="188.5" style="visibility: inherit;" fill="rgb(0, 0, 0)" stroke="rgb(204, 204, 204)" stroke-width="1px"></line><line x1="41.171875" y1="150.8" x2="36.171875" y2="150.8" style="visibility: inherit;" fill="rgb(0, 0, 0)" stroke="rgb(204, 204, 204)" stroke-width="1px"></line><line x1="41.171875" y1="113.10000000000002" x2="36.171875" y2="113.10000000000002" style="visibility: inherit;" fill="rgb(0, 0, 0)" stroke="rgb(204, 204, 204)" stroke-width="1px"></line><line x1="41.171875" y1="75.39999999999998" x2="36.171875" y2="75.39999999999998" style="visibility: inherit;" fill="rgb(0, 0, 0)" stroke="rgb(204, 204, 204)" stroke-width="1px"></line><line x1="41.171875" y1="37.69999999999999" x2="36.171875" y2="37.69999999999999" style="visibility: inherit;" fill="rgb(0, 0, 0)" stroke="rgb(204, 204, 204)" stroke-width="1px"></line><line x1="41.171875" y1="0" x2="36.171875" y2="0" style="visibility: inherit;" fill="rgb(0, 0, 0)" stroke="rgb(204, 204, 204)" stroke-width="1px"></line></g><g transform="translate(31.171875, 0)"><text x="0" y="377" dx="0em" dy="0.3em" style="text-anchor: end; visibility: hidden; font-family: Roboto, sans-serif; font-size: 12px; font-weight: 200;" fill="rgb(255, 255, 255)" stroke="none" stroke-width="1px">0</text><text x="0" y="339.3" dx="0em" dy="0.3em" style="text-anchor: end; visibility: inherit; font-family: Roboto, sans-serif; font-size: 12px; font-weight: 200;" fill="rgb(255, 255, 255)" stroke="none" stroke-width="1px">0.1</text><text x="0" y="301.6" dx="0em" dy="0.3em" style="text-anchor: end; visibility: inherit; font-family: Roboto, sans-serif; font-size: 12px; font-weight: 200;" fill="rgb(255, 255, 255)" stroke="none" stroke-width="1px">0.2</text><text x="0" y="263.9" dx="0em" dy="0.3em" style="text-anchor: end; visibility: inherit; font-family: Roboto, sans-serif; font-size: 12px; font-weight: 200;" fill="rgb(255, 255, 255)" stroke="none" stroke-width="1px">0.3</text><text x="0" y="226.2" dx="0em" dy="0.3em" style="text-anchor: end; visibility: inherit; font-family: Roboto, sans-serif; font-size: 12px; font-weight: 200;" fill="rgb(255, 255, 255)" stroke="none" stroke-width="1px">0.4</text><text x="0" y="188.5" dx="0em" dy="0.3em" style="text-anchor: end; visibility: inherit; font-family: Roboto, sans-serif; font-size: 12px; font-weight: 200;" fill="rgb(255, 255, 255)" stroke="none" stroke-width="1px">0.5</text><text x="0" y="150.8" dx="0em" dy="0.3em" style="text-anchor: end; visibility: inherit; font-family: Roboto, sans-serif; font-size: 12px; font-weight: 200;" fill="rgb(255, 255, 255)" stroke="none" stroke-width="1px">0.6</text><text x="0" y="113.10000000000002" dx="0em" dy="0.3em" style="text-anchor: end; visibility: inherit; font-family: Roboto, sans-serif; font-size: 12px; font-weight: 200;" fill="rgb(255, 255, 255)" stroke="none" stroke-width="1px">0.7</text><text x="0" y="75.39999999999998" dx="0em" dy="0.3em" style="text-anchor: end; visibility: inherit; font-family: Roboto, sans-serif; font-size: 12px; font-weight: 200;" fill="rgb(255, 255, 255)" stroke="none" stroke-width="1px">0.8</text><text x="0" y="37.69999999999999" dx="0em" dy="0.3em" style="text-anchor: end; visibility: inherit; font-family: Roboto, sans-serif; font-size: 12px; font-weight: 200;" fill="rgb(255, 255, 255)" stroke="none" stroke-width="1px">0.9</text><text x="0" y="0" dx="0em" dy="0.3em" style="text-anchor: end; visibility: hidden; font-family: Roboto, sans-serif; font-size: 12px; font-weight: 200;" fill="rgb(255, 255, 255)" stroke="none" stroke-width="1px">1</text></g><line x1="41.171875" y1="0" x2="41.171875" y2="377" fill="rgb(0, 0, 0)" stroke="rgb(204, 204, 204)" stroke-width="1px"></line></g></g><g transform="translate(41, 0)" clip-path="url(#clip_0)"><clipPath id="clip_0"><rect width="1454" height="377"></rect></clipPath><g><g><g><line x1="0" y1="0" x2="0" y2="377" fill="rgb(0, 0, 0)" stroke="rgb(189, 189, 189)" stroke-width="1px" opacity="0.25"></line><line x1="161.64756944444443" y1="0" x2="161.64756944444443" y2="377" fill="rgb(0, 0, 0)" stroke="rgb(189, 189, 189)" stroke-width="1px" opacity="0.25"></line><line x1="323.29513888888886" y1="0" x2="323.29513888888886" y2="377" fill="rgb(0, 0, 0)" stroke="rgb(189, 189, 189)" stroke-width="1px" opacity="0.25"></line><line x1="484.9427083333333" y1="0" x2="484.9427083333333" y2="377" fill="rgb(0, 0, 0)" stroke="rgb(189, 189, 189)" stroke-width="1px" opacity="0.25"></line><line x1="646.5902777777777" y1="0" x2="646.5902777777777" y2="377" fill="rgb(0, 0, 0)" stroke="rgb(189, 189, 189)" stroke-width="1px" opacity="0.25"></line><line x1="808.2378472222223" y1="0" x2="808.2378472222223" y2="377" fill="rgb(0, 0, 0)" stroke="rgb(189, 189, 189)" stroke-width="1px" opacity="0.25"></line><line x1="969.8854166666666" y1="0" x2="969.8854166666666" y2="377" fill="rgb(0, 0, 0)" stroke="rgb(189, 189, 189)" stroke-width="1px" opacity="0.25"></line><line x1="1131.532986111111" y1="0" x2="1131.532986111111" y2="377" fill="rgb(0, 0, 0)" stroke="rgb(189, 189, 189)" stroke-width="1px" opacity="0.25"></line><line x1="1293.1805555555554" y1="0" x2="1293.1805555555554" y2="377" fill="rgb(0, 0, 0)" stroke="rgb(189, 189, 189)" stroke-width="1px" opacity="0.25"></line><line x1="1454.828125" y1="0" x2="1454.828125" y2="377" fill="rgb(0, 0, 0)" stroke="rgb(189, 189, 189)" stroke-width="1px" opacity="0.25"></line></g><g><line x1="0" y1="377" x2="1454.828125" y2="377" fill="rgb(0, 0, 0)" stroke="rgb(189, 189, 189)" stroke-width="1px" opacity="0.25"></line><line x1="0" y1="339.3" x2="1454.828125" y2="339.3" fill="rgb(0, 0, 0)" stroke="rgb(189, 189, 189)" stroke-width="1px" opacity="0.25"></line><line x1="0" y1="301.6" x2="1454.828125" y2="301.6" fill="rgb(0, 0, 0)" stroke="rgb(189, 189, 189)" stroke-width="1px" opacity="0.25"></line><line x1="0" y1="263.9" x2="1454.828125" y2="263.9" fill="rgb(0, 0, 0)" stroke="rgb(189, 189, 189)" stroke-width="1px" opacity="0.25"></line><line x1="0" y1="226.2" x2="1454.828125" y2="226.2" fill="rgb(0, 0, 0)" stroke="rgb(189, 189, 189)" stroke-width="1px" opacity="0.25"></line><line x1="0" y1="188.5" x2="1454.828125" y2="188.5" fill="rgb(0, 0, 0)" stroke="rgb(189, 189, 189)" stroke-width="1px" opacity="0.25"></line><line x1="0" y1="150.8" x2="1454.828125" y2="150.8" fill="rgb(0, 0, 0)" stroke="rgb(189, 189, 189)" stroke-width="1px" opacity="0.25"></line><line x1="0" y1="113.10000000000002" x2="1454.828125" y2="113.10000000000002" fill="rgb(0, 0, 0)" stroke="rgb(189, 189, 189)" stroke-width="1px" opacity="0.25"></line><line x1="0" y1="75.39999999999998" x2="1454.828125" y2="75.39999999999998" fill="rgb(0, 0, 0)" stroke="rgb(189, 189, 189)" stroke-width="1px" opacity="0.25"></line><line x1="0" y1="37.69999999999999" x2="1454.828125" y2="37.69999999999999" fill="rgb(0, 0, 0)" stroke="rgb(189, 189, 189)" stroke-width="1px" opacity="0.25"></line><line x1="0" y1="0" x2="1454.828125" y2="0" fill="rgb(0, 0, 0)" stroke="rgb(189, 189, 189)" stroke-width="1px" opacity="0.25"></line></g></g></g><g><g><line x1="0" y1="377" x2="1454.828125" y2="377" fill="rgb(0, 0, 0)" stroke="rgb(153, 153, 153)" stroke-width="1.5px"></line></g></g><g><g><line x1="161.64756944444443" y1="0" x2="161.64756944444443" y2="377" fill="rgb(0, 0, 0)" stroke="rgb(153, 153, 153)" stroke-width="1.5px"></line></g></g><g><g><g><g><g><path stroke="rgb(51, 187, 238)" stroke-width="2px" d="M161.64756944444443,355.7937505617738L193.97708333333333,353.4375L226.30659722222222,336.94374887645245L258.6361111111111,237.9812477529049L290.965625,162.58124101161957L323.29513888888886,143.73125898838043L355.6246527777778,122.52499550580978L387.95416666666665,108.38750898838043L420.2836805555555,103.67499101161957L452.61319444444445,89.53750449419022L484.9427083333333,110.74374550580978L517.2722222222222,89.53750449419022L549.6017361111111,77.75625449419022L581.93125,68.33124101161957L614.2607638888888,68.33124101161957L646.5902777777777,63.618745505809784L678.9197916666667,49.48125898838043L711.2493055555556,47.125L743.5788194444444,61.26250898838043L775.9083333333333,47.125L808.2378472222223,47.125L840.567361111111,47.125L872.896875,56.54999101161957L905.2263888888889,42.412504494190216L937.5559027777779,47.125L969.8854166666666,42.412504494190216L1002.2149305555555,47.125L1034.5444444444445,37.70000898838043L1066.8739583333333,30.631254494190216L1099.2034722222222,32.98749101161957L1131.532986111111,28.274995505809784L1163.8625,44.76874101161957L1196.1920138888888,32.98749101161957L1228.5215277777777,35.34375L1260.8510416666668,35.34375L1293.1805555555554,44.76874101161957L1325.5100694444445,40.056245505809784" style="fill: none;" fill="none"></path></g><g><path stroke="rgb(0, 119, 187)" stroke-width="2px" d="M161.64756944444443,353.4375L193.97708333333333,292.1750022470951L226.30659722222222,162.58124101161957L258.6361111111111,113.10000449419022L290.965625,98.96249550580978L323.29513888888886,87.18124550580978L355.6246527777778,73.04375898838043L387.95416666666665,73.04375898838043L420.2836805555555,54.193754494190216L452.61319444444445,51.837495505809784L484.9427083333333,51.837495505809784L517.2722222222222,49.48125898838043L549.6017361111111,49.48125898838043L581.93125,47.125L614.2607638888888,56.54999101161957L646.5902777777777,35.34375L678.9197916666667,35.34375L711.2493055555556,40.056245505809784L743.5788194444444,42.412504494190216L775.9083333333333,32.98749101161957L808.2378472222223,32.98749101161957L840.567361111111,40.056245505809784L872.896875,28.274995505809784L905.2263888888889,37.70000898838043L937.5559027777779,35.34375L969.8854166666666,30.631254494190216L1002.2149305555555,21.206241011619568L1034.5444444444445,23.5625L1066.8739583333333,28.274995505809784L1099.2034722222222,28.274995505809784L1131.532986111111,49.48125898838043L1163.8625,28.274995505809784L1196.1920138888888,23.5625" style="fill: none;" fill="none"></path></g><g><path stroke="rgb(187, 187, 187)" stroke-width="2px" d="M161.64756944444443,355.7937505617738L193.97708333333333,275.6812455058098L226.30659722222222,193.21249550580978L258.6361111111111,117.8125L290.965625,115.45624101161957L323.29513888888886,108.38750898838043L355.6246527777778,87.18124550580978L387.95416666666665,89.53750449419022L420.2836805555555,82.46875L452.61319444444445,80.11249101161957L484.9427083333333,68.33124101161957L517.2722222222222,73.04375898838043L549.6017361111111,65.97500449419022L581.93125,58.90625L614.2607638888888,68.33124101161957L646.5902777777777,61.26250898838043L678.9197916666667,56.54999101161957L711.2493055555556,40.056245505809784L743.5788194444444,44.76874101161957L775.9083333333333,42.412504494190216L808.2378472222223,51.837495505809784L840.567361111111,49.48125898838043L872.896875,49.48125898838043L905.2263888888889,40.056245505809784" style="fill: none;" fill="none"></path></g><g><path stroke="rgb(238, 51, 119)" stroke-width="2px" d="M161.64756944444443,358.1499997191131L193.97708333333333,353.4375L226.30659722222222,353.4375L258.6361111111111,353.4375L290.965625,353.4375L323.29513888888886,358.1499997191131L355.6246527777778,353.4375L387.95416666666665,353.4375" style="fill: none;" fill="none"></path></g><g><path stroke="rgb(204, 51, 17)" stroke-width="2px" d="M161.64756944444443,346.36875112354755L193.97708333333333,216.77499550580978L226.30659722222222,150.79999101161957L258.6361111111111,117.8125L290.965625,113.10000449419022L323.29513888888886,101.31875449419022L355.6246527777778,98.96249550580978L387.95416666666665,89.53750449419022L420.2836805555555,73.04375898838043L452.61319444444445,89.53750449419022L484.9427083333333,80.11249101161957L517.2722222222222,75.39999550580978L549.6017361111111,77.75625449419022L581.93125,56.54999101161957L614.2607638888888,58.90625L646.5902777777777,61.26250898838043L678.9197916666667,54.193754494190216L711.2493055555556,58.90625L743.5788194444444,63.618745505809784L775.9083333333333,68.33124101161957L808.2378472222223,47.125L840.567361111111,58.90625L872.896875,61.26250898838043L905.2263888888889,51.837495505809784L937.5559027777779,54.193754494190216L969.8854166666666,61.26250898838043L1002.2149305555555,54.193754494190216" style="fill: none;" fill="none"></path></g></g></g></g></g></g><g transform="translate(41, 377)" clip-path="url(#clip_1)"><clipPath id="clip_1"><rect width="1454" height="23"></rect></clipPath><g><g><line x1="0" y1="0" x2="0" y2="5" style="visibility: inherit;" fill="rgb(0, 0, 0)" stroke="rgb(204, 204, 204)" stroke-width="1px"></line><line x1="161.64756944444443" y1="0" x2="161.64756944444443" y2="5" style="visibility: inherit;" fill="rgb(0, 0, 0)" stroke="rgb(204, 204, 204)" stroke-width="1px"></line><line x1="323.29513888888886" y1="0" x2="323.29513888888886" y2="5" style="visibility: inherit;" fill="rgb(0, 0, 0)" stroke="rgb(204, 204, 204)" stroke-width="1px"></line><line x1="484.9427083333333" y1="0" x2="484.9427083333333" y2="5" style="visibility: inherit;" fill="rgb(0, 0, 0)" stroke="rgb(204, 204, 204)" stroke-width="1px"></line><line x1="646.5902777777777" y1="0" x2="646.5902777777777" y2="5" style="visibility: inherit;" fill="rgb(0, 0, 0)" stroke="rgb(204, 204, 204)" stroke-width="1px"></line><line x1="808.2378472222223" y1="0" x2="808.2378472222223" y2="5" style="visibility: inherit;" fill="rgb(0, 0, 0)" stroke="rgb(204, 204, 204)" stroke-width="1px"></line><line x1="969.8854166666666" y1="0" x2="969.8854166666666" y2="5" style="visibility: inherit;" fill="rgb(0, 0, 0)" stroke="rgb(204, 204, 204)" stroke-width="1px"></line><line x1="1131.532986111111" y1="0" x2="1131.532986111111" y2="5" style="visibility: inherit;" fill="rgb(0, 0, 0)" stroke="rgb(204, 204, 204)" stroke-width="1px"></line><line x1="1293.1805555555554" y1="0" x2="1293.1805555555554" y2="5" style="visibility: inherit;" fill="rgb(0, 0, 0)" stroke="rgb(204, 204, 204)" stroke-width="1px"></line><line x1="1454.828125" y1="0" x2="1454.828125" y2="5" style="visibility: inherit;" fill="rgb(0, 0, 0)" stroke="rgb(204, 204, 204)" stroke-width="1px"></line></g><g transform="translate(0, 8)"><text x="0" y="0" dx="0em" dy="0.95em" style="text-anchor: middle; visibility: hidden; font-family: Roboto, sans-serif; font-size: 12px; font-weight: 200;" fill="rgb(255, 255, 255)" stroke="none" stroke-width="1px">-5</text><text x="161.64756944444443" y="0" dx="0em" dy="0.95em" style="text-anchor: middle; visibility: inherit; font-family: Roboto, sans-serif; font-size: 12px; font-weight: 200;" fill="rgb(255, 255, 255)" stroke="none" stroke-width="1px">0</text><text x="323.29513888888886" y="0" dx="0em" dy="0.95em" style="text-anchor: middle; visibility: inherit; font-family: Roboto, sans-serif; font-size: 12px; font-weight: 200;" fill="rgb(255, 255, 255)" stroke="none" stroke-width="1px">5</text><text x="484.9427083333333" y="0" dx="0em" dy="0.95em" style="text-anchor: middle; visibility: inherit; font-family: Roboto, sans-serif; font-size: 12px; font-weight: 200;" fill="rgb(255, 255, 255)" stroke="none" stroke-width="1px">10</text><text x="646.5902777777777" y="0" dx="0em" dy="0.95em" style="text-anchor: middle; visibility: inherit; font-family: Roboto, sans-serif; font-size: 12px; font-weight: 200;" fill="rgb(255, 255, 255)" stroke="none" stroke-width="1px">15</text><text x="808.2378472222223" y="0" dx="0em" dy="0.95em" style="text-anchor: middle; visibility: inherit; font-family: Roboto, sans-serif; font-size: 12px; font-weight: 200;" fill="rgb(255, 255, 255)" stroke="none" stroke-width="1px">20</text><text x="969.8854166666666" y="0" dx="0em" dy="0.95em" style="text-anchor: middle; visibility: inherit; font-family: Roboto, sans-serif; font-size: 12px; font-weight: 200;" fill="rgb(255, 255, 255)" stroke="none" stroke-width="1px">25</text><text x="1131.532986111111" y="0" dx="0em" dy="0.95em" style="text-anchor: middle; visibility: inherit; font-family: Roboto, sans-serif; font-size: 12px; font-weight: 200;" fill="rgb(255, 255, 255)" stroke="none" stroke-width="1px">30</text><text x="1293.1805555555554" y="0" dx="0em" dy="0.95em" style="text-anchor: middle; visibility: inherit; font-family: Roboto, sans-serif; font-size: 12px; font-weight: 200;" fill="rgb(255, 255, 255)" stroke="none" stroke-width="1px">35</text><text x="1454.828125" y="0" dx="0em" dy="0.95em" style="text-anchor: middle; visibility: hidden; font-family: Roboto, sans-serif; font-size: 12px; font-weight: 200;" fill="rgb(255, 255, 255)" stroke="none" stroke-width="1px">40</text></g><line x1="0" y1="0" x2="1454.828125" y2="0" fill="rgb(0, 0, 0)" stroke="rgb(204, 204, 204)" stroke-width="1px"></line></g></g></g></g></svg>