<svg viewBox="0 0 1496 400" xmlns="http://www.w3.org/2000/svg"><g><g><g><g><g><line x1="40" y1="377" x2="35" y2="377" style="visibility: inherit;" fill="rgb(0, 0, 0)" stroke="rgb(204, 204, 204)" stroke-width="1px"></line><line x1="40" y1="335.1111111111111" x2="35" y2="335.1111111111111" style="visibility: inherit;" fill="rgb(0, 0, 0)" stroke="rgb(204, 204, 204)" stroke-width="1px"></line><line x1="40" y1="293.22222222222223" x2="35" y2="293.22222222222223" style="visibility: inherit;" fill="rgb(0, 0, 0)" stroke="rgb(204, 204, 204)" stroke-width="1px"></line><line x1="40" y1="251.33333333333331" x2="35" y2="251.33333333333331" style="visibility: inherit;" fill="rgb(0, 0, 0)" stroke="rgb(204, 204, 204)" stroke-width="1px"></line><line x1="40" y1="209.44444444444446" x2="35" y2="209.44444444444446" style="visibility: inherit;" fill="rgb(0, 0, 0)" stroke="rgb(204, 204, 204)" stroke-width="1px"></line><line x1="40" y1="167.55555555555554" x2="35" y2="167.55555555555554" style="visibility: inherit;" fill="rgb(0, 0, 0)" stroke="rgb(204, 204, 204)" stroke-width="1px"></line><line x1="40" y1="125.66666666666669" x2="35" y2="125.66666666666669" style="visibility: inherit;" fill="rgb(0, 0, 0)" stroke="rgb(204, 204, 204)" stroke-width="1px"></line><line x1="40" y1="83.77777777777777" x2="35" y2="83.77777777777777" style="visibility: inherit;" fill="rgb(0, 0, 0)" stroke="rgb(204, 204, 204)" stroke-width="1px"></line><line x1="40" y1="41.888888888888864" x2="35" y2="41.888888888888864" style="visibility: inherit;" fill="rgb(0, 0, 0)" stroke="rgb(204, 204, 204)" stroke-width="1px"></line><line x1="40" y1="0" x2="35" y2="0" style="visibility: inherit;" fill="rgb(0, 0, 0)" stroke="rgb(204, 204, 204)" stroke-width="1px"></line></g><g transform="translate(30, 0)"><text x="0" y="377" dx="0em" dy="0.3em" style="text-anchor: end; visibility: hidden; font-family: Roboto, sans-serif; font-size: 12px; font-weight: 200;" fill="rgb(255, 255, 255)" stroke="none" stroke-width="1px">0.1</text><text x="0" y="335.1111111111111" dx="0em" dy="0.3em" style="text-anchor: end; visibility: inherit; font-family: Roboto, sans-serif; font-size: 12px; font-weight: 200;" fill="rgb(255, 255, 255)" stroke="none" stroke-width="1px">0.2</text><text x="0" y="293.22222222222223" dx="0em" dy="0.3em" style="text-anchor: end; visibility: inherit; font-family: Roboto, sans-serif; font-size: 12px; font-weight: 200;" fill="rgb(255, 255, 255)" stroke="none" stroke-width="1px">0.3</text><text x="0" y="251.33333333333331" dx="0em" dy="0.3em" style="text-anchor: end; visibility: inherit; font-family: Roboto, sans-serif; font-size: 12px; font-weight: 200;" fill="rgb(255, 255, 255)" stroke="none" stroke-width="1px">0.4</text><text x="0" y="209.44444444444446" dx="0em" dy="0.3em" style="text-anchor: end; visibility: inherit; font-family: Roboto, sans-serif; font-size: 12px; font-weight: 200;" fill="rgb(255, 255, 255)" stroke="none" stroke-width="1px">0.5</text><text x="0" y="167.55555555555554" dx="0em" dy="0.3em" style="text-anchor: end; visibility: inherit; font-family: Roboto, sans-serif; font-size: 12px; font-weight: 200;" fill="rgb(255, 255, 255)" stroke="none" stroke-width="1px">0.6</text><text x="0" y="125.66666666666669" dx="0em" dy="0.3em" style="text-anchor: end; visibility: inherit; font-family: Roboto, sans-serif; font-size: 12px; font-weight: 200;" fill="rgb(255, 255, 255)" stroke="none" stroke-width="1px">0.7</text><text x="0" y="83.77777777777777" dx="0em" dy="0.3em" style="text-anchor: end; visibility: inherit; font-family: Roboto, sans-serif; font-size: 12px; font-weight: 200;" fill="rgb(255, 255, 255)" stroke="none" stroke-width="1px">0.8</text><text x="0" y="41.888888888888864" dx="0em" dy="0.3em" style="text-anchor: end; visibility: inherit; font-family: Roboto, sans-serif; font-size: 12px; font-weight: 200;" fill="rgb(255, 255, 255)" stroke="none" stroke-width="1px">0.9</text><text x="0" y="0" dx="0em" dy="0.3em" style="text-anchor: end; visibility: hidden; font-family: Roboto, sans-serif; font-size: 12px; font-weight: 200;" fill="rgb(255, 255, 255)" stroke="none" stroke-width="1px">1</text></g><line x1="40" y1="0" x2="40" y2="377" fill="rgb(0, 0, 0)" stroke="rgb(204, 204, 204)" stroke-width="1px"></line></g></g><g transform="translate(40, 0)" clip-path="url(#clip_0)"><clipPath id="clip_0"><rect width="1456" height="377"></rect></clipPath><g><g><g><line x1="0" y1="0" x2="0" y2="377" fill="rgb(0, 0, 0)" stroke="rgb(189, 189, 189)" stroke-width="1px" opacity="0.25"></line><line x1="145.6" y1="0" x2="145.6" y2="377" fill="rgb(0, 0, 0)" stroke="rgb(189, 189, 189)" stroke-width="1px" opacity="0.25"></line><line x1="291.2" y1="0" x2="291.2" y2="377" fill="rgb(0, 0, 0)" stroke="rgb(189, 189, 189)" stroke-width="1px" opacity="0.25"></line><line x1="436.8" y1="0" x2="436.8" y2="377" fill="rgb(0, 0, 0)" stroke="rgb(189, 189, 189)" stroke-width="1px" opacity="0.25"></line><line x1="582.4" y1="0" x2="582.4" y2="377" fill="rgb(0, 0, 0)" stroke="rgb(189, 189, 189)" stroke-width="1px" opacity="0.25"></line><line x1="728" y1="0" x2="728" y2="377" fill="rgb(0, 0, 0)" stroke="rgb(189, 189, 189)" stroke-width="1px" opacity="0.25"></line><line x1="873.6" y1="0" x2="873.6" y2="377" fill="rgb(0, 0, 0)" stroke="rgb(189, 189, 189)" stroke-width="1px" opacity="0.25"></line><line x1="1019.1999999999999" y1="0" x2="1019.1999999999999" y2="377" fill="rgb(0, 0, 0)" stroke="rgb(189, 189, 189)" stroke-width="1px" opacity="0.25"></line><line x1="1164.8" y1="0" x2="1164.8" y2="377" fill="rgb(0, 0, 0)" stroke="rgb(189, 189, 189)" stroke-width="1px" opacity="0.25"></line><line x1="1310.4" y1="0" x2="1310.4" y2="377" fill="rgb(0, 0, 0)" stroke="rgb(189, 189, 189)" stroke-width="1px" opacity="0.25"></line><line x1="1456" y1="0" x2="1456" y2="377" fill="rgb(0, 0, 0)" stroke="rgb(189, 189, 189)" stroke-width="1px" opacity="0.25"></line></g><g><line x1="0" y1="377" x2="1456" y2="377" fill="rgb(0, 0, 0)" stroke="rgb(189, 189, 189)" stroke-width="1px" opacity="0.25"></line><line x1="0" y1="335.1111111111111" x2="1456" y2="335.1111111111111" fill="rgb(0, 0, 0)" stroke="rgb(189, 189, 189)" stroke-width="1px" opacity="0.25"></line><line x1="0" y1="293.22222222222223" x2="1456" y2="293.22222222222223" fill="rgb(0, 0, 0)" stroke="rgb(189, 189, 189)" stroke-width="1px" opacity="0.25"></line><line x1="0" y1="251.33333333333331" x2="1456" y2="251.33333333333331" fill="rgb(0, 0, 0)" stroke="rgb(189, 189, 189)" stroke-width="1px" opacity="0.25"></line><line x1="0" y1="209.44444444444446" x2="1456" y2="209.44444444444446" fill="rgb(0, 0, 0)" stroke="rgb(189, 189, 189)" stroke-width="1px" opacity="0.25"></line><line x1="0" y1="167.55555555555554" x2="1456" y2="167.55555555555554" fill="rgb(0, 0, 0)" stroke="rgb(189, 189, 189)" stroke-width="1px" opacity="0.25"></line><line x1="0" y1="125.66666666666669" x2="1456" y2="125.66666666666669" fill="rgb(0, 0, 0)" stroke="rgb(189, 189, 189)" stroke-width="1px" opacity="0.25"></line><line x1="0" y1="83.77777777777777" x2="1456" y2="83.77777777777777" fill="rgb(0, 0, 0)" stroke="rgb(189, 189, 189)" stroke-width="1px" opacity="0.25"></line><line x1="0" y1="41.888888888888864" x2="1456" y2="41.888888888888864" fill="rgb(0, 0, 0)" stroke="rgb(189, 189, 189)" stroke-width="1px" opacity="0.25"></line><line x1="0" y1="0" x2="1456" y2="0" fill="rgb(0, 0, 0)" stroke="rgb(189, 189, 189)" stroke-width="1px" opacity="0.25"></line></g></g></g><g><g><line x1="0" y1="418.8888888888889" x2="1456" y2="418.8888888888889" fill="rgb(0, 0, 0)" stroke="rgb(153, 153, 153)" stroke-width="1.5px"></line></g></g><g><g><line x1="145.6" y1="0" x2="145.6" y2="377" fill="rgb(0, 0, 0)" stroke="rgb(153, 153, 153)" stroke-width="1.5px"></line></g></g><g><g><g><g><g><path stroke="rgb(255, 112, 67)" stroke-width="2px" d="M174.72,397.94444413234794L203.84000000000003,335.11110986272496L232.96,246.09722471899454L262.08,183.26388888888886L291.2,175.40971722867755L320.32,175.40971722867755L349.44,138.75694943798914L378.56,136.13888389534418L407.68000000000006,130.90277777777777L436.8,115.19443445735506L465.92,99.48611610465578L495.04,104.72222222222223L524.16,94.25000998708936L553.28,89.0138789017995L582.4,78.54166666666669L611.52,86.39583832687799L640.64,83.7777727842331L669.76,75.92360112402173L698.88,73.30556054910022L728,73.30556054910022L757.12,68.06945443153381L786.24,68.06945443153381L815.3600000000001,57.59721722867755L844.4799999999999,44.50693945089977L873.6,62.83332334624396L902.72,49.74304556846619L931.84,57.59721722867755L960.96,52.36111111111109L990.08,52.36111111111109L1019.1999999999999,47.12500499354468" style="fill: none;" fill="none"></path></g><g><path stroke="rgb(0, 153, 136)" stroke-width="2px" d="M145.6,397.94444413234794L174.72,361.2916654182805L203.84000000000003,238.24305305878318L232.96,188.49999500645532L262.08,151.8472272157669L291.2,146.6111210982005L320.32,112.57639388243359L349.44,107.34028776486713L378.56,91.63194444444446L407.68000000000006,89.0138789017995L436.8,75.92360112402173L465.92,83.7777727842331L495.04,70.68749500645532L524.16,70.68749500645532L553.28,68.06945443153381L582.4,68.06945443153381L611.52,70.68749500645532L640.64,52.36111111111109L669.76,65.45138888888891L698.88,49.74304556846619L728,60.21528277132245L757.12,52.36111111111109L786.24,49.74304556846619L815.3600000000001,52.36111111111109L844.4799999999999,36.652767790688415L873.6,57.59721722867755L902.72,44.50693945089977L931.84,44.50693945089977L960.96,52.36111111111109L990.08,39.27083333333332L1019.1999999999999,41.88889887597827" style="fill: none;" fill="none"></path></g><g><path stroke="rgb(51, 187, 238)" stroke-width="2px" d="M174.72,382.23611173530423L203.84000000000003,217.29861610465582L232.96,172.79167665375604L262.08,151.8472272157669L291.2,115.19443445735506L320.32,123.04860611756641L349.44,107.34028776486713L378.56,89.0138789017995L407.68000000000006,78.54166666666669L436.8,81.15973220931158L465.92,83.7777727842331L495.04,104.72222222222223L524.16,68.06945443153381L553.28,73.30556054910022L582.4,65.45138888888891L611.52,65.45138888888891L640.64,60.21528277132245L669.76,57.59721722867755L698.88,49.74304556846619L728,49.74304556846619L757.12,52.36111111111109L786.24,41.88889887597827L815.3600000000001,44.50693945089977L844.4799999999999,49.74304556846619L873.6,44.50693945089977L902.72,41.88889887597827L931.84,41.88889887597827L960.96,47.12500499354468" style="fill: none;" fill="none"></path></g><g><path stroke="rgb(0, 119, 187)" stroke-width="2px" d="M145.6,397.94444413234794L174.72,361.2916654182805L203.84000000000003,209.44444444444446L232.96,130.90277777777777L262.08,157.08333333333331L291.2,109.95832833978864L320.32,104.72222222222223L349.44,99.48611610465578L378.56,96.86805056201086L407.68000000000006,91.63194444444446L436.8,91.63194444444446L465.92,86.39583832687799L495.04,78.54166666666669L524.16,75.92360112402173L553.28,62.83332334624396L582.4,68.06945443153381L611.52,60.21528277132245L640.64,57.59721722867755L669.76,57.59721722867755L698.88,54.97917665375604L728,52.36111111111109L757.12,62.83332334624396L786.24,57.59721722867755L815.3600000000001,47.12500499354468L844.4799999999999,57.59721722867755L873.6,54.97917665375604L902.72,49.74304556846619L931.84,49.74304556846619L960.96,41.88889887597827L990.08,57.59721722867755L1019.1999999999999,49.74304556846619L1048.32,44.50693945089977L1077.44,47.12500499354468L1106.56,47.12500499354468L1135.68,39.27083333333332L1164.8,34.03472721576691L1193.9199999999998,39.27083333333332L1223.04,52.36111111111109L1252.16,36.652767790688415L1281.28,47.12500499354468L1310.4,52.36111111111109L1339.52,41.88889887597827" style="fill: none;" fill="none"></path></g><g><path stroke="rgb(187, 187, 187)" stroke-width="2px" d="M145.6,376.9999993758069L174.72,246.09722471899454L203.84000000000003,180.64582334624396L232.96,157.08333333333331L262.08,141.37499001291064L291.2,120.4305655426449L320.32,120.4305655426449L349.44,112.57639388243359L378.56,99.48611610465578L407.68000000000006,94.25000998708936L436.8,99.48611610465578L465.92,89.0138789017995L495.04,89.0138789017995L524.16,78.54166666666669L553.28,81.15973220931158L582.4,78.54166666666669L611.52,75.92360112402173L640.64,70.68749500645532L669.76,75.92360112402173L698.88,62.83332334624396L728,78.54166666666669L757.12,60.21528277132245L786.24,54.97917665375604L815.3600000000001,52.36111111111109L844.4799999999999,60.21528277132245L873.6,47.12500499354468L902.72,52.36111111111109L931.84,41.88889887597827L960.96,54.97917665375604L990.08,62.83332334624396L1019.1999999999999,41.88889887597827L1048.32,62.83332334624396L1077.44,41.88889887597827L1106.56,49.74304556846619" style="fill: none;" fill="none"></path></g><g><path stroke="rgb(238, 51, 119)" stroke-width="2px" d="M145.6,392.70833333333337L174.72,282.7500049935447L203.84000000000003,185.8819544315338L232.96,138.75694943798914L262.08,125.66667166021136L291.2,112.57639388243359L320.32,120.4305655426449L349.44,115.19443445735506L378.56,83.7777727842331L407.68000000000006,86.39583832687799L436.8,96.86805056201086L465.92,86.39583832687799L495.04,83.7777727842331L524.16,75.92360112402173L553.28,86.39583832687799L582.4,65.45138888888891L611.52,81.15973220931158L640.64,62.83332334624396L669.76,70.68749500645532L698.88,70.68749500645532L728,78.54166666666669L757.12,75.92360112402173L786.24,81.15973220931158L815.3600000000001,73.30556054910022" style="fill: none;" fill="none"></path></g></g></g></g></g></g><g transform="translate(40, 377)" clip-path="url(#clip_1)"><clipPath id="clip_1"><rect width="1456" height="23"></rect></clipPath><g><g><line x1="0" y1="0" x2="0" y2="5" style="visibility: inherit;" fill="rgb(0, 0, 0)" stroke="rgb(204, 204, 204)" stroke-width="1px"></line><line x1="145.6" y1="0" x2="145.6" y2="5" style="visibility: inherit;" fill="rgb(0, 0, 0)" stroke="rgb(204, 204, 204)" stroke-width="1px"></line><line x1="291.2" y1="0" x2="291.2" y2="5" style="visibility: inherit;" fill="rgb(0, 0, 0)" stroke="rgb(204, 204, 204)" stroke-width="1px"></line><line x1="436.8" y1="0" x2="436.8" y2="5" style="visibility: inherit;" fill="rgb(0, 0, 0)" stroke="rgb(204, 204, 204)" stroke-width="1px"></line><line x1="582.4" y1="0" x2="582.4" y2="5" style="visibility: inherit;" fill="rgb(0, 0, 0)" stroke="rgb(204, 204, 204)" stroke-width="1px"></line><line x1="728" y1="0" x2="728" y2="5" style="visibility: inherit;" fill="rgb(0, 0, 0)" stroke="rgb(204, 204, 204)" stroke-width="1px"></line><line x1="873.6" y1="0" x2="873.6" y2="5" style="visibility: inherit;" fill="rgb(0, 0, 0)" stroke="rgb(204, 204, 204)" stroke-width="1px"></line><line x1="1019.1999999999999" y1="0" x2="1019.1999999999999" y2="5" style="visibility: inherit;" fill="rgb(0, 0, 0)" stroke="rgb(204, 204, 204)" stroke-width="1px"></line><line x1="1164.8" y1="0" x2="1164.8" y2="5" style="visibility: inherit;" fill="rgb(0, 0, 0)" stroke="rgb(204, 204, 204)" stroke-width="1px"></line><line x1="1310.4" y1="0" x2="1310.4" y2="5" style="visibility: inherit;" fill="rgb(0, 0, 0)" stroke="rgb(204, 204, 204)" stroke-width="1px"></line><line x1="1456" y1="0" x2="1456" y2="5" style="visibility: inherit;" fill="rgb(0, 0, 0)" stroke="rgb(204, 204, 204)" stroke-width="1px"></line></g><g transform="translate(0, 8)"><text x="0" y="0" dx="0em" dy="0.95em" style="text-anchor: middle; visibility: hidden; font-family: Roboto, sans-serif; font-size: 12px; font-weight: 200;" fill="rgb(255, 255, 255)" stroke="none" stroke-width="1px">-5</text><text x="145.6" y="0" dx="0em" dy="0.95em" style="text-anchor: middle; visibility: inherit; font-family: Roboto, sans-serif; font-size: 12px; font-weight: 200;" fill="rgb(255, 255, 255)" stroke="none" stroke-width="1px">0</text><text x="291.2" y="0" dx="0em" dy="0.95em" style="text-anchor: middle; visibility: inherit; font-family: Roboto, sans-serif; font-size: 12px; font-weight: 200;" fill="rgb(255, 255, 255)" stroke="none" stroke-width="1px">5</text><text x="436.8" y="0" dx="0em" dy="0.95em" style="text-anchor: middle; visibility: inherit; font-family: Roboto, sans-serif; font-size: 12px; font-weight: 200;" fill="rgb(255, 255, 255)" stroke="none" stroke-width="1px">10</text><text x="582.4" y="0" dx="0em" dy="0.95em" style="text-anchor: middle; visibility: inherit; font-family: Roboto, sans-serif; font-size: 12px; font-weight: 200;" fill="rgb(255, 255, 255)" stroke="none" stroke-width="1px">15</text><text x="728" y="0" dx="0em" dy="0.95em" style="text-anchor: middle; visibility: inherit; font-family: Roboto, sans-serif; font-size: 12px; font-weight: 200;" fill="rgb(255, 255, 255)" stroke="none" stroke-width="1px">20</text><text x="873.6" y="0" dx="0em" dy="0.95em" style="text-anchor: middle; visibility: inherit; font-family: Roboto, sans-serif; font-size: 12px; font-weight: 200;" fill="rgb(255, 255, 255)" stroke="none" stroke-width="1px">25</text><text x="1019.1999999999999" y="0" dx="0em" dy="0.95em" style="text-anchor: middle; visibility: inherit; font-family: Roboto, sans-serif; font-size: 12px; font-weight: 200;" fill="rgb(255, 255, 255)" stroke="none" stroke-width="1px">30</text><text x="1164.8" y="0" dx="0em" dy="0.95em" style="text-anchor: middle; visibility: inherit; font-family: Roboto, sans-serif; font-size: 12px; font-weight: 200;" fill="rgb(255, 255, 255)" stroke="none" stroke-width="1px">35</text><text x="1310.4" y="0" dx="0em" dy="0.95em" style="text-anchor: middle; visibility: inherit; font-family: Roboto, sans-serif; font-size: 12px; font-weight: 200;" fill="rgb(255, 255, 255)" stroke="none" stroke-width="1px">40</text><text x="1456" y="0" dx="0em" dy="0.95em" style="text-anchor: middle; visibility: hidden; font-family: Roboto, sans-serif; font-size: 12px; font-weight: 200;" fill="rgb(255, 255, 255)" stroke="none" stroke-width="1px">45</text></g><line x1="0" y1="0" x2="1456" y2="0" fill="rgb(0, 0, 0)" stroke="rgb(204, 204, 204)" stroke-width="1px"></line></g></g></g></g></svg>