<svg viewBox="0 0 1496 400" xmlns="http://www.w3.org/2000/svg"><g><g><g><g><g><line x1="40" y1="377" x2="35" y2="377" style="visibility: inherit;" fill="rgb(0, 0, 0)" stroke="rgb(204, 204, 204)" stroke-width="1px"></line><line x1="40" y1="329.875" x2="35" y2="329.875" style="visibility: inherit;" fill="rgb(0, 0, 0)" stroke="rgb(204, 204, 204)" stroke-width="1px"></line><line x1="40" y1="282.75" x2="35" y2="282.75" style="visibility: inherit;" fill="rgb(0, 0, 0)" stroke="rgb(204, 204, 204)" stroke-width="1px"></line><line x1="40" y1="235.625" x2="35" y2="235.625" style="visibility: inherit;" fill="rgb(0, 0, 0)" stroke="rgb(204, 204, 204)" stroke-width="1px"></line><line x1="40" y1="188.49999999999997" x2="35" y2="188.49999999999997" style="visibility: inherit;" fill="rgb(0, 0, 0)" stroke="rgb(204, 204, 204)" stroke-width="1px"></line><line x1="40" y1="141.375" x2="35" y2="141.375" style="visibility: inherit;" fill="rgb(0, 0, 0)" stroke="rgb(204, 204, 204)" stroke-width="1px"></line><line x1="40" y1="94.25" x2="35" y2="94.25" style="visibility: inherit;" fill="rgb(0, 0, 0)" stroke="rgb(204, 204, 204)" stroke-width="1px"></line><line x1="40" y1="47.12499999999996" x2="35" y2="47.12499999999996" style="visibility: inherit;" fill="rgb(0, 0, 0)" stroke="rgb(204, 204, 204)" stroke-width="1px"></line><line x1="40" y1="0" x2="35" y2="0" style="visibility: inherit;" fill="rgb(0, 0, 0)" stroke="rgb(204, 204, 204)" stroke-width="1px"></line></g><g transform="translate(30, 0)"><text x="0" y="377" dx="0em" dy="0.3em" style="text-anchor: end; visibility: hidden; font-family: Roboto, sans-serif; font-size: 12px; font-weight: 200;" fill="rgb(255, 255, 255)" stroke="none" stroke-width="1px">0.4</text><text x="0" y="329.875" dx="0em" dy="0.3em" style="text-anchor: end; visibility: inherit; font-family: Roboto, sans-serif; font-size: 12px; font-weight: 200;" fill="rgb(255, 255, 255)" stroke="none" stroke-width="1px">0.5</text><text x="0" y="282.75" dx="0em" dy="0.3em" style="text-anchor: end; visibility: inherit; font-family: Roboto, sans-serif; font-size: 12px; font-weight: 200;" fill="rgb(255, 255, 255)" stroke="none" stroke-width="1px">0.6</text><text x="0" y="235.625" dx="0em" dy="0.3em" style="text-anchor: end; visibility: inherit; font-family: Roboto, sans-serif; font-size: 12px; font-weight: 200;" fill="rgb(255, 255, 255)" stroke="none" stroke-width="1px">0.7</text><text x="0" y="188.49999999999997" dx="0em" dy="0.3em" style="text-anchor: end; visibility: inherit; font-family: Roboto, sans-serif; font-size: 12px; font-weight: 200;" fill="rgb(255, 255, 255)" stroke="none" stroke-width="1px">0.8</text><text x="0" y="141.375" dx="0em" dy="0.3em" style="text-anchor: end; visibility: inherit; font-family: Roboto, sans-serif; font-size: 12px; font-weight: 200;" fill="rgb(255, 255, 255)" stroke="none" stroke-width="1px">0.9</text><text x="0" y="94.25" dx="0em" dy="0.3em" style="text-anchor: end; visibility: inherit; font-family: Roboto, sans-serif; font-size: 12px; font-weight: 200;" fill="rgb(255, 255, 255)" stroke="none" stroke-width="1px">1</text><text x="0" y="47.12499999999996" dx="0em" dy="0.3em" style="text-anchor: end; visibility: inherit; font-family: Roboto, sans-serif; font-size: 12px; font-weight: 200;" fill="rgb(255, 255, 255)" stroke="none" stroke-width="1px">1.1</text><text x="0" y="0" dx="0em" dy="0.3em" style="text-anchor: end; visibility: hidden; font-family: Roboto, sans-serif; font-size: 12px; font-weight: 200;" fill="rgb(255, 255, 255)" stroke="none" stroke-width="1px">1.2</text></g><line x1="40" y1="0" x2="40" y2="377" fill="rgb(0, 0, 0)" stroke="rgb(204, 204, 204)" stroke-width="1px"></line></g></g><g transform="translate(40, 0)" clip-path="url(#clip_0)"><clipPath id="clip_0"><rect width="1456" height="377"></rect></clipPath><g><g><g><line x1="0" y1="0" x2="0" y2="377" fill="rgb(0, 0, 0)" stroke="rgb(189, 189, 189)" stroke-width="1px" opacity="0.25"></line><line x1="132.36363636363637" y1="0" x2="132.36363636363637" y2="377" fill="rgb(0, 0, 0)" stroke="rgb(189, 189, 189)" stroke-width="1px" opacity="0.25"></line><line x1="264.72727272727275" y1="0" x2="264.72727272727275" y2="377" fill="rgb(0, 0, 0)" stroke="rgb(189, 189, 189)" stroke-width="1px" opacity="0.25"></line><line x1="397.09090909090907" y1="0" x2="397.09090909090907" y2="377" fill="rgb(0, 0, 0)" stroke="rgb(189, 189, 189)" stroke-width="1px" opacity="0.25"></line><line x1="529.4545454545455" y1="0" x2="529.4545454545455" y2="377" fill="rgb(0, 0, 0)" stroke="rgb(189, 189, 189)" stroke-width="1px" opacity="0.25"></line><line x1="661.8181818181818" y1="0" x2="661.8181818181818" y2="377" fill="rgb(0, 0, 0)" stroke="rgb(189, 189, 189)" stroke-width="1px" opacity="0.25"></line><line x1="794.1818181818181" y1="0" x2="794.1818181818181" y2="377" fill="rgb(0, 0, 0)" stroke="rgb(189, 189, 189)" stroke-width="1px" opacity="0.25"></line><line x1="926.5454545454545" y1="0" x2="926.5454545454545" y2="377" fill="rgb(0, 0, 0)" stroke="rgb(189, 189, 189)" stroke-width="1px" opacity="0.25"></line><line x1="1058.909090909091" y1="0" x2="1058.909090909091" y2="377" fill="rgb(0, 0, 0)" stroke="rgb(189, 189, 189)" stroke-width="1px" opacity="0.25"></line><line x1="1191.2727272727273" y1="0" x2="1191.2727272727273" y2="377" fill="rgb(0, 0, 0)" stroke="rgb(189, 189, 189)" stroke-width="1px" opacity="0.25"></line><line x1="1323.6363636363635" y1="0" x2="1323.6363636363635" y2="377" fill="rgb(0, 0, 0)" stroke="rgb(189, 189, 189)" stroke-width="1px" opacity="0.25"></line><line x1="1456" y1="0" x2="1456" y2="377" fill="rgb(0, 0, 0)" stroke="rgb(189, 189, 189)" stroke-width="1px" opacity="0.25"></line></g><g><line x1="0" y1="377" x2="1456" y2="377" fill="rgb(0, 0, 0)" stroke="rgb(189, 189, 189)" stroke-width="1px" opacity="0.25"></line><line x1="0" y1="329.875" x2="1456" y2="329.875" fill="rgb(0, 0, 0)" stroke="rgb(189, 189, 189)" stroke-width="1px" opacity="0.25"></line><line x1="0" y1="282.75" x2="1456" y2="282.75" fill="rgb(0, 0, 0)" stroke="rgb(189, 189, 189)" stroke-width="1px" opacity="0.25"></line><line x1="0" y1="235.625" x2="1456" y2="235.625" fill="rgb(0, 0, 0)" stroke="rgb(189, 189, 189)" stroke-width="1px" opacity="0.25"></line><line x1="0" y1="188.49999999999997" x2="1456" y2="188.49999999999997" fill="rgb(0, 0, 0)" stroke="rgb(189, 189, 189)" stroke-width="1px" opacity="0.25"></line><line x1="0" y1="141.375" x2="1456" y2="141.375" fill="rgb(0, 0, 0)" stroke="rgb(189, 189, 189)" stroke-width="1px" opacity="0.25"></line><line x1="0" y1="94.25" x2="1456" y2="94.25" fill="rgb(0, 0, 0)" stroke="rgb(189, 189, 189)" stroke-width="1px" opacity="0.25"></line><line x1="0" y1="47.12499999999996" x2="1456" y2="47.12499999999996" fill="rgb(0, 0, 0)" stroke="rgb(189, 189, 189)" stroke-width="1px" opacity="0.25"></line><line x1="0" y1="0" x2="1456" y2="0" fill="rgb(0, 0, 0)" stroke="rgb(189, 189, 189)" stroke-width="1px" opacity="0.25"></line></g></g></g><g><g><line x1="0" y1="565.5" x2="1456" y2="565.5" fill="rgb(0, 0, 0)" stroke="rgb(153, 153, 153)" stroke-width="1.5px"></line></g></g><g><g><line x1="132.36363636363637" y1="0" x2="132.36363636363637" y2="377" fill="rgb(0, 0, 0)" stroke="rgb(153, 153, 153)" stroke-width="1.5px"></line></g></g><g><g><g><g><g><path stroke="rgb(255, 112, 67)" stroke-width="2px" d="M132.36363636363637,-163.23148292303094L158.83636363636361,68.0460621714592L185.30909090909088,164.52582094073296L211.78181818181818,268.43397054076195L238.25454545454545,228.25200568139553L264.72727272727275,304.01287342607975L291.2,326.22341427206993L317.67272727272723,345.86806743592024L344.1454545454545,340.468073181808L370.61818181818177,238.75866401195526L397.09090909090907,255.75336004793644L423.56363636363636,278.73903635144234L450.0363636363636,292.0207166969776L476.5090909090909,283.2605287730694L502.9818181818182,267.79337990283966L529.4545454545455,101.2786326110363L555.9272727272728,209.66715279221535L582.4,182.01181623339653L608.8727272727273,195.10642591118813L635.3454545454545,247.5475585758686L661.8181818181818,168.51171824336052L688.290909090909,194.7553734779358L714.7636363636364,246.84051010012627L741.2363636363635,216.14283147454262L767.7090909090908,213.28621181845665L794.1818181818181,198.8107902854681L820.6545454545454,195.3516120761633L847.1272727272727,197.21633586287498L873.6,185.50897035002708L900.0727272727272,186.42207744717598L926.5454545454545,182.4628643989563L953.0181818181818,179.39288306236267L979.4909090909091,175.29687809944153L1005.9636363636364,170.81310878694057L1032.4363636363637,167.14155200123787L1058.909090909091,163.7370624691248L1085.3818181818183,162.03303407132626L1111.8545454545456,155.0252151787281L1138.3272727272729,153.1363070309162L1164.8,151.92178021371365L1191.2727272727273,147.3693621456623L1217.7454545454545,145.11412131786346L1244.2181818181818,143.402003377676L1270.690909090909,140.70450614392757L1297.1636363636362,136.65209482610226" style="fill: none;" fill="none"></path></g><g><path stroke="rgb(0, 153, 136)" stroke-width="2px" d="M132.36363636363637,-279.59707838296896L158.83636363636361,10.53868505358696L185.30909090909088,150.13915966451168L211.78181818181818,240.71866463124752L238.25454545454545,249.48343101143837L264.72727272727275,327.3671014159918L291.2,335.82258324325085L317.67272727272723,354.5061116963625L344.1454545454545,341.8511883094907L370.61818181818177,297.73384365439415L397.09090909090907,296.6575974524021L423.56363636363636,357.6500365063548L450.0363636363636,347.11058463156223L476.5090909090909,295.42326810956L502.9818181818182,297.0167675167322L529.4545454545455,317.75666888058186L555.9272727272728,336.8282285258174L582.4,284.358824595809L608.8727272727273,286.3580370247364L635.3454545454545,266.7736200541258L661.8181818181818,261.71880769729614L688.290909090909,257.4535964727402L714.7636363636364,251.37444581091404L741.2363636363635,244.37468837201595L767.7090909090908,238.76298967003822L794.1818181818181,225.46442802250385L820.6545454545454,235.47765235602856L847.1272727272727,228.79515665769577L873.6,219.47954300045967L900.0727272727272,220.2827671468258L926.5454545454545,215.06501230597496L953.0181818181818,209.08953699469566L979.4909090909091,204.27381555736065L1005.9636363636364,199.34981222450733L1032.4363636363637,196.76225411891937L1058.909090909091,187.6015214920044L1085.3818181818183,189.60014405846596L1111.8545454545456,178.11212311685085L1138.3272727272729,174.34043015539646L1164.8,171.58706451952457L1191.2727272727273,170.66710378229618L1217.7454545454545,164.80937625467777L1244.2181818181818,163.9784285724163L1270.690909090909,160.39175580441952L1297.1636363636362,152.3018201738596" style="fill: none;" fill="none"></path></g><g><path stroke="rgb(51, 187, 238)" stroke-width="2px" d="M132.36363636363637,-134.13452249765405L158.83636363636361,0.03261658549308777L185.30909090909088,70.15293854475021L211.78181818181818,176.54654386639595L238.25454545454545,172.48076233267784L264.72727272727275,244.16826459765434L291.2,283.55849358439445L317.67272727272723,308.392939299345L344.1454545454545,292.05110865831375L370.61818181818177,303.3506825864315L397.09090909090907,329.6224265098572L423.56363636363636,325.67711736261845L450.0363636363636,346.4874792024493L476.5090909090909,340.2887409478426L502.9818181818182,330.1568699926138L529.4545454545455,322.0452779829502L555.9272727272728,333.40263034403324L582.4,275.75545582175255L608.8727272727273,259.6608337312937L635.3454545454545,234.1245359480381L661.8181818181818,289.5534905344248L688.290909090909,315.7630180120468L714.7636363636364,301.0353319644928L741.2363636363635,287.6476449072361L767.7090909090908,281.13219264149666L794.1818181818181,263.9864918142557L820.6545454545454,279.5675964951515L847.1272727272727,267.14905346930027L873.6,250.17334538698196L900.0727272727272,264.67587250471115L926.5454545454545,259.9743034988642L953.0181818181818,253.8012242615223L979.4909090909091,248.44502027332783L1005.9636363636364,247.54949669539928L1032.4363636363637,247.319731220603L1058.909090909091,232.0809714794159L1085.3818181818183,235.44655817747116L1111.8545454545456,227.23387497663498L1138.3272727272729,222.61019590497017L1164.8,221.52293893694878L1191.2727272727273,220.16844618320465L1217.7454545454545,214.50888435542583L1244.2181818181818,213.06919860839844L1270.690909090909,215.08902813494205L1297.1636363636362,206.20485673844814" style="fill: none;" fill="none"></path></g><g><path stroke="rgb(0, 119, 187)" stroke-width="2px" d="M158.83636363636361,-46.924536645412445L185.30909090909088,34.48816853761673L211.78181818181818,167.96887624263763L238.25454545454545,181.61093446612358L264.72727272727275,247.67373296618462L291.2,261.5084515064955L317.67272727272723,303.8496781438589L344.1454545454545,299.8952401727438L370.61818181818177,304.5279918909073L397.09090909090907,326.94383296370506L423.56363636363636,339.26187466084957L450.0363636363636,312.55186292529106L476.5090909090909,331.4403685852885L502.9818181818182,323.6443389505148L529.4545454545455,308.3699065744877L555.9272727272728,348.34230172634125L582.4,321.19728046655655L608.8727272727273,276.07361640036106L635.3454545454545,255.26133048534393L661.8181818181818,164.8296281993389L688.290909090909,229.63203105330467L714.7636363636364,251.07620011270046L741.2363636363635,253.37921980023384L767.7090909090908,187.54700134694576L794.1818181818181,136.57678905129433L820.6545454545454,225.72686064243317L847.1272727272727,153.3859031200409L873.6,196.47507536411285L900.0727272727272,161.1476505100727L926.5454545454545,144.78424775600433L953.0181818181818,138.36210611462593L979.4909090909091,134.78855076432228L1005.9636363636364,106.64326320588589L1032.4363636363637,118.77653750777245L1058.909090909091,100.755396515131L1085.3818181818183,103.41809186339378L1111.8545454545456,78.98334819078445L1138.3272727272729,70.8425158560276L1164.8,68.99905520677567L1191.2727272727273,76.20150062441826L1217.7454545454545,52.0088252723217L1244.2181818181818,55.54462942481041L1270.690909090909,51.91753703355789L1297.1636363636362,38.27008578181267" style="fill: none;" fill="none"></path></g></g></g></g></g></g><g transform="translate(40, 377)" clip-path="url(#clip_1)"><clipPath id="clip_1"><rect width="1456" height="23"></rect></clipPath><g><g><line x1="0" y1="0" x2="0" y2="5" style="visibility: inherit;" fill="rgb(0, 0, 0)" stroke="rgb(204, 204, 204)" stroke-width="1px"></line><line x1="132.36363636363637" y1="0" x2="132.36363636363637" y2="5" style="visibility: inherit;" fill="rgb(0, 0, 0)" stroke="rgb(204, 204, 204)" stroke-width="1px"></line><line x1="264.72727272727275" y1="0" x2="264.72727272727275" y2="5" style="visibility: inherit;" fill="rgb(0, 0, 0)" stroke="rgb(204, 204, 204)" stroke-width="1px"></line><line x1="397.09090909090907" y1="0" x2="397.09090909090907" y2="5" style="visibility: inherit;" fill="rgb(0, 0, 0)" stroke="rgb(204, 204, 204)" stroke-width="1px"></line><line x1="529.4545454545455" y1="0" x2="529.4545454545455" y2="5" style="visibility: inherit;" fill="rgb(0, 0, 0)" stroke="rgb(204, 204, 204)" stroke-width="1px"></line><line x1="661.8181818181818" y1="0" x2="661.8181818181818" y2="5" style="visibility: inherit;" fill="rgb(0, 0, 0)" stroke="rgb(204, 204, 204)" stroke-width="1px"></line><line x1="794.1818181818181" y1="0" x2="794.1818181818181" y2="5" style="visibility: inherit;" fill="rgb(0, 0, 0)" stroke="rgb(204, 204, 204)" stroke-width="1px"></line><line x1="926.5454545454545" y1="0" x2="926.5454545454545" y2="5" style="visibility: inherit;" fill="rgb(0, 0, 0)" stroke="rgb(204, 204, 204)" stroke-width="1px"></line><line x1="1058.909090909091" y1="0" x2="1058.909090909091" y2="5" style="visibility: inherit;" fill="rgb(0, 0, 0)" stroke="rgb(204, 204, 204)" stroke-width="1px"></line><line x1="1191.2727272727273" y1="0" x2="1191.2727272727273" y2="5" style="visibility: inherit;" fill="rgb(0, 0, 0)" stroke="rgb(204, 204, 204)" stroke-width="1px"></line><line x1="1323.6363636363635" y1="0" x2="1323.6363636363635" y2="5" style="visibility: inherit;" fill="rgb(0, 0, 0)" stroke="rgb(204, 204, 204)" stroke-width="1px"></line><line x1="1456" y1="0" x2="1456" y2="5" style="visibility: inherit;" fill="rgb(0, 0, 0)" stroke="rgb(204, 204, 204)" stroke-width="1px"></line></g><g transform="translate(0, 8)"><text x="0" y="0" dx="0em" dy="0.95em" style="text-anchor: middle; visibility: hidden; font-family: Roboto, sans-serif; font-size: 12px; font-weight: 200;" fill="rgb(255, 255, 255)" stroke="none" stroke-width="1px">-5</text><text x="132.36363636363637" y="0" dx="0em" dy="0.95em" style="text-anchor: middle; visibility: inherit; font-family: Roboto, sans-serif; font-size: 12px; font-weight: 200;" fill="rgb(255, 255, 255)" stroke="none" stroke-width="1px">0</text><text x="264.72727272727275" y="0" dx="0em" dy="0.95em" style="text-anchor: middle; visibility: inherit; font-family: Roboto, sans-serif; font-size: 12px; font-weight: 200;" fill="rgb(255, 255, 255)" stroke="none" stroke-width="1px">5</text><text x="397.09090909090907" y="0" dx="0em" dy="0.95em" style="text-anchor: middle; visibility: inherit; font-family: Roboto, sans-serif; font-size: 12px; font-weight: 200;" fill="rgb(255, 255, 255)" stroke="none" stroke-width="1px">10</text><text x="529.4545454545455" y="0" dx="0em" dy="0.95em" style="text-anchor: middle; visibility: inherit; font-family: Roboto, sans-serif; font-size: 12px; font-weight: 200;" fill="rgb(255, 255, 255)" stroke="none" stroke-width="1px">15</text><text x="661.8181818181818" y="0" dx="0em" dy="0.95em" style="text-anchor: middle; visibility: inherit; font-family: Roboto, sans-serif; font-size: 12px; font-weight: 200;" fill="rgb(255, 255, 255)" stroke="none" stroke-width="1px">20</text><text x="794.1818181818181" y="0" dx="0em" dy="0.95em" style="text-anchor: middle; visibility: inherit; font-family: Roboto, sans-serif; font-size: 12px; font-weight: 200;" fill="rgb(255, 255, 255)" stroke="none" stroke-width="1px">25</text><text x="926.5454545454545" y="0" dx="0em" dy="0.95em" style="text-anchor: middle; visibility: inherit; font-family: Roboto, sans-serif; font-size: 12px; font-weight: 200;" fill="rgb(255, 255, 255)" stroke="none" stroke-width="1px">30</text><text x="1058.909090909091" y="0" dx="0em" dy="0.95em" style="text-anchor: middle; visibility: inherit; font-family: Roboto, sans-serif; font-size: 12px; font-weight: 200;" fill="rgb(255, 255, 255)" stroke="none" stroke-width="1px">35</text><text x="1191.2727272727273" y="0" dx="0em" dy="0.95em" style="text-anchor: middle; visibility: inherit; font-family: Roboto, sans-serif; font-size: 12px; font-weight: 200;" fill="rgb(255, 255, 255)" stroke="none" stroke-width="1px">40</text><text x="1323.6363636363635" y="0" dx="0em" dy="0.95em" style="text-anchor: middle; visibility: inherit; font-family: Roboto, sans-serif; font-size: 12px; font-weight: 200;" fill="rgb(255, 255, 255)" stroke="none" stroke-width="1px">45</text><text x="1456" y="0" dx="0em" dy="0.95em" style="text-anchor: middle; visibility: hidden; font-family: Roboto, sans-serif; font-size: 12px; font-weight: 200;" fill="rgb(255, 255, 255)" stroke="none" stroke-width="1px">50</text></g><line x1="0" y1="0" x2="1456" y2="0" fill="rgb(0, 0, 0)" stroke="rgb(204, 204, 204)" stroke-width="1px"></line></g></g></g></g></svg>