<svg viewBox="0 0 1496 400" xmlns="http://www.w3.org/2000/svg"><g><g><g><g><g><line x1="40" y1="377" x2="35" y2="377" style="visibility: inherit;" fill="rgb(0, 0, 0)" stroke="rgb(204, 204, 204)" stroke-width="1px"></line><line x1="40" y1="342.72727272727275" x2="35" y2="342.72727272727275" style="visibility: inherit;" fill="rgb(0, 0, 0)" stroke="rgb(204, 204, 204)" stroke-width="1px"></line><line x1="40" y1="308.4545454545455" x2="35" y2="308.4545454545455" style="visibility: inherit;" fill="rgb(0, 0, 0)" stroke="rgb(204, 204, 204)" stroke-width="1px"></line><line x1="40" y1="274.1818181818182" x2="35" y2="274.1818181818182" style="visibility: inherit;" fill="rgb(0, 0, 0)" stroke="rgb(204, 204, 204)" stroke-width="1px"></line><line x1="40" y1="239.9090909090909" x2="35" y2="239.9090909090909" style="visibility: inherit;" fill="rgb(0, 0, 0)" stroke="rgb(204, 204, 204)" stroke-width="1px"></line><line x1="40" y1="205.63636363636363" x2="35" y2="205.63636363636363" style="visibility: inherit;" fill="rgb(0, 0, 0)" stroke="rgb(204, 204, 204)" stroke-width="1px"></line><line x1="40" y1="171.36363636363637" x2="35" y2="171.36363636363637" style="visibility: inherit;" fill="rgb(0, 0, 0)" stroke="rgb(204, 204, 204)" stroke-width="1px"></line><line x1="40" y1="137.0909090909091" x2="35" y2="137.0909090909091" style="visibility: inherit;" fill="rgb(0, 0, 0)" stroke="rgb(204, 204, 204)" stroke-width="1px"></line><line x1="40" y1="102.81818181818186" x2="35" y2="102.81818181818186" style="visibility: inherit;" fill="rgb(0, 0, 0)" stroke="rgb(204, 204, 204)" stroke-width="1px"></line><line x1="40" y1="68.54545454545458" x2="35" y2="68.54545454545458" style="visibility: inherit;" fill="rgb(0, 0, 0)" stroke="rgb(204, 204, 204)" stroke-width="1px"></line><line x1="40" y1="34.27272727272732" x2="35" y2="34.27272727272732" style="visibility: inherit;" fill="rgb(0, 0, 0)" stroke="rgb(204, 204, 204)" stroke-width="1px"></line><line x1="40" y1="0" x2="35" y2="0" style="visibility: inherit;" fill="rgb(0, 0, 0)" stroke="rgb(204, 204, 204)" stroke-width="1px"></line></g><g transform="translate(30, 0)"><text x="0" y="377" dx="0em" dy="0.3em" style="text-anchor: end; visibility: hidden; font-family: Roboto, sans-serif; font-size: 12px; font-weight: 200;" fill="rgb(255, 255, 255)" stroke="none" stroke-width="1px">0.4</text><text x="0" y="342.72727272727275" dx="0em" dy="0.3em" style="text-anchor: end; visibility: inherit; font-family: Roboto, sans-serif; font-size: 12px; font-weight: 200;" fill="rgb(255, 255, 255)" stroke="none" stroke-width="1px">0.5</text><text x="0" y="308.4545454545455" dx="0em" dy="0.3em" style="text-anchor: end; visibility: inherit; font-family: Roboto, sans-serif; font-size: 12px; font-weight: 200;" fill="rgb(255, 255, 255)" stroke="none" stroke-width="1px">0.6</text><text x="0" y="274.1818181818182" dx="0em" dy="0.3em" style="text-anchor: end; visibility: inherit; font-family: Roboto, sans-serif; font-size: 12px; font-weight: 200;" fill="rgb(255, 255, 255)" stroke="none" stroke-width="1px">0.7</text><text x="0" y="239.9090909090909" dx="0em" dy="0.3em" style="text-anchor: end; visibility: inherit; font-family: Roboto, sans-serif; font-size: 12px; font-weight: 200;" fill="rgb(255, 255, 255)" stroke="none" stroke-width="1px">0.8</text><text x="0" y="205.63636363636363" dx="0em" dy="0.3em" style="text-anchor: end; visibility: inherit; font-family: Roboto, sans-serif; font-size: 12px; font-weight: 200;" fill="rgb(255, 255, 255)" stroke="none" stroke-width="1px">0.9</text><text x="0" y="171.36363636363637" dx="0em" dy="0.3em" style="text-anchor: end; visibility: inherit; font-family: Roboto, sans-serif; font-size: 12px; font-weight: 200;" fill="rgb(255, 255, 255)" stroke="none" stroke-width="1px">1</text><text x="0" y="137.0909090909091" dx="0em" dy="0.3em" style="text-anchor: end; visibility: inherit; font-family: Roboto, sans-serif; font-size: 12px; font-weight: 200;" fill="rgb(255, 255, 255)" stroke="none" stroke-width="1px">1.1</text><text x="0" y="102.81818181818186" dx="0em" dy="0.3em" style="text-anchor: end; visibility: inherit; font-family: Roboto, sans-serif; font-size: 12px; font-weight: 200;" fill="rgb(255, 255, 255)" stroke="none" stroke-width="1px">1.2</text><text x="0" y="68.54545454545458" dx="0em" dy="0.3em" style="text-anchor: end; visibility: inherit; font-family: Roboto, sans-serif; font-size: 12px; font-weight: 200;" fill="rgb(255, 255, 255)" stroke="none" stroke-width="1px">1.3</text><text x="0" y="34.27272727272732" dx="0em" dy="0.3em" style="text-anchor: end; visibility: inherit; font-family: Roboto, sans-serif; font-size: 12px; font-weight: 200;" fill="rgb(255, 255, 255)" stroke="none" stroke-width="1px">1.4</text><text x="0" y="0" dx="0em" dy="0.3em" style="text-anchor: end; visibility: hidden; font-family: Roboto, sans-serif; font-size: 12px; font-weight: 200;" fill="rgb(255, 255, 255)" stroke="none" stroke-width="1px">1.5</text></g><line x1="40" y1="0" x2="40" y2="377" fill="rgb(0, 0, 0)" stroke="rgb(204, 204, 204)" stroke-width="1px"></line></g></g><g transform="translate(40, 0)" clip-path="url(#clip_0)"><clipPath id="clip_0"><rect width="1456" height="377"></rect></clipPath><g><g><g><line x1="0" y1="0" x2="0" y2="377" fill="rgb(0, 0, 0)" stroke="rgb(189, 189, 189)" stroke-width="1px" opacity="0.25"></line><line x1="132.36363636363637" y1="0" x2="132.36363636363637" y2="377" fill="rgb(0, 0, 0)" stroke="rgb(189, 189, 189)" stroke-width="1px" opacity="0.25"></line><line x1="264.72727272727275" y1="0" x2="264.72727272727275" y2="377" fill="rgb(0, 0, 0)" stroke="rgb(189, 189, 189)" stroke-width="1px" opacity="0.25"></line><line x1="397.09090909090907" y1="0" x2="397.09090909090907" y2="377" fill="rgb(0, 0, 0)" stroke="rgb(189, 189, 189)" stroke-width="1px" opacity="0.25"></line><line x1="529.4545454545455" y1="0" x2="529.4545454545455" y2="377" fill="rgb(0, 0, 0)" stroke="rgb(189, 189, 189)" stroke-width="1px" opacity="0.25"></line><line x1="661.8181818181818" y1="0" x2="661.8181818181818" y2="377" fill="rgb(0, 0, 0)" stroke="rgb(189, 189, 189)" stroke-width="1px" opacity="0.25"></line><line x1="794.1818181818181" y1="0" x2="794.1818181818181" y2="377" fill="rgb(0, 0, 0)" stroke="rgb(189, 189, 189)" stroke-width="1px" opacity="0.25"></line><line x1="926.5454545454545" y1="0" x2="926.5454545454545" y2="377" fill="rgb(0, 0, 0)" stroke="rgb(189, 189, 189)" stroke-width="1px" opacity="0.25"></line><line x1="1058.909090909091" y1="0" x2="1058.909090909091" y2="377" fill="rgb(0, 0, 0)" stroke="rgb(189, 189, 189)" stroke-width="1px" opacity="0.25"></line><line x1="1191.2727272727273" y1="0" x2="1191.2727272727273" y2="377" fill="rgb(0, 0, 0)" stroke="rgb(189, 189, 189)" stroke-width="1px" opacity="0.25"></line><line x1="1323.6363636363635" y1="0" x2="1323.6363636363635" y2="377" fill="rgb(0, 0, 0)" stroke="rgb(189, 189, 189)" stroke-width="1px" opacity="0.25"></line><line x1="1456" y1="0" x2="1456" y2="377" fill="rgb(0, 0, 0)" stroke="rgb(189, 189, 189)" stroke-width="1px" opacity="0.25"></line></g><g><line x1="0" y1="377" x2="1456" y2="377" fill="rgb(0, 0, 0)" stroke="rgb(189, 189, 189)" stroke-width="1px" opacity="0.25"></line><line x1="0" y1="342.72727272727275" x2="1456" y2="342.72727272727275" fill="rgb(0, 0, 0)" stroke="rgb(189, 189, 189)" stroke-width="1px" opacity="0.25"></line><line x1="0" y1="308.4545454545455" x2="1456" y2="308.4545454545455" fill="rgb(0, 0, 0)" stroke="rgb(189, 189, 189)" stroke-width="1px" opacity="0.25"></line><line x1="0" y1="274.1818181818182" x2="1456" y2="274.1818181818182" fill="rgb(0, 0, 0)" stroke="rgb(189, 189, 189)" stroke-width="1px" opacity="0.25"></line><line x1="0" y1="239.9090909090909" x2="1456" y2="239.9090909090909" fill="rgb(0, 0, 0)" stroke="rgb(189, 189, 189)" stroke-width="1px" opacity="0.25"></line><line x1="0" y1="205.63636363636363" x2="1456" y2="205.63636363636363" fill="rgb(0, 0, 0)" stroke="rgb(189, 189, 189)" stroke-width="1px" opacity="0.25"></line><line x1="0" y1="171.36363636363637" x2="1456" y2="171.36363636363637" fill="rgb(0, 0, 0)" stroke="rgb(189, 189, 189)" stroke-width="1px" opacity="0.25"></line><line x1="0" y1="137.0909090909091" x2="1456" y2="137.0909090909091" fill="rgb(0, 0, 0)" stroke="rgb(189, 189, 189)" stroke-width="1px" opacity="0.25"></line><line x1="0" y1="102.81818181818186" x2="1456" y2="102.81818181818186" fill="rgb(0, 0, 0)" stroke="rgb(189, 189, 189)" stroke-width="1px" opacity="0.25"></line><line x1="0" y1="68.54545454545458" x2="1456" y2="68.54545454545458" fill="rgb(0, 0, 0)" stroke="rgb(189, 189, 189)" stroke-width="1px" opacity="0.25"></line><line x1="0" y1="34.27272727272732" x2="1456" y2="34.27272727272732" fill="rgb(0, 0, 0)" stroke="rgb(189, 189, 189)" stroke-width="1px" opacity="0.25"></line><line x1="0" y1="0" x2="1456" y2="0" fill="rgb(0, 0, 0)" stroke="rgb(189, 189, 189)" stroke-width="1px" opacity="0.25"></line></g></g></g><g><g><line x1="0" y1="514.0909090909091" x2="1456" y2="514.0909090909091" fill="rgb(0, 0, 0)" stroke="rgb(153, 153, 153)" stroke-width="1.5px"></line></g></g><g><g><line x1="132.36363636363637" y1="0" x2="132.36363636363637" y2="377" fill="rgb(0, 0, 0)" stroke="rgb(153, 153, 153)" stroke-width="1.5px"></line></g></g><g><g><g><g><g><path stroke="rgb(0, 119, 187)" stroke-width="2px" d="M132.36363636363637,-428.5324768586591L158.83636363636361,16.783103942871094L185.30909090909088,127.01239336620681L211.78181818181818,209.23948667266154L238.25454545454545,215.13472026044673L264.72727272727275,298.5094458948482L291.2,288.0283406105909L317.67272727272723,329.67804415659475L344.1454545454545,315.2927745472301L370.61818181818177,304.79305922985077L397.09090909090907,316.86077708547765L423.56363636363636,301.75124829465693L450.0363636363636,173.83979217572647L476.5090909090909,332.25164218382406L502.9818181818182,312.15533950112086L529.4545454545455,307.6717719164762L555.9272727272728,341.57320553606206L582.4,273.4497186812488L608.8727272727273,271.3577752763575L635.3454545454545,267.361010204662L661.8181818181818,236.97215394540268L688.290909090909,231.97453271258962L714.7636363636364,267.98946142196655L741.2363636363635,261.2286672267047L767.7090909090908,242.37970661033285L794.1818181818181,235.52596439014783L820.6545454545454,215.20728100429884L847.1272727272727,212.18644976615906L873.6,208.838155486367L900.0727272727272,206.88369344581258L926.5454545454545,205.8973821184852L953.0181818181818,202.90991002863103L979.4909090909091,198.4536344354803L1005.9636363636364,198.2021844928915L1032.4363636363637,198.8526163859801L1058.909090909091,197.2005929188295L1085.3818181818183,190.46204496513715L1111.8545454545456,190.9355896169489L1138.3272727272729,188.6269241029566L1164.8,185.48562813888898L1191.2727272727273,184.28496436639267L1217.7454545454545,183.74788820743564L1244.2181818181818,182.9354407570579L1270.690909090909,176.92323565483096L1297.1636363636362,175.24780154228213" style="fill: none;" fill="none"></path></g><g><path stroke="rgb(187, 187, 187)" stroke-width="2px" d="M158.83636363636361,-86.80532487955956L185.30909090909088,55.464108857241584L211.78181818181818,146.96614850651136L238.25454545454545,192.80619415369907L264.72727272727275,227.6627657630227L291.2,276.05461261489177L317.67272727272723,282.0368700677698L344.1454545454545,314.38082163984126L370.61818181818177,324.9246004494754L397.09090909090907,344.7954990647056L423.56363636363636,342.0433591170745L450.0363636363636,347.0488860390403L476.5090909090909,347.57803608070725L502.9818181818182,360.00185722654516L529.4545454545455,330.6354496695779L555.9272727272728,338.79530570723796L582.4,341.5767396038229L608.8727272727273,286.7218590866436L635.3454545454545,304.99166158112615L661.8181818181818,310.6469666957855L688.290909090909,315.37127987904984L714.7636363636364,324.1655725782568L741.2363636363635,328.80194263024765L767.7090909090908,316.5918406573209L794.1818181818181,306.6762474992059L820.6545454545454,305.1288569515402L847.1272727272727,296.6225397044962L873.6,293.2695469531146L900.0727272727272,295.57177760384303L926.5454545454545,283.63173560662705L953.0181818181818,281.36692930351603L979.4909090909091,277.78508012945L1005.9636363636364,276.59062651070684L1032.4363636363637,275.28044749389994L1058.909090909091,267.02331266619944L1085.3818181818183,268.612172332677L1111.8545454545456,261.4084961197593L1138.3272727272729,263.1021317026832L1164.8,251.54619997197932L1191.2727272727273,253.96454415538096L1217.7454545454545,251.7069898410277L1244.2181818181818,250.8428796313026L1270.690909090909,248.98884231393987L1297.1636363636362,243.1233929504048" style="fill: none;" fill="none"></path></g><g><path stroke="rgb(238, 51, 119)" stroke-width="2px" d="M185.30909090909088,-1.6849944808266075L211.78181818181818,121.82830409570177L238.25454545454545,197.00879313729033L264.72727272727275,240.4233038967306L291.2,256.589764085683L317.67272727272723,296.4381553368135L344.1454545454545,314.0004292943261L370.61818181818177,317.09420941092753L397.09090909090907,318.83603496985006L423.56363636363636,291.609250090339L450.0363636363636,348.87483466755265L476.5090909090909,348.7650640715253L502.9818181818182,357.27308706803757L529.4545454545455,348.0819471586835L555.9272727272728,366.12149390307343L582.4,361.1870058287274L608.8727272727273,353.7534620003267L635.3454545454545,365.59387597170746L661.8181818181818,359.01980516585434L688.290909090909,338.52969906546855L714.7636363636364,312.48231226747686L741.2363636363635,317.3324423486536L767.7090909090908,322.35006272792816L794.1818181818181,231.21452429077843L820.6545454545454,303.47088889642197L847.1272727272727,344.21833268620753L873.6,315.7371478189122L900.0727272727272,328.6942250620235L926.5454545454545,325.15076035803014L953.0181818181818,335.23676503788346L979.4909090909091,333.4284867481752L1005.9636363636364,335.9415153481744L1032.4363636363637,332.1708284724843L1058.909090909091,323.3150266517293L1085.3818181818183,323.1717028401115L1111.8545454545456,318.65943372249603L1138.3272727272729,306.1267510327426L1164.8,310.9994337775491L1191.2727272727273,310.3849145499143L1217.7454545454545,306.329786289822L1244.2181818181818,313.09521767226136L1270.690909090909,307.51909201795405L1297.1636363636362,308.0578228560361" style="fill: none;" fill="none"></path></g><g><path stroke="rgb(204, 51, 17)" stroke-width="2px" d="M158.83636363636361,-103.2060958038677L185.30909090909088,0.04992636767301073L211.78181818181818,51.28684076395906L238.25454545454545,86.57706087285827L264.72727272727275,117.16165954416452L291.2,128.38230425661263L317.67272727272723,131.89091855829415L344.1454545454545,152.07694162021986L370.61818181818177,166.8402339111675L397.09090909090907,164.3947407332334L423.56363636363636,179.6174209768122L450.0363636363636,176.60886704921725L476.5090909090909,199.34577204964384L502.9818181818182,195.03359653733L529.4545454545455,205.59165461496875L555.9272727272728,232.2039611231197L582.4,233.04664221676916L608.8727272727273,224.66632572087377L635.3454545454545,238.60174731774765L661.8181818181818,237.28298848325556L688.290909090909,250.613185654987L714.7636363636364,241.50711872360924L741.2363636363635,255.33570116216487L767.7090909090908,260.3905007514087L794.1818181818181,223.14161040566185L820.6545454545454,257.16802336952907L847.1272727272727,269.50377881526947L873.6,282.12080928412354L900.0727272727272,282.7187000079589L926.5454545454545,244.6584244749763L953.0181818181818,260.06996284831655L979.4909090909091,279.8180270736868L1005.9636363636364,277.1192249926654L1032.4363636363637,295.36559641361237L1058.909090909091,256.03671312332153L1085.3818181818183,279.1736623373899L1111.8545454545456,310.09140307253057L1138.3272727272729,268.76993883739823L1164.8,257.6562354239551L1191.2727272727273,292.3977761918848L1217.7454545454545,254.41392232071271L1244.2181818181818,264.0392112190073L1270.690909090909,284.5985993472013L1297.1636363636362,245.85530904206365" style="fill: none;" fill="none"></path></g></g></g></g></g></g><g transform="translate(40, 377)" clip-path="url(#clip_1)"><clipPath id="clip_1"><rect width="1456" height="23"></rect></clipPath><g><g><line x1="0" y1="0" x2="0" y2="5" style="visibility: inherit;" fill="rgb(0, 0, 0)" stroke="rgb(204, 204, 204)" stroke-width="1px"></line><line x1="132.36363636363637" y1="0" x2="132.36363636363637" y2="5" style="visibility: inherit;" fill="rgb(0, 0, 0)" stroke="rgb(204, 204, 204)" stroke-width="1px"></line><line x1="264.72727272727275" y1="0" x2="264.72727272727275" y2="5" style="visibility: inherit;" fill="rgb(0, 0, 0)" stroke="rgb(204, 204, 204)" stroke-width="1px"></line><line x1="397.09090909090907" y1="0" x2="397.09090909090907" y2="5" style="visibility: inherit;" fill="rgb(0, 0, 0)" stroke="rgb(204, 204, 204)" stroke-width="1px"></line><line x1="529.4545454545455" y1="0" x2="529.4545454545455" y2="5" style="visibility: inherit;" fill="rgb(0, 0, 0)" stroke="rgb(204, 204, 204)" stroke-width="1px"></line><line x1="661.8181818181818" y1="0" x2="661.8181818181818" y2="5" style="visibility: inherit;" fill="rgb(0, 0, 0)" stroke="rgb(204, 204, 204)" stroke-width="1px"></line><line x1="794.1818181818181" y1="0" x2="794.1818181818181" y2="5" style="visibility: inherit;" fill="rgb(0, 0, 0)" stroke="rgb(204, 204, 204)" stroke-width="1px"></line><line x1="926.5454545454545" y1="0" x2="926.5454545454545" y2="5" style="visibility: inherit;" fill="rgb(0, 0, 0)" stroke="rgb(204, 204, 204)" stroke-width="1px"></line><line x1="1058.909090909091" y1="0" x2="1058.909090909091" y2="5" style="visibility: inherit;" fill="rgb(0, 0, 0)" stroke="rgb(204, 204, 204)" stroke-width="1px"></line><line x1="1191.2727272727273" y1="0" x2="1191.2727272727273" y2="5" style="visibility: inherit;" fill="rgb(0, 0, 0)" stroke="rgb(204, 204, 204)" stroke-width="1px"></line><line x1="1323.6363636363635" y1="0" x2="1323.6363636363635" y2="5" style="visibility: inherit;" fill="rgb(0, 0, 0)" stroke="rgb(204, 204, 204)" stroke-width="1px"></line><line x1="1456" y1="0" x2="1456" y2="5" style="visibility: inherit;" fill="rgb(0, 0, 0)" stroke="rgb(204, 204, 204)" stroke-width="1px"></line></g><g transform="translate(0, 8)"><text x="0" y="0" dx="0em" dy="0.95em" style="text-anchor: middle; visibility: hidden; font-family: Roboto, sans-serif; font-size: 12px; font-weight: 200;" fill="rgb(255, 255, 255)" stroke="none" stroke-width="1px">-5</text><text x="132.36363636363637" y="0" dx="0em" dy="0.95em" style="text-anchor: middle; visibility: inherit; font-family: Roboto, sans-serif; font-size: 12px; font-weight: 200;" fill="rgb(255, 255, 255)" stroke="none" stroke-width="1px">0</text><text x="264.72727272727275" y="0" dx="0em" dy="0.95em" style="text-anchor: middle; visibility: inherit; font-family: Roboto, sans-serif; font-size: 12px; font-weight: 200;" fill="rgb(255, 255, 255)" stroke="none" stroke-width="1px">5</text><text x="397.09090909090907" y="0" dx="0em" dy="0.95em" style="text-anchor: middle; visibility: inherit; font-family: Roboto, sans-serif; font-size: 12px; font-weight: 200;" fill="rgb(255, 255, 255)" stroke="none" stroke-width="1px">10</text><text x="529.4545454545455" y="0" dx="0em" dy="0.95em" style="text-anchor: middle; visibility: inherit; font-family: Roboto, sans-serif; font-size: 12px; font-weight: 200;" fill="rgb(255, 255, 255)" stroke="none" stroke-width="1px">15</text><text x="661.8181818181818" y="0" dx="0em" dy="0.95em" style="text-anchor: middle; visibility: inherit; font-family: Roboto, sans-serif; font-size: 12px; font-weight: 200;" fill="rgb(255, 255, 255)" stroke="none" stroke-width="1px">20</text><text x="794.1818181818181" y="0" dx="0em" dy="0.95em" style="text-anchor: middle; visibility: inherit; font-family: Roboto, sans-serif; font-size: 12px; font-weight: 200;" fill="rgb(255, 255, 255)" stroke="none" stroke-width="1px">25</text><text x="926.5454545454545" y="0" dx="0em" dy="0.95em" style="text-anchor: middle; visibility: inherit; font-family: Roboto, sans-serif; font-size: 12px; font-weight: 200;" fill="rgb(255, 255, 255)" stroke="none" stroke-width="1px">30</text><text x="1058.909090909091" y="0" dx="0em" dy="0.95em" style="text-anchor: middle; visibility: inherit; font-family: Roboto, sans-serif; font-size: 12px; font-weight: 200;" fill="rgb(255, 255, 255)" stroke="none" stroke-width="1px">35</text><text x="1191.2727272727273" y="0" dx="0em" dy="0.95em" style="text-anchor: middle; visibility: inherit; font-family: Roboto, sans-serif; font-size: 12px; font-weight: 200;" fill="rgb(255, 255, 255)" stroke="none" stroke-width="1px">40</text><text x="1323.6363636363635" y="0" dx="0em" dy="0.95em" style="text-anchor: middle; visibility: inherit; font-family: Roboto, sans-serif; font-size: 12px; font-weight: 200;" fill="rgb(255, 255, 255)" stroke="none" stroke-width="1px">45</text><text x="1456" y="0" dx="0em" dy="0.95em" style="text-anchor: middle; visibility: hidden; font-family: Roboto, sans-serif; font-size: 12px; font-weight: 200;" fill="rgb(255, 255, 255)" stroke="none" stroke-width="1px">50</text></g><line x1="0" y1="0" x2="1456" y2="0" fill="rgb(0, 0, 0)" stroke="rgb(204, 204, 204)" stroke-width="1px"></line></g></g></g></g></svg>