<svg viewBox="0 0 1496 400" xmlns="http://www.w3.org/2000/svg"><g><g><g><g><g><line x1="40" y1="377" x2="35" y2="377" style="visibility: inherit;" fill="rgb(0, 0, 0)" stroke="rgb(204, 204, 204)" stroke-width="1px"></line><line x1="40" y1="335.1111111111111" x2="35" y2="335.1111111111111" style="visibility: inherit;" fill="rgb(0, 0, 0)" stroke="rgb(204, 204, 204)" stroke-width="1px"></line><line x1="40" y1="293.22222222222223" x2="35" y2="293.22222222222223" style="visibility: inherit;" fill="rgb(0, 0, 0)" stroke="rgb(204, 204, 204)" stroke-width="1px"></line><line x1="40" y1="251.33333333333331" x2="35" y2="251.33333333333331" style="visibility: inherit;" fill="rgb(0, 0, 0)" stroke="rgb(204, 204, 204)" stroke-width="1px"></line><line x1="40" y1="209.44444444444446" x2="35" y2="209.44444444444446" style="visibility: inherit;" fill="rgb(0, 0, 0)" stroke="rgb(204, 204, 204)" stroke-width="1px"></line><line x1="40" y1="167.55555555555554" x2="35" y2="167.55555555555554" style="visibility: inherit;" fill="rgb(0, 0, 0)" stroke="rgb(204, 204, 204)" stroke-width="1px"></line><line x1="40" y1="125.66666666666669" x2="35" y2="125.66666666666669" style="visibility: inherit;" fill="rgb(0, 0, 0)" stroke="rgb(204, 204, 204)" stroke-width="1px"></line><line x1="40" y1="83.77777777777777" x2="35" y2="83.77777777777777" style="visibility: inherit;" fill="rgb(0, 0, 0)" stroke="rgb(204, 204, 204)" stroke-width="1px"></line><line x1="40" y1="41.888888888888864" x2="35" y2="41.888888888888864" style="visibility: inherit;" fill="rgb(0, 0, 0)" stroke="rgb(204, 204, 204)" stroke-width="1px"></line><line x1="40" y1="0" x2="35" y2="0" style="visibility: inherit;" fill="rgb(0, 0, 0)" stroke="rgb(204, 204, 204)" stroke-width="1px"></line></g><g transform="translate(30, 0)"><text x="0" y="377" dx="0em" dy="0.3em" style="text-anchor: end; visibility: hidden; font-family: Roboto, sans-serif; font-size: 12px; font-weight: 200;" fill="rgb(255, 255, 255)" stroke="none" stroke-width="1px">0.1</text><text x="0" y="335.1111111111111" dx="0em" dy="0.3em" style="text-anchor: end; visibility: inherit; font-family: Roboto, sans-serif; font-size: 12px; font-weight: 200;" fill="rgb(255, 255, 255)" stroke="none" stroke-width="1px">0.2</text><text x="0" y="293.22222222222223" dx="0em" dy="0.3em" style="text-anchor: end; visibility: inherit; font-family: Roboto, sans-serif; font-size: 12px; font-weight: 200;" fill="rgb(255, 255, 255)" stroke="none" stroke-width="1px">0.3</text><text x="0" y="251.33333333333331" dx="0em" dy="0.3em" style="text-anchor: end; visibility: inherit; font-family: Roboto, sans-serif; font-size: 12px; font-weight: 200;" fill="rgb(255, 255, 255)" stroke="none" stroke-width="1px">0.4</text><text x="0" y="209.44444444444446" dx="0em" dy="0.3em" style="text-anchor: end; visibility: inherit; font-family: Roboto, sans-serif; font-size: 12px; font-weight: 200;" fill="rgb(255, 255, 255)" stroke="none" stroke-width="1px">0.5</text><text x="0" y="167.55555555555554" dx="0em" dy="0.3em" style="text-anchor: end; visibility: inherit; font-family: Roboto, sans-serif; font-size: 12px; font-weight: 200;" fill="rgb(255, 255, 255)" stroke="none" stroke-width="1px">0.6</text><text x="0" y="125.66666666666669" dx="0em" dy="0.3em" style="text-anchor: end; visibility: inherit; font-family: Roboto, sans-serif; font-size: 12px; font-weight: 200;" fill="rgb(255, 255, 255)" stroke="none" stroke-width="1px">0.7</text><text x="0" y="83.77777777777777" dx="0em" dy="0.3em" style="text-anchor: end; visibility: inherit; font-family: Roboto, sans-serif; font-size: 12px; font-weight: 200;" fill="rgb(255, 255, 255)" stroke="none" stroke-width="1px">0.8</text><text x="0" y="41.888888888888864" dx="0em" dy="0.3em" style="text-anchor: end; visibility: inherit; font-family: Roboto, sans-serif; font-size: 12px; font-weight: 200;" fill="rgb(255, 255, 255)" stroke="none" stroke-width="1px">0.9</text><text x="0" y="0" dx="0em" dy="0.3em" style="text-anchor: end; visibility: hidden; font-family: Roboto, sans-serif; font-size: 12px; font-weight: 200;" fill="rgb(255, 255, 255)" stroke="none" stroke-width="1px">1</text></g><line x1="40" y1="0" x2="40" y2="377" fill="rgb(0, 0, 0)" stroke="rgb(204, 204, 204)" stroke-width="1px"></line></g></g><g transform="translate(40, 0)" clip-path="url(#clip_0)"><clipPath id="clip_0"><rect width="1456" height="377"></rect></clipPath><g><g><g><line x1="0" y1="0" x2="0" y2="377" fill="rgb(0, 0, 0)" stroke="rgb(189, 189, 189)" stroke-width="1px" opacity="0.25"></line><line x1="132.36363636363637" y1="0" x2="132.36363636363637" y2="377" fill="rgb(0, 0, 0)" stroke="rgb(189, 189, 189)" stroke-width="1px" opacity="0.25"></line><line x1="264.72727272727275" y1="0" x2="264.72727272727275" y2="377" fill="rgb(0, 0, 0)" stroke="rgb(189, 189, 189)" stroke-width="1px" opacity="0.25"></line><line x1="397.09090909090907" y1="0" x2="397.09090909090907" y2="377" fill="rgb(0, 0, 0)" stroke="rgb(189, 189, 189)" stroke-width="1px" opacity="0.25"></line><line x1="529.4545454545455" y1="0" x2="529.4545454545455" y2="377" fill="rgb(0, 0, 0)" stroke="rgb(189, 189, 189)" stroke-width="1px" opacity="0.25"></line><line x1="661.8181818181818" y1="0" x2="661.8181818181818" y2="377" fill="rgb(0, 0, 0)" stroke="rgb(189, 189, 189)" stroke-width="1px" opacity="0.25"></line><line x1="794.1818181818181" y1="0" x2="794.1818181818181" y2="377" fill="rgb(0, 0, 0)" stroke="rgb(189, 189, 189)" stroke-width="1px" opacity="0.25"></line><line x1="926.5454545454545" y1="0" x2="926.5454545454545" y2="377" fill="rgb(0, 0, 0)" stroke="rgb(189, 189, 189)" stroke-width="1px" opacity="0.25"></line><line x1="1058.909090909091" y1="0" x2="1058.909090909091" y2="377" fill="rgb(0, 0, 0)" stroke="rgb(189, 189, 189)" stroke-width="1px" opacity="0.25"></line><line x1="1191.2727272727273" y1="0" x2="1191.2727272727273" y2="377" fill="rgb(0, 0, 0)" stroke="rgb(189, 189, 189)" stroke-width="1px" opacity="0.25"></line><line x1="1323.6363636363635" y1="0" x2="1323.6363636363635" y2="377" fill="rgb(0, 0, 0)" stroke="rgb(189, 189, 189)" stroke-width="1px" opacity="0.25"></line><line x1="1456" y1="0" x2="1456" y2="377" fill="rgb(0, 0, 0)" stroke="rgb(189, 189, 189)" stroke-width="1px" opacity="0.25"></line></g><g><line x1="0" y1="377" x2="1456" y2="377" fill="rgb(0, 0, 0)" stroke="rgb(189, 189, 189)" stroke-width="1px" opacity="0.25"></line><line x1="0" y1="335.1111111111111" x2="1456" y2="335.1111111111111" fill="rgb(0, 0, 0)" stroke="rgb(189, 189, 189)" stroke-width="1px" opacity="0.25"></line><line x1="0" y1="293.22222222222223" x2="1456" y2="293.22222222222223" fill="rgb(0, 0, 0)" stroke="rgb(189, 189, 189)" stroke-width="1px" opacity="0.25"></line><line x1="0" y1="251.33333333333331" x2="1456" y2="251.33333333333331" fill="rgb(0, 0, 0)" stroke="rgb(189, 189, 189)" stroke-width="1px" opacity="0.25"></line><line x1="0" y1="209.44444444444446" x2="1456" y2="209.44444444444446" fill="rgb(0, 0, 0)" stroke="rgb(189, 189, 189)" stroke-width="1px" opacity="0.25"></line><line x1="0" y1="167.55555555555554" x2="1456" y2="167.55555555555554" fill="rgb(0, 0, 0)" stroke="rgb(189, 189, 189)" stroke-width="1px" opacity="0.25"></line><line x1="0" y1="125.66666666666669" x2="1456" y2="125.66666666666669" fill="rgb(0, 0, 0)" stroke="rgb(189, 189, 189)" stroke-width="1px" opacity="0.25"></line><line x1="0" y1="83.77777777777777" x2="1456" y2="83.77777777777777" fill="rgb(0, 0, 0)" stroke="rgb(189, 189, 189)" stroke-width="1px" opacity="0.25"></line><line x1="0" y1="41.888888888888864" x2="1456" y2="41.888888888888864" fill="rgb(0, 0, 0)" stroke="rgb(189, 189, 189)" stroke-width="1px" opacity="0.25"></line><line x1="0" y1="0" x2="1456" y2="0" fill="rgb(0, 0, 0)" stroke="rgb(189, 189, 189)" stroke-width="1px" opacity="0.25"></line></g></g></g><g><g><line x1="0" y1="418.8888888888889" x2="1456" y2="418.8888888888889" fill="rgb(0, 0, 0)" stroke="rgb(153, 153, 153)" stroke-width="1.5px"></line></g></g><g><g><line x1="132.36363636363637" y1="0" x2="132.36363636363637" y2="377" fill="rgb(0, 0, 0)" stroke="rgb(153, 153, 153)" stroke-width="1.5px"></line></g></g><g><g><g><g><g><path stroke="rgb(51, 187, 238)" stroke-width="2px" d="M185.30909090909088,387.4722209738361L211.78181818181818,361.2916654182805L238.25454545454545,340.34722222222223L264.72727272727275,319.40277902616396L291.2,319.40277902616396L317.67272727272723,314.1666666666667L344.1454545454545,316.7847197254499L370.61818181818177,319.40277902616396L397.09090909090907,332.4930568039417L423.56363636363636,316.7847197254499L450.0363636363636,316.7847197254499L476.5090909090909,316.7847197254499L502.9818181818182,316.7847197254499L529.4545454545455,314.1666666666667L555.9272727272728,308.9305605491003L582.4,314.1666666666667L608.8727272727273,314.1666666666667L635.3454545454545,316.7847197254499L661.8181818181818,319.40277902616396L688.290909090909,322.0208320849472L714.7636363636364,324.6388913856612L741.2363636363635,316.7847197254499L767.7090909090908,324.6388913856612L794.1818181818181,316.7847197254499L820.6545454545454,324.6388913856612L847.1272727272727,316.7847197254499L873.6,319.40277902616396L900.0727272727272,322.0208320849472L926.5454545454545,322.0208320849472L953.0181818181818,319.40277902616396L979.4909090909091,319.40277902616396L1005.9636363636364,327.25694444444446L1032.4363636363637,322.0208320849472L1058.909090909091,316.7847197254499L1085.3818181818183,324.6388913856612L1111.8545454545456,316.7847197254499L1138.3272727272729,324.6388913856612L1164.8,322.0208320849472L1191.2727272727273,327.25694444444446L1217.7454545454545,322.0208320849472L1244.2181818181818,322.0208320849472L1270.690909090909,319.40277902616396L1297.1636363636362,327.25694444444446" style="fill: none;" fill="none"></path></g><g><path stroke="rgb(255, 112, 67)" stroke-width="2px" d="M211.78181818181818,395.32638951308195L238.25454545454545,353.4375L264.72727272727275,342.96527528100546L291.2,324.6388913856612L317.67272727272723,322.0208320849472L344.1454545454545,319.40277902616396L370.61818181818177,311.54861360788345L397.09090909090907,314.1666666666667L423.56363636363636,311.54861360788345L450.0363636363636,314.1666666666667L476.5090909090909,327.25694444444446L502.9818181818182,324.6388913856612L529.4545454545455,314.1666666666667L555.9272727272728,316.7847197254499L582.4,314.1666666666667L608.8727272727273,314.1666666666667L635.3454545454545,311.54861360788345L661.8181818181818,314.1666666666667L688.290909090909,311.54861360788345L714.7636363636364,311.54861360788345L741.2363636363635,316.7847197254499L767.7090909090908,311.54861360788345L794.1818181818181,311.54861360788345L820.6545454545454,314.1666666666667L847.1272727272727,311.54861360788345L873.6,308.9305605491003L900.0727272727272,319.40277902616396L926.5454545454545,316.7847197254499L953.0181818181818,308.9305605491003L979.4909090909091,311.54861360788345L1005.9636363636364,308.9305605491003L1032.4363636363637,314.1666666666667L1058.909090909091,314.1666666666667L1085.3818181818183,303.6944419476721L1111.8545454545456,308.9305605491003L1138.3272727272729,301.0763888888889L1164.8,303.6944419476721L1191.2727272727273,303.6944419476721L1217.7454545454545,308.9305605491003L1244.2181818181818,306.3124950064553L1270.690909090909,311.54861360788345L1297.1636363636362,311.54861360788345" style="fill: none;" fill="none"></path></g><g><path stroke="rgb(0, 153, 136)" stroke-width="2px" d="M132.36363636363637,392.70833333333337L158.83636363636361,369.1458339575264L185.30909090909088,337.729169163439L211.78181818181818,337.729169163439L238.25454545454545,335.11110986272496L264.72727272727275,342.96527528100546L291.2,332.4930568039417L317.67272727272723,335.11110986272496L344.1454545454545,335.11110986272496L370.61818181818177,335.11110986272496L397.09090909090907,337.729169163439L423.56363636363636,327.25694444444446L450.0363636363636,332.4930568039417L476.5090909090909,335.11110986272496L502.9818181818182,332.4930568039417L529.4545454545455,329.87499750322763L555.9272727272728,332.4930568039417L582.4,329.87499750322763L608.8727272727273,329.87499750322763L635.3454545454545,335.11110986272496L661.8181818181818,332.4930568039417L688.290909090909,327.25694444444446L714.7636363636364,337.729169163439L741.2363636363635,332.4930568039417L767.7090909090908,327.25694444444446L794.1818181818181,335.11110986272496L820.6545454545454,332.4930568039417L847.1272727272727,327.25694444444446L873.6,329.87499750322763L900.0727272727272,329.87499750322763L926.5454545454545,332.4930568039417L953.0181818181818,327.25694444444446L979.4909090909091,332.4930568039417L1005.9636363636364,327.25694444444446L1032.4363636363637,329.87499750322763L1058.909090909091,327.25694444444446L1085.3818181818183,319.40277902616396L1111.8545454545456,324.6388913856612L1138.3272727272729,324.6388913856612L1164.8,324.6388913856612L1191.2727272727273,327.25694444444446L1217.7454545454545,322.0208320849472L1244.2181818181818,316.7847197254499L1270.690909090909,319.40277902616396L1297.1636363636362,324.6388913856612" style="fill: none;" fill="none"></path></g><g><path stroke="rgb(238, 51, 119)" stroke-width="2px" d="M132.36363636363637,400.5625003120965L158.83636363636361,363.90972471899454L185.30909090909088,369.1458339575264L211.78181818181818,361.2916654182805L238.25454545454545,350.81944694121677L264.72727272727275,348.20138764050273L291.2,342.96527528100546L317.67272727272723,337.729169163439L344.1454545454545,332.4930568039417L370.61818181818177,332.4930568039417L397.09090909090907,332.4930568039417L423.56363636363636,327.25694444444446L450.0363636363636,332.4930568039417L476.5090909090909,335.11110986272496L502.9818181818182,335.11110986272496L529.4545454545455,337.729169163439L555.9272727272728,329.87499750322763L582.4,337.729169163439L608.8727272727273,332.4930568039417L635.3454545454545,329.87499750322763L661.8181818181818,335.11110986272496L688.290909090909,324.6388913856612L714.7636363636364,337.729169163439L741.2363636363635,337.729169163439L767.7090909090908,332.4930568039417L794.1818181818181,340.34722222222223L820.6545454545454,335.11110986272496L847.1272727272727,337.729169163439L873.6,337.729169163439L900.0727272727272,340.34722222222223L926.5454545454545,329.87499750322763L953.0181818181818,329.87499750322763L979.4909090909091,342.96527528100546L1005.9636363636364,340.34722222222223L1032.4363636363637,335.11110986272496L1058.909090909091,342.96527528100546L1085.3818181818183,335.11110986272496L1111.8545454545456,345.5833345817195L1138.3272727272729,335.11110986272496L1164.8,329.87499750322763L1191.2727272727273,335.11110986272496L1217.7454545454545,332.4930568039417L1244.2181818181818,327.25694444444446L1270.690909090909,332.4930568039417L1297.1636363636362,337.729169163439" style="fill: none;" fill="none"></path></g><g><path stroke="rgb(0, 119, 187)" stroke-width="2px" d="M132.36363636363637,400.5625003120965L158.83636363636361,342.96527528100546L185.30909090909088,348.20138764050273L211.78181818181818,345.5833345817195L238.25454545454545,350.81944694121677L264.72727272727275,348.20138764050273L291.2,353.4375L317.67272727272723,356.05555305878323L344.1454545454545,350.81944694121677L370.61818181818177,342.96527528100546L397.09090909090907,342.96527528100546L423.56363636363636,350.81944694121677L450.0363636363636,353.4375L476.5090909090909,350.81944694121677L502.9818181818182,350.81944694121677L529.4545454545455,350.81944694121677L555.9272727272728,340.34722222222223L582.4,342.96527528100546L608.8727272727273,353.4375L635.3454545454545,345.5833345817195L661.8181818181818,345.5833345817195L688.290909090909,342.96527528100546L714.7636363636364,342.96527528100546L741.2363636363635,345.5833345817195L767.7090909090908,342.96527528100546L794.1818181818181,342.96527528100546L820.6545454545454,337.729169163439L847.1272727272727,342.96527528100546L873.6,337.729169163439L900.0727272727272,345.5833345817195L926.5454545454545,340.34722222222223L953.0181818181818,345.5833345817195L979.4909090909091,340.34722222222223L1005.9636363636364,342.96527528100546L1032.4363636363637,337.729169163439L1058.909090909091,329.87499750322763L1085.3818181818183,335.11110986272496L1111.8545454545456,342.96527528100546L1138.3272727272729,340.34722222222223L1164.8,327.25694444444446L1191.2727272727273,329.87499750322763L1217.7454545454545,337.729169163439L1244.2181818181818,329.87499750322763L1270.690909090909,340.34722222222223L1297.1636363636362,335.11110986272496" style="fill: none;" fill="none"></path></g><g><path stroke="rgb(187, 187, 187)" stroke-width="2px" d="M132.36363636363637,397.94444413234794L158.83636363636361,371.76389013727504L185.30909090909088,363.90972471899454L211.78181818181818,353.4375L238.25454545454545,350.81944694121677L264.72727272727275,350.81944694121677L291.2,353.4375L317.67272727272723,358.67361235949727L344.1454545454545,350.81944694121677L370.61818181818177,348.20138764050273L397.09090909090907,340.34722222222223L423.56363636363636,348.20138764050273L450.0363636363636,335.11110986272496L476.5090909090909,342.96527528100546L502.9818181818182,335.11110986272496L529.4545454545455,329.87499750322763L555.9272727272728,329.87499750322763L582.4,324.6388913856612L608.8727272727273,340.34722222222223L635.3454545454545,322.0208320849472L661.8181818181818,324.6388913856612L688.290909090909,332.4930568039417L714.7636363636364,340.34722222222223L741.2363636363635,324.6388913856612L767.7090909090908,327.25694444444446L794.1818181818181,327.25694444444446L820.6545454545454,327.25694444444446L847.1272727272727,335.11110986272496L873.6,322.0208320849472L900.0727272727272,322.0208320849472L926.5454545454545,327.25694444444446L953.0181818181818,324.6388913856612L979.4909090909091,329.87499750322763L1005.9636363636364,332.4930568039417L1032.4363636363637,322.0208320849472L1058.909090909091,329.87499750322763L1085.3818181818183,322.0208320849472L1111.8545454545456,337.729169163439L1138.3272727272729,337.729169163439L1164.8,329.87499750322763L1191.2727272727273,329.87499750322763L1217.7454545454545,327.25694444444446L1244.2181818181818,329.87499750322763L1270.690909090909,322.0208320849472L1297.1636363636362,327.25694444444446" style="fill: none;" fill="none"></path></g><g><path stroke="rgb(0, 153, 136)" stroke-width="2px" d="M132.36363636363637,403.1805549313625L158.83636363636361,369.1458339575264L185.30909090909088,361.2916654182805L211.78181818181818,356.05555305878323L238.25454545454545,358.67361235949727L264.72727272727275,329.87499750322763L291.2,329.87499750322763L317.67272727272723,335.11110986272496L344.1454545454545,322.0208320849472L370.61818181818177,324.6388913856612L397.09090909090907,316.7847197254499L423.56363636363636,308.9305605491003L450.0363636363636,314.1666666666667L476.5090909090909,311.54861360788345L502.9818181818182,311.54861360788345L529.4545454545455,311.54861360788345L555.9272727272728,311.54861360788345L582.4,303.6944419476721L608.8727272727273,311.54861360788345L635.3454545454545,311.54861360788345L661.8181818181818,316.7847197254499L688.290909090909,314.1666666666667L714.7636363636364,306.3124950064553L741.2363636363635,308.9305605491003L767.7090909090908,306.3124950064553L794.1818181818181,303.6944419476721L820.6545454545454,311.54861360788345L847.1272727272727,314.1666666666667L873.6,303.6944419476721L900.0727272727272,322.0208320849472L926.5454545454545,314.1666666666667L953.0181818181818,311.54861360788345L979.4909090909091,303.6944419476721L1005.9636363636364,303.6944419476721L1032.4363636363637,306.3124950064553L1058.909090909091,316.7847197254499L1085.3818181818183,316.7847197254499L1111.8545454545456,311.54861360788345L1138.3272727272729,314.1666666666667L1164.8,311.54861360788345L1191.2727272727273,308.9305605491003L1217.7454545454545,306.3124950064553L1244.2181818181818,316.7847197254499L1270.690909090909,311.54861360788345L1297.1636363636362,311.54861360788345" style="fill: none;" fill="none"></path></g><g><path stroke="rgb(204, 51, 17)" stroke-width="2px" d="M132.36363636363637,376.9999993758069L158.83636363636361,369.1458339575264L185.30909090909088,361.2916654182805L211.78181818181818,353.4375L238.25454545454545,353.4375L264.72727272727275,340.34722222222223L291.2,345.5833345817195L317.67272727272723,353.4375L344.1454545454545,340.34722222222223L370.61818181818177,342.96527528100546L397.09090909090907,350.81944694121677L423.56363636363636,340.34722222222223L450.0363636363636,340.34722222222223L476.5090909090909,329.87499750322763L502.9818181818182,342.96527528100546L529.4545454545455,329.87499750322763L555.9272727272728,327.25694444444446L582.4,332.4930568039417L608.8727272727273,337.729169163439L635.3454545454545,335.11110986272496L661.8181818181818,335.11110986272496L688.290909090909,335.11110986272496L714.7636363636364,337.729169163439L741.2363636363635,322.0208320849472L767.7090909090908,332.4930568039417L794.1818181818181,329.87499750322763L820.6545454545454,335.11110986272496L847.1272727272727,332.4930568039417L873.6,335.11110986272496L900.0727272727272,329.87499750322763L926.5454545454545,332.4930568039417L953.0181818181818,324.6388913856612L979.4909090909091,329.87499750322763L1005.9636363636364,329.87499750322763L1032.4363636363637,332.4930568039417L1058.909090909091,332.4930568039417L1085.3818181818183,337.729169163439L1111.8545454545456,342.96527528100546L1138.3272727272729,340.34722222222223L1164.8,335.11110986272496L1191.2727272727273,329.87499750322763L1217.7454545454545,327.25694444444446L1244.2181818181818,332.4930568039417L1270.690909090909,329.87499750322763L1297.1636363636362,329.87499750322763" style="fill: none;" fill="none"></path></g><g><path stroke="rgb(255, 112, 67)" stroke-width="2px" d="M158.83636363636361,392.70833333333337L185.30909090909088,374.3819431960583L211.78181818181818,353.4375L238.25454545454545,322.0208320849472L264.72727272727275,332.4930568039417L291.2,324.6388913856612L317.67272727272723,327.25694444444446L344.1454545454545,329.87499750322763L370.61818181818177,324.6388913856612L397.09090909090907,327.25694444444446L423.56363636363636,324.6388913856612L450.0363636363636,324.6388913856612L476.5090909090909,324.6388913856612L502.9818181818182,327.25694444444446L529.4545454545455,319.40277902616396L555.9272727272728,322.0208320849472L582.4,324.6388913856612L608.8727272727273,324.6388913856612L635.3454545454545,327.25694444444446L661.8181818181818,327.25694444444446L688.290909090909,319.40277902616396L714.7636363636364,324.6388913856612L741.2363636363635,308.9305605491003L767.7090909090908,329.87499750322763L794.1818181818181,311.54861360788345L820.6545454545454,316.7847197254499L847.1272727272727,308.9305605491003L873.6,316.7847197254499L900.0727272727272,311.54861360788345L926.5454545454545,324.6388913856612L953.0181818181818,314.1666666666667L979.4909090909091,308.9305605491003L1005.9636363636364,316.7847197254499L1032.4363636363637,311.54861360788345L1058.909090909091,319.40277902616396L1085.3818181818183,311.54861360788345L1111.8545454545456,311.54861360788345L1138.3272727272729,306.3124950064553L1164.8,314.1666666666667L1191.2727272727273,316.7847197254499L1217.7454545454545,306.3124950064553L1244.2181818181818,308.9305605491003L1270.690909090909,316.7847197254499L1297.1636363636362,311.54861360788345" style="fill: none;" fill="none"></path></g><g><path stroke="rgb(187, 187, 187)" stroke-width="2px" d="M211.78181818181818,379.61805555555554L238.25454545454545,374.3819431960583L264.72727272727275,358.67361235949727L291.2,337.729169163439L317.67272727272723,335.11110986272496L344.1454545454545,337.729169163439L370.61818181818177,327.25694444444446L397.09090909090907,324.6388913856612L423.56363636363636,316.7847197254499L450.0363636363636,322.0208320849472L476.5090909090909,324.6388913856612L502.9818181818182,319.40277902616396L529.4545454545455,319.40277902616396L555.9272727272728,329.87499750322763L582.4,322.0208320849472L608.8727272727273,327.25694444444446L635.3454545454545,329.87499750322763L661.8181818181818,327.25694444444446L688.290909090909,329.87499750322763L714.7636363636364,324.6388913856612L741.2363636363635,327.25694444444446L767.7090909090908,332.4930568039417L794.1818181818181,335.11110986272496L820.6545454545454,324.6388913856612L847.1272727272727,329.87499750322763L873.6,316.7847197254499L900.0727272727272,319.40277902616396L926.5454545454545,322.0208320849472L953.0181818181818,324.6388913856612L979.4909090909091,314.1666666666667L1005.9636363636364,322.0208320849472L1032.4363636363637,319.40277902616396L1058.909090909091,332.4930568039417L1085.3818181818183,319.40277902616396L1111.8545454545456,332.4930568039417L1138.3272727272729,340.34722222222223L1164.8,332.4930568039417L1191.2727272727273,329.87499750322763L1217.7454545454545,329.87499750322763L1244.2181818181818,327.25694444444446L1270.690909090909,332.4930568039417L1297.1636363636362,329.87499750322763" style="fill: none;" fill="none"></path></g><g><path stroke="rgb(51, 187, 238)" stroke-width="2px" d="M132.36363636363637,405.7986111111111L158.83636363636361,340.34722222222223L185.30909090909088,322.0208320849472L211.78181818181818,324.6388913856612L238.25454545454545,322.0208320849472L264.72727272727275,316.7847197254499L291.2,322.0208320849472L317.67272727272723,314.1666666666667L344.1454545454545,311.54861360788345L370.61818181818177,329.87499750322763L397.09090909090907,308.9305605491003L423.56363636363636,314.1666666666667L450.0363636363636,314.1666666666667L476.5090909090909,314.1666666666667L502.9818181818182,308.9305605491003L529.4545454545455,319.40277902616396L555.9272727272728,316.7847197254499L582.4,319.40277902616396L608.8727272727273,316.7847197254499L635.3454545454545,319.40277902616396L661.8181818181818,308.9305605491003L688.290909090909,319.40277902616396L714.7636363636364,311.54861360788345L741.2363636363635,308.9305605491003L767.7090909090908,314.1666666666667L794.1818181818181,314.1666666666667L820.6545454545454,314.1666666666667L847.1272727272727,311.54861360788345L873.6,306.3124950064553L900.0727272727272,308.9305605491003L926.5454545454545,311.54861360788345L953.0181818181818,311.54861360788345L979.4909090909091,314.1666666666667L1005.9636363636364,311.54861360788345L1032.4363636363637,308.9305605491003L1058.909090909091,303.6944419476721L1085.3818181818183,301.0763888888889L1111.8545454545456,301.0763888888889L1138.3272727272729,308.9305605491003L1164.8,306.3124950064553L1191.2727272727273,301.0763888888889L1217.7454545454545,287.9861111111111L1244.2181818181818,290.6041641698943L1270.690909090909,303.6944419476721L1297.1636363636362,293.22221722867755" style="fill: none;" fill="none"></path></g><g><path stroke="rgb(0, 119, 187)" stroke-width="2px" d="M185.30909090909088,413.65277769975364L211.78181818181818,345.5833345817195L238.25454545454545,316.7847197254499L264.72727272727275,308.9305605491003L291.2,301.0763888888889L317.67272727272723,306.3124950064553L344.1454545454545,301.0763888888889L370.61818181818177,311.54861360788345L397.09090909090907,303.6944419476721L423.56363636363636,308.9305605491003L450.0363636363636,303.6944419476721L476.5090909090909,295.84028277132245L502.9818181818182,295.84028277132245L529.4545454545455,290.6041641698943L555.9272727272728,290.6041641698943L582.4,295.84028277132245L608.8727272727273,293.22221722867755L635.3454545454545,298.4583358301057L661.8181818181818,295.84028277132245L688.290909090909,301.0763888888889L714.7636363636364,308.9305605491003L741.2363636363635,298.4583358301057L767.7090909090908,298.4583358301057L794.1818181818181,301.0763888888889L820.6545454545454,298.4583358301057L847.1272727272727,298.4583358301057L873.6,306.3124950064553L900.0727272727272,303.6944419476721L926.5454545454545,298.4583358301057L953.0181818181818,301.0763888888889L979.4909090909091,298.4583358301057L1005.9636363636364,301.0763888888889L1032.4363636363637,295.84028277132245L1058.909090909091,301.0763888888889L1085.3818181818183,295.84028277132245L1111.8545454545456,290.6041641698943L1138.3272727272729,301.0763888888889L1164.8,301.0763888888889L1191.2727272727273,293.22221722867755L1217.7454545454545,293.22221722867755L1244.2181818181818,301.0763888888889L1270.690909090909,301.0763888888889L1297.1636363636362,301.0763888888889" style="fill: none;" fill="none"></path></g><g><path stroke="rgb(255, 112, 67)" stroke-width="2px" d="M158.83636363636361,392.70833333333337L185.30909090909088,374.3819431960583L211.78181818181818,358.67361235949727L238.25454545454545,348.20138764050273L264.72727272727275,348.20138764050273L291.2,356.05555305878323L317.67272727272723,348.20138764050273L344.1454545454545,340.34722222222223L370.61818181818177,348.20138764050273L397.09090909090907,348.20138764050273L423.56363636363636,348.20138764050273L450.0363636363636,340.34722222222223L476.5090909090909,335.11110986272496L502.9818181818182,345.5833345817195L529.4545454545455,340.34722222222223L555.9272727272728,340.34722222222223L582.4,345.5833345817195L608.8727272727273,348.20138764050273L635.3454545454545,348.20138764050273L661.8181818181818,350.81944694121677L688.290909090909,340.34722222222223L714.7636363636364,340.34722222222223L741.2363636363635,337.729169163439L767.7090909090908,340.34722222222223L794.1818181818181,340.34722222222223L820.6545454545454,353.4375L847.1272727272727,345.5833345817195L873.6,342.96527528100546L900.0727272727272,348.20138764050273L926.5454545454545,342.96527528100546L953.0181818181818,348.20138764050273L979.4909090909091,345.5833345817195L1005.9636363636364,345.5833345817195L1032.4363636363637,348.20138764050273L1058.909090909091,350.81944694121677L1085.3818181818183,340.34722222222223L1111.8545454545456,342.96527528100546L1138.3272727272729,345.5833345817195L1164.8,350.81944694121677L1191.2727272727273,335.11110986272496L1217.7454545454545,345.5833345817195L1244.2181818181818,348.20138764050273L1270.690909090909,342.96527528100546L1297.1636363636362,340.34722222222223" style="fill: none;" fill="none"></path></g><g><path stroke="rgb(238, 51, 119)" stroke-width="2px" d="M132.36363636363637,397.94444413234794L158.83636363636361,335.11110986272496L185.30909090909088,301.0763888888889L211.78181818181818,311.54861360788345L238.25454545454545,306.3124950064553L264.72727272727275,308.9305605491003L291.2,306.3124950064553L317.67272727272723,311.54861360788345L344.1454545454545,293.22221722867755L370.61818181818177,301.0763888888889L397.09090909090907,287.9861111111111L423.56363636363636,290.6041641698943L450.0363636363636,298.4583358301057L476.5090909090909,285.3680580523279L502.9818181818182,282.7500049935447L529.4545454545455,293.22221722867755L555.9272727272728,290.6041641698943L582.4,293.22221722867755L608.8727272727273,287.9861111111111L635.3454545454545,285.3680580523279L661.8181818181818,282.7500049935447L688.290909090909,287.9861111111111L714.7636363636364,287.9861111111111L741.2363636363635,295.84028277132245L767.7090909090908,277.51388639211655L794.1818181818181,287.9861111111111L820.6545454545454,280.1319394508998L847.1272727272727,285.3680580523279L873.6,282.7500049935447L900.0727272727272,267.041661673122L926.5454545454545,280.1319394508998L953.0181818181818,280.1319394508998L979.4909090909091,282.7500049935447L1005.9636363636364,280.1319394508998L1032.4363636363637,280.1319394508998L1058.909090909091,280.1319394508998L1085.3818181818183,285.3680580523279L1111.8545454545456,267.041661673122L1138.3272727272729,277.51388639211655L1164.8,274.89583333333337L1191.2727272727273,277.51388639211655L1217.7454545454545,280.1319394508998L1244.2181818181818,269.6597272157669L1270.690909090909,280.1319394508998L1297.1636363636362,280.1319394508998" style="fill: none;" fill="none"></path></g><g><path stroke="rgb(204, 51, 17)" stroke-width="2px" d="M132.36363636363637,387.4722209738361L158.83636363636361,306.3124950064553L185.30909090909088,308.9305605491003L211.78181818181818,301.0763888888889L238.25454545454545,319.40277902616396L264.72727272727275,311.54861360788345L291.2,316.7847197254499L317.67272727272723,308.9305605491003L344.1454545454545,314.1666666666667L370.61818181818177,316.7847197254499L397.09090909090907,314.1666666666667L423.56363636363636,308.9305605491003L450.0363636363636,308.9305605491003L476.5090909090909,316.7847197254499L502.9818181818182,308.9305605491003L529.4545454545455,303.6944419476721L555.9272727272728,308.9305605491003L582.4,308.9305605491003L608.8727272727273,306.3124950064553L635.3454545454545,303.6944419476721L661.8181818181818,308.9305605491003L688.290909090909,303.6944419476721L714.7636363636364,306.3124950064553L741.2363636363635,306.3124950064553L767.7090909090908,303.6944419476721L794.1818181818181,303.6944419476721L820.6545454545454,311.54861360788345L847.1272727272727,306.3124950064553L873.6,306.3124950064553L900.0727272727272,301.0763888888889L926.5454545454545,301.0763888888889L953.0181818181818,308.9305605491003L979.4909090909091,306.3124950064553L1005.9636363636364,306.3124950064553L1032.4363636363637,308.9305605491003L1058.909090909091,303.6944419476721L1085.3818181818183,303.6944419476721L1111.8545454545456,311.54861360788345L1138.3272727272729,311.54861360788345L1164.8,316.7847197254499L1191.2727272727273,311.54861360788345L1217.7454545454545,298.4583358301057L1244.2181818181818,316.7847197254499L1270.690909090909,316.7847197254499L1297.1636363636362,319.40277902616396" style="fill: none;" fill="none"></path></g><g><path stroke="rgb(0, 119, 187)" stroke-width="2px" d="M132.36363636363637,395.32638951308195L158.83636363636361,358.67361235949727L185.30909090909088,329.87499750322763L211.78181818181818,324.6388913856612L238.25454545454545,324.6388913856612L264.72727272727275,316.7847197254499L291.2,322.0208320849472L317.67272727272723,316.7847197254499L344.1454545454545,322.0208320849472L370.61818181818177,319.40277902616396L397.09090909090907,327.25694444444446L423.56363636363636,319.40277902616396L450.0363636363636,322.0208320849472L476.5090909090909,324.6388913856612L502.9818181818182,319.40277902616396L529.4545454545455,306.3124950064553L555.9272727272728,298.4583358301057L582.4,301.0763888888889L608.8727272727273,301.0763888888889L635.3454545454545,301.0763888888889L661.8181818181818,298.4583358301057L688.290909090909,290.6041641698943L714.7636363636364,293.22221722867755L741.2363636363635,287.9861111111111L767.7090909090908,295.84028277132245L794.1818181818181,290.6041641698943L820.6545454545454,295.84028277132245L847.1272727272727,295.84028277132245L873.6,290.6041641698943L900.0727272727272,298.4583358301057L926.5454545454545,293.22221722867755L953.0181818181818,293.22221722867755L979.4909090909091,287.9861111111111L1005.9636363636364,287.9861111111111L1032.4363636363637,287.9861111111111L1058.909090909091,287.9861111111111L1085.3818181818183,293.22221722867755L1111.8545454545456,293.22221722867755L1138.3272727272729,293.22221722867755L1164.8,287.9861111111111L1191.2727272727273,285.3680580523279L1217.7454545454545,287.9861111111111L1244.2181818181818,287.9861111111111L1270.690909090909,290.6041641698943L1297.1636363636362,293.22221722867755" style="fill: none;" fill="none"></path></g><g><path stroke="rgb(0, 153, 136)" stroke-width="2px" d="M132.36363636363637,332.4930568039417L158.83636363636361,319.40277902616396L185.30909090909088,293.22221722867755L211.78181818181818,301.0763888888889L238.25454545454545,298.4583358301057L264.72727272727275,295.84028277132245L291.2,295.84028277132245L317.67272727272723,295.84028277132245L344.1454545454545,290.6041641698943L370.61818181818177,298.4583358301057L397.09090909090907,293.22221722867755L423.56363636363636,290.6041641698943L450.0363636363636,303.6944419476721L476.5090909090909,298.4583358301057L502.9818181818182,301.0763888888889L529.4545454545455,303.6944419476721L555.9272727272728,303.6944419476721L582.4,301.0763888888889L608.8727272727273,301.0763888888889L635.3454545454545,303.6944419476721L661.8181818181818,298.4583358301057L688.290909090909,301.0763888888889L714.7636363636364,298.4583358301057L741.2363636363635,295.84028277132245L767.7090909090908,295.84028277132245L794.1818181818181,303.6944419476721L820.6545454545454,298.4583358301057L847.1272727272727,293.22221722867755L873.6,303.6944419476721L900.0727272727272,298.4583358301057L926.5454545454545,301.0763888888889L953.0181818181818,295.84028277132245L979.4909090909091,301.0763888888889L1005.9636363636364,293.22221722867755L1032.4363636363637,295.84028277132245L1058.909090909091,290.6041641698943L1085.3818181818183,293.22221722867755L1111.8545454545456,301.0763888888889L1138.3272727272729,293.22221722867755L1164.8,301.0763888888889L1191.2727272727273,298.4583358301057L1217.7454545454545,290.6041641698943L1244.2181818181818,287.9861111111111L1270.690909090909,295.84028277132245L1297.1636363636362,298.4583358301057" style="fill: none;" fill="none"></path></g><g><path stroke="rgb(51, 187, 238)" stroke-width="2px" d="M132.36363636363637,397.94444413234794L158.83636363636361,345.5833345817195L185.30909090909088,340.34722222222223L211.78181818181818,322.0208320849472L238.25454545454545,311.54861360788345L264.72727272727275,303.6944419476721L291.2,322.0208320849472L317.67272727272723,316.7847197254499L344.1454545454545,322.0208320849472L370.61818181818177,306.3124950064553L397.09090909090907,314.1666666666667L423.56363636363636,327.25694444444446L450.0363636363636,322.0208320849472L476.5090909090909,314.1666666666667L502.9818181818182,314.1666666666667L529.4545454545455,306.3124950064553L555.9272727272728,314.1666666666667L582.4,314.1666666666667L608.8727272727273,308.9305605491003L635.3454545454545,314.1666666666667L661.8181818181818,308.9305605491003L688.290909090909,308.9305605491003L714.7636363636364,303.6944419476721L741.2363636363635,295.84028277132245L767.7090909090908,285.3680580523279L794.1818181818181,303.6944419476721L820.6545454545454,298.4583358301057L847.1272727272727,301.0763888888889L873.6,314.1666666666667L900.0727272727272,301.0763888888889L926.5454545454545,298.4583358301057L953.0181818181818,298.4583358301057L979.4909090909091,295.84028277132245L1005.9636363636364,303.6944419476721L1032.4363636363637,298.4583358301057L1058.909090909091,295.84028277132245L1085.3818181818183,287.9861111111111L1111.8545454545456,293.22221722867755L1138.3272727272729,290.6041641698943L1164.8,287.9861111111111L1191.2727272727273,306.3124950064553L1217.7454545454545,303.6944419476721L1244.2181818181818,290.6041641698943L1270.690909090909,287.9861111111111L1297.1636363636362,290.6041641698943" style="fill: none;" fill="none"></path></g><g><path stroke="rgb(204, 51, 17)" stroke-width="2px" d="M132.36363636363637,403.1805549313625L158.83636363636361,353.4375L185.30909090909088,329.87499750322763L211.78181818181818,335.11110986272496L238.25454545454545,314.1666666666667L264.72727272727275,319.40277902616396L291.2,311.54861360788345L317.67272727272723,314.1666666666667L344.1454545454545,314.1666666666667L370.61818181818177,316.7847197254499L397.09090909090907,306.3124950064553L423.56363636363636,308.9305605491003L450.0363636363636,311.54861360788345L476.5090909090909,314.1666666666667L502.9818181818182,306.3124950064553L529.4545454545455,308.9305605491003L555.9272727272728,311.54861360788345L582.4,308.9305605491003L608.8727272727273,308.9305605491003L635.3454545454545,306.3124950064553L661.8181818181818,311.54861360788345L688.290909090909,314.1666666666667L714.7636363636364,311.54861360788345L741.2363636363635,308.9305605491003L767.7090909090908,311.54861360788345L794.1818181818181,303.6944419476721L820.6545454545454,301.0763888888889L847.1272727272727,314.1666666666667L873.6,301.0763888888889L900.0727272727272,308.9305605491003L926.5454545454545,301.0763888888889L953.0181818181818,308.9305605491003L979.4909090909091,301.0763888888889L1005.9636363636364,308.9305605491003L1032.4363636363637,303.6944419476721L1058.909090909091,303.6944419476721L1085.3818181818183,298.4583358301057L1111.8545454545456,303.6944419476721L1138.3272727272729,301.0763888888889L1164.8,301.0763888888889L1191.2727272727273,308.9305605491003L1217.7454545454545,308.9305605491003L1244.2181818181818,298.4583358301057L1270.690909090909,303.6944419476721L1297.1636363636362,308.9305605491003" style="fill: none;" fill="none"></path></g><g><path stroke="rgb(187, 187, 187)" stroke-width="2px" d="M132.36363636363637,369.1458339575264L158.83636363636361,335.11110986272496L185.30909090909088,332.4930568039417L211.78181818181818,311.54861360788345L238.25454545454545,295.84028277132245L264.72727272727275,298.4583358301057L291.2,306.3124950064553L317.67272727272723,306.3124950064553L344.1454545454545,306.3124950064553L370.61818181818177,308.9305605491003L397.09090909090907,306.3124950064553L423.56363636363636,295.84028277132245L450.0363636363636,306.3124950064553L476.5090909090909,293.22221722867755L502.9818181818182,295.84028277132245L529.4545454545455,308.9305605491003L555.9272727272728,290.6041641698943L582.4,306.3124950064553L608.8727272727273,303.6944419476721L635.3454545454545,295.84028277132245L661.8181818181818,285.3680580523279L688.290909090909,295.84028277132245L714.7636363636364,290.6041641698943L741.2363636363635,280.1319394508998L767.7090909090908,287.9861111111111L794.1818181818181,282.7500049935447L820.6545454545454,285.3680580523279L847.1272727272727,295.84028277132245L873.6,295.84028277132245L900.0727272727272,293.22221722867755L926.5454545454545,287.9861111111111L953.0181818181818,280.1319394508998L979.4909090909091,285.3680580523279L1005.9636363636364,287.9861111111111L1032.4363636363637,293.22221722867755L1058.909090909091,287.9861111111111L1085.3818181818183,287.9861111111111L1111.8545454545456,277.51388639211655L1138.3272727272729,285.3680580523279L1164.8,280.1319394508998L1191.2727272727273,280.1319394508998L1217.7454545454545,277.51388639211655L1244.2181818181818,282.7500049935447L1270.690909090909,285.3680580523279L1297.1636363636362,274.89583333333337" style="fill: none;" fill="none"></path></g><g><path stroke="rgb(238, 51, 119)" stroke-width="2px" d="M132.36363636363637,382.23611173530423L158.83636363636361,303.6944419476721L185.30909090909088,308.9305605491003L211.78181818181818,298.4583358301057L238.25454545454545,298.4583358301057L264.72727272727275,301.0763888888889L291.2,287.9861111111111L317.67272727272723,293.22221722867755L344.1454545454545,280.1319394508998L370.61818181818177,285.3680580523279L397.09090909090907,287.9861111111111L423.56363636363636,277.51388639211655L450.0363636363636,287.9861111111111L476.5090909090909,272.27778027455014L502.9818181818182,277.51388639211655L529.4545454545455,274.89583333333337L555.9272727272728,277.51388639211655L582.4,274.89583333333337L608.8727272727273,280.1319394508998L635.3454545454545,274.89583333333337L661.8181818181818,277.51388639211655L688.290909090909,277.51388639211655L714.7636363636364,272.27778027455014L741.2363636363635,272.27778027455014L767.7090909090908,272.27778027455014L794.1818181818181,272.27778027455014L820.6545454545454,274.89583333333337L847.1272727272727,267.041661673122L873.6,269.6597272157669L900.0727272727272,274.89583333333337L926.5454545454545,274.89583333333337L953.0181818181818,277.51388639211655L979.4909090909091,280.1319394508998L1005.9636363636364,277.51388639211655L1032.4363636363637,274.89583333333337L1058.909090909091,277.51388639211655L1085.3818181818183,269.6597272157669L1111.8545454545456,274.89583333333337L1138.3272727272729,267.041661673122L1164.8,272.27778027455014L1191.2727272727273,282.7500049935447L1217.7454545454545,272.27778027455014L1244.2181818181818,274.89583333333337L1270.690909090909,274.89583333333337L1297.1636363636362,269.6597272157669" style="fill: none;" fill="none"></path></g><g><path stroke="rgb(51, 187, 238)" stroke-width="2px" d="M132.36363636363637,400.5625003120965L158.83636363636361,353.4375L185.30909090909088,324.6388913856612L211.78181818181818,322.0208320849472L238.25454545454545,322.0208320849472L264.72727272727275,316.7847197254499L291.2,319.40277902616396L317.67272727272723,324.6388913856612L344.1454545454545,324.6388913856612L370.61818181818177,324.6388913856612L397.09090909090907,319.40277902616396L423.56363636363636,324.6388913856612L450.0363636363636,327.25694444444446L476.5090909090909,322.0208320849472L502.9818181818182,327.25694444444446L529.4545454545455,308.9305605491003L555.9272727272728,316.7847197254499L582.4,319.40277902616396L608.8727272727273,308.9305605491003L635.3454545454545,316.7847197254499L661.8181818181818,301.0763888888889L688.290909090909,314.1666666666667L714.7636363636364,316.7847197254499L741.2363636363635,316.7847197254499L767.7090909090908,314.1666666666667L794.1818181818181,306.3124950064553L820.6545454545454,308.9305605491003L847.1272727272727,308.9305605491003L873.6,308.9305605491003L900.0727272727272,303.6944419476721L926.5454545454545,306.3124950064553L953.0181818181818,311.54861360788345L979.4909090909091,308.9305605491003L1005.9636363636364,301.0763888888889L1032.4363636363637,303.6944419476721L1058.909090909091,308.9305605491003L1085.3818181818183,303.6944419476721L1111.8545454545456,311.54861360788345L1138.3272727272729,308.9305605491003L1164.8,319.40277902616396L1191.2727272727273,306.3124950064553L1217.7454545454545,308.9305605491003L1244.2181818181818,308.9305605491003L1270.690909090909,314.1666666666667L1297.1636363636362,308.9305605491003" style="fill: none;" fill="none"></path></g><g><path stroke="rgb(255, 112, 67)" stroke-width="2px" d="M132.36363636363637,374.3819431960583L158.83636363636361,322.0208320849472L185.30909090909088,322.0208320849472L211.78181818181818,298.4583358301057L238.25454545454545,303.6944419476721L264.72727272727275,311.54861360788345L291.2,311.54861360788345L317.67272727272723,298.4583358301057L344.1454545454545,301.0763888888889L370.61818181818177,303.6944419476721L397.09090909090907,293.22221722867755L423.56363636363636,295.84028277132245L450.0363636363636,293.22221722867755L476.5090909090909,293.22221722867755L502.9818181818182,285.3680580523279L529.4545454545455,293.22221722867755L555.9272727272728,293.22221722867755L582.4,282.7500049935447L608.8727272727273,282.7500049935447L635.3454545454545,282.7500049935447L661.8181818181818,285.3680580523279L688.290909090909,282.7500049935447L714.7636363636364,285.3680580523279L741.2363636363635,280.1319394508998L767.7090909090908,282.7500049935447L794.1818181818181,293.22221722867755L820.6545454545454,274.89583333333337L847.1272727272727,285.3680580523279L873.6,287.9861111111111L900.0727272727272,282.7500049935447L926.5454545454545,274.89583333333337L953.0181818181818,287.9861111111111L979.4909090909091,280.1319394508998L1005.9636363636364,287.9861111111111L1032.4363636363637,269.6597272157669L1058.909090909091,280.1319394508998L1085.3818181818183,282.7500049935447L1111.8545454545456,285.3680580523279L1138.3272727272729,272.27778027455014L1164.8,274.89583333333337L1191.2727272727273,272.27778027455014L1217.7454545454545,274.89583333333337L1244.2181818181818,267.041661673122L1270.690909090909,272.27778027455014L1297.1636363636362,274.89583333333337" style="fill: none;" fill="none"></path></g><g><path stroke="rgb(0, 153, 136)" stroke-width="2px" d="M132.36363636363637,366.52777777777777L158.83636363636361,332.4930568039417L185.30909090909088,327.25694444444446L211.78181818181818,311.54861360788345L238.25454545454545,308.9305605491003L264.72727272727275,319.40277902616396L291.2,303.6944419476721L317.67272727272723,298.4583358301057L344.1454545454545,295.84028277132245L370.61818181818177,293.22221722867755L397.09090909090907,285.3680580523279L423.56363636363636,282.7500049935447L450.0363636363636,287.9861111111111L476.5090909090909,282.7500049935447L502.9818181818182,287.9861111111111L529.4545454545455,287.9861111111111L555.9272727272728,277.51388639211655L582.4,287.9861111111111L608.8727272727273,274.89583333333337L635.3454545454545,272.27778027455014L661.8181818181818,272.27778027455014L688.290909090909,282.7500049935447L714.7636363636364,277.51388639211655L741.2363636363635,272.27778027455014L767.7090909090908,280.1319394508998L794.1818181818181,277.51388639211655L820.6545454545454,285.3680580523279L847.1272727272727,267.041661673122L873.6,264.4236086143387L900.0727272727272,267.041661673122L926.5454545454545,272.27778027455014L953.0181818181818,269.6597272157669L979.4909090909091,277.51388639211655L1005.9636363636364,282.7500049935447L1032.4363636363637,280.1319394508998L1058.909090909091,280.1319394508998L1085.3818181818183,277.51388639211655L1111.8545454545456,274.89583333333337L1138.3272727272729,290.6041641698943L1164.8,280.1319394508998L1191.2727272727273,290.6041641698943L1217.7454545454545,285.3680580523279L1244.2181818181818,282.7500049935447L1270.690909090909,277.51388639211655L1297.1636363636362,280.1319394508998" style="fill: none;" fill="none"></path></g></g></g></g></g></g><g transform="translate(40, 377)" clip-path="url(#clip_1)"><clipPath id="clip_1"><rect width="1456" height="23"></rect></clipPath><g><g><line x1="0" y1="0" x2="0" y2="5" style="visibility: inherit;" fill="rgb(0, 0, 0)" stroke="rgb(204, 204, 204)" stroke-width="1px"></line><line x1="132.36363636363637" y1="0" x2="132.36363636363637" y2="5" style="visibility: inherit;" fill="rgb(0, 0, 0)" stroke="rgb(204, 204, 204)" stroke-width="1px"></line><line x1="264.72727272727275" y1="0" x2="264.72727272727275" y2="5" style="visibility: inherit;" fill="rgb(0, 0, 0)" stroke="rgb(204, 204, 204)" stroke-width="1px"></line><line x1="397.09090909090907" y1="0" x2="397.09090909090907" y2="5" style="visibility: inherit;" fill="rgb(0, 0, 0)" stroke="rgb(204, 204, 204)" stroke-width="1px"></line><line x1="529.4545454545455" y1="0" x2="529.4545454545455" y2="5" style="visibility: inherit;" fill="rgb(0, 0, 0)" stroke="rgb(204, 204, 204)" stroke-width="1px"></line><line x1="661.8181818181818" y1="0" x2="661.8181818181818" y2="5" style="visibility: inherit;" fill="rgb(0, 0, 0)" stroke="rgb(204, 204, 204)" stroke-width="1px"></line><line x1="794.1818181818181" y1="0" x2="794.1818181818181" y2="5" style="visibility: inherit;" fill="rgb(0, 0, 0)" stroke="rgb(204, 204, 204)" stroke-width="1px"></line><line x1="926.5454545454545" y1="0" x2="926.5454545454545" y2="5" style="visibility: inherit;" fill="rgb(0, 0, 0)" stroke="rgb(204, 204, 204)" stroke-width="1px"></line><line x1="1058.909090909091" y1="0" x2="1058.909090909091" y2="5" style="visibility: inherit;" fill="rgb(0, 0, 0)" stroke="rgb(204, 204, 204)" stroke-width="1px"></line><line x1="1191.2727272727273" y1="0" x2="1191.2727272727273" y2="5" style="visibility: inherit;" fill="rgb(0, 0, 0)" stroke="rgb(204, 204, 204)" stroke-width="1px"></line><line x1="1323.6363636363635" y1="0" x2="1323.6363636363635" y2="5" style="visibility: inherit;" fill="rgb(0, 0, 0)" stroke="rgb(204, 204, 204)" stroke-width="1px"></line><line x1="1456" y1="0" x2="1456" y2="5" style="visibility: inherit;" fill="rgb(0, 0, 0)" stroke="rgb(204, 204, 204)" stroke-width="1px"></line></g><g transform="translate(0, 8)"><text x="0" y="0" dx="0em" dy="0.95em" style="text-anchor: middle; visibility: hidden; font-family: Roboto, sans-serif; font-size: 12px; font-weight: 200;" fill="rgb(255, 255, 255)" stroke="none" stroke-width="1px">-5</text><text x="132.36363636363637" y="0" dx="0em" dy="0.95em" style="text-anchor: middle; visibility: inherit; font-family: Roboto, sans-serif; font-size: 12px; font-weight: 200;" fill="rgb(255, 255, 255)" stroke="none" stroke-width="1px">0</text><text x="264.72727272727275" y="0" dx="0em" dy="0.95em" style="text-anchor: middle; visibility: inherit; font-family: Roboto, sans-serif; font-size: 12px; font-weight: 200;" fill="rgb(255, 255, 255)" stroke="none" stroke-width="1px">5</text><text x="397.09090909090907" y="0" dx="0em" dy="0.95em" style="text-anchor: middle; visibility: inherit; font-family: Roboto, sans-serif; font-size: 12px; font-weight: 200;" fill="rgb(255, 255, 255)" stroke="none" stroke-width="1px">10</text><text x="529.4545454545455" y="0" dx="0em" dy="0.95em" style="text-anchor: middle; visibility: inherit; font-family: Roboto, sans-serif; font-size: 12px; font-weight: 200;" fill="rgb(255, 255, 255)" stroke="none" stroke-width="1px">15</text><text x="661.8181818181818" y="0" dx="0em" dy="0.95em" style="text-anchor: middle; visibility: inherit; font-family: Roboto, sans-serif; font-size: 12px; font-weight: 200;" fill="rgb(255, 255, 255)" stroke="none" stroke-width="1px">20</text><text x="794.1818181818181" y="0" dx="0em" dy="0.95em" style="text-anchor: middle; visibility: inherit; font-family: Roboto, sans-serif; font-size: 12px; font-weight: 200;" fill="rgb(255, 255, 255)" stroke="none" stroke-width="1px">25</text><text x="926.5454545454545" y="0" dx="0em" dy="0.95em" style="text-anchor: middle; visibility: inherit; font-family: Roboto, sans-serif; font-size: 12px; font-weight: 200;" fill="rgb(255, 255, 255)" stroke="none" stroke-width="1px">30</text><text x="1058.909090909091" y="0" dx="0em" dy="0.95em" style="text-anchor: middle; visibility: inherit; font-family: Roboto, sans-serif; font-size: 12px; font-weight: 200;" fill="rgb(255, 255, 255)" stroke="none" stroke-width="1px">35</text><text x="1191.2727272727273" y="0" dx="0em" dy="0.95em" style="text-anchor: middle; visibility: inherit; font-family: Roboto, sans-serif; font-size: 12px; font-weight: 200;" fill="rgb(255, 255, 255)" stroke="none" stroke-width="1px">40</text><text x="1323.6363636363635" y="0" dx="0em" dy="0.95em" style="text-anchor: middle; visibility: inherit; font-family: Roboto, sans-serif; font-size: 12px; font-weight: 200;" fill="rgb(255, 255, 255)" stroke="none" stroke-width="1px">45</text><text x="1456" y="0" dx="0em" dy="0.95em" style="text-anchor: middle; visibility: hidden; font-family: Roboto, sans-serif; font-size: 12px; font-weight: 200;" fill="rgb(255, 255, 255)" stroke="none" stroke-width="1px">50</text></g><line x1="0" y1="0" x2="1456" y2="0" fill="rgb(0, 0, 0)" stroke="rgb(204, 204, 204)" stroke-width="1px"></line></g></g></g></g></svg>