<svg viewBox="0 0 1496 400" xmlns="http://www.w3.org/2000/svg"><g><g><g><g><g><line x1="50" y1="377" x2="45" y2="377" style="visibility: inherit;" fill="rgb(0, 0, 0)" stroke="rgb(204, 204, 204)" stroke-width="1px"></line><line x1="50" y1="351.8666666666666" x2="45" y2="351.8666666666666" style="visibility: inherit;" fill="rgb(0, 0, 0)" stroke="rgb(204, 204, 204)" stroke-width="1px"></line><line x1="50" y1="326.7333333333333" x2="45" y2="326.7333333333333" style="visibility: inherit;" fill="rgb(0, 0, 0)" stroke="rgb(204, 204, 204)" stroke-width="1px"></line><line x1="50" y1="301.5999999999999" x2="45" y2="301.5999999999999" style="visibility: inherit;" fill="rgb(0, 0, 0)" stroke="rgb(204, 204, 204)" stroke-width="1px"></line><line x1="50" y1="276.46666666666675" x2="45" y2="276.46666666666675" style="visibility: inherit;" fill="rgb(0, 0, 0)" stroke="rgb(204, 204, 204)" stroke-width="1px"></line><line x1="50" y1="251.33333333333337" x2="45" y2="251.33333333333337" style="visibility: inherit;" fill="rgb(0, 0, 0)" stroke="rgb(204, 204, 204)" stroke-width="1px"></line><line x1="50" y1="226.20000000000005" x2="45" y2="226.20000000000005" style="visibility: inherit;" fill="rgb(0, 0, 0)" stroke="rgb(204, 204, 204)" stroke-width="1px"></line><line x1="50" y1="201.06666666666672" x2="45" y2="201.06666666666672" style="visibility: inherit;" fill="rgb(0, 0, 0)" stroke="rgb(204, 204, 204)" stroke-width="1px"></line><line x1="50" y1="175.93333333333334" x2="45" y2="175.93333333333334" style="visibility: inherit;" fill="rgb(0, 0, 0)" stroke="rgb(204, 204, 204)" stroke-width="1px"></line><line x1="50" y1="150.79999999999995" x2="45" y2="150.79999999999995" style="visibility: inherit;" fill="rgb(0, 0, 0)" stroke="rgb(204, 204, 204)" stroke-width="1px"></line><line x1="50" y1="125.66666666666677" x2="45" y2="125.66666666666677" style="visibility: inherit;" fill="rgb(0, 0, 0)" stroke="rgb(204, 204, 204)" stroke-width="1px"></line><line x1="50" y1="100.53333333333339" x2="45" y2="100.53333333333339" style="visibility: inherit;" fill="rgb(0, 0, 0)" stroke="rgb(204, 204, 204)" stroke-width="1px"></line><line x1="50" y1="75.40000000000006" x2="45" y2="75.40000000000006" style="visibility: inherit;" fill="rgb(0, 0, 0)" stroke="rgb(204, 204, 204)" stroke-width="1px"></line><line x1="50" y1="50.266666666666694" x2="45" y2="50.266666666666694" style="visibility: inherit;" fill="rgb(0, 0, 0)" stroke="rgb(204, 204, 204)" stroke-width="1px"></line><line x1="50" y1="25.13333333333337" x2="45" y2="25.13333333333337" style="visibility: inherit;" fill="rgb(0, 0, 0)" stroke="rgb(204, 204, 204)" stroke-width="1px"></line><line x1="50" y1="0" x2="45" y2="0" style="visibility: inherit;" fill="rgb(0, 0, 0)" stroke="rgb(204, 204, 204)" stroke-width="1px"></line></g><g transform="translate(40, 0)"><text x="0" y="377" dx="0em" dy="0.3em" style="text-anchor: end; visibility: hidden; font-family: Roboto, sans-serif; font-size: 12px; font-weight: 200;" fill="rgb(255, 255, 255)" stroke="none" stroke-width="1px">0.62</text><text x="0" y="351.8666666666666" dx="0em" dy="0.3em" style="text-anchor: end; visibility: inherit; font-family: Roboto, sans-serif; font-size: 12px; font-weight: 200;" fill="rgb(255, 255, 255)" stroke="none" stroke-width="1px">0.64</text><text x="0" y="326.7333333333333" dx="0em" dy="0.3em" style="text-anchor: end; visibility: inherit; font-family: Roboto, sans-serif; font-size: 12px; font-weight: 200;" fill="rgb(255, 255, 255)" stroke="none" stroke-width="1px">0.66</text><text x="0" y="301.5999999999999" dx="0em" dy="0.3em" style="text-anchor: end; visibility: inherit; font-family: Roboto, sans-serif; font-size: 12px; font-weight: 200;" fill="rgb(255, 255, 255)" stroke="none" stroke-width="1px">0.68</text><text x="0" y="276.46666666666675" dx="0em" dy="0.3em" style="text-anchor: end; visibility: inherit; font-family: Roboto, sans-serif; font-size: 12px; font-weight: 200;" fill="rgb(255, 255, 255)" stroke="none" stroke-width="1px">0.7</text><text x="0" y="251.33333333333337" dx="0em" dy="0.3em" style="text-anchor: end; visibility: inherit; font-family: Roboto, sans-serif; font-size: 12px; font-weight: 200;" fill="rgb(255, 255, 255)" stroke="none" stroke-width="1px">0.72</text><text x="0" y="226.20000000000005" dx="0em" dy="0.3em" style="text-anchor: end; visibility: inherit; font-family: Roboto, sans-serif; font-size: 12px; font-weight: 200;" fill="rgb(255, 255, 255)" stroke="none" stroke-width="1px">0.74</text><text x="0" y="201.06666666666672" dx="0em" dy="0.3em" style="text-anchor: end; visibility: inherit; font-family: Roboto, sans-serif; font-size: 12px; font-weight: 200;" fill="rgb(255, 255, 255)" stroke="none" stroke-width="1px">0.76</text><text x="0" y="175.93333333333334" dx="0em" dy="0.3em" style="text-anchor: end; visibility: inherit; font-family: Roboto, sans-serif; font-size: 12px; font-weight: 200;" fill="rgb(255, 255, 255)" stroke="none" stroke-width="1px">0.78</text><text x="0" y="150.79999999999995" dx="0em" dy="0.3em" style="text-anchor: end; visibility: inherit; font-family: Roboto, sans-serif; font-size: 12px; font-weight: 200;" fill="rgb(255, 255, 255)" stroke="none" stroke-width="1px">0.8</text><text x="0" y="125.66666666666677" dx="0em" dy="0.3em" style="text-anchor: end; visibility: inherit; font-family: Roboto, sans-serif; font-size: 12px; font-weight: 200;" fill="rgb(255, 255, 255)" stroke="none" stroke-width="1px">0.82</text><text x="0" y="100.53333333333339" dx="0em" dy="0.3em" style="text-anchor: end; visibility: inherit; font-family: Roboto, sans-serif; font-size: 12px; font-weight: 200;" fill="rgb(255, 255, 255)" stroke="none" stroke-width="1px">0.84</text><text x="0" y="75.40000000000006" dx="0em" dy="0.3em" style="text-anchor: end; visibility: inherit; font-family: Roboto, sans-serif; font-size: 12px; font-weight: 200;" fill="rgb(255, 255, 255)" stroke="none" stroke-width="1px">0.86</text><text x="0" y="50.266666666666694" dx="0em" dy="0.3em" style="text-anchor: end; visibility: inherit; font-family: Roboto, sans-serif; font-size: 12px; font-weight: 200;" fill="rgb(255, 255, 255)" stroke="none" stroke-width="1px">0.88</text><text x="0" y="25.13333333333337" dx="0em" dy="0.3em" style="text-anchor: end; visibility: inherit; font-family: Roboto, sans-serif; font-size: 12px; font-weight: 200;" fill="rgb(255, 255, 255)" stroke="none" stroke-width="1px">0.9</text><text x="0" y="0" dx="0em" dy="0.3em" style="text-anchor: end; visibility: hidden; font-family: Roboto, sans-serif; font-size: 12px; font-weight: 200;" fill="rgb(255, 255, 255)" stroke="none" stroke-width="1px">0.92</text></g><line x1="50" y1="0" x2="50" y2="377" fill="rgb(0, 0, 0)" stroke="rgb(204, 204, 204)" stroke-width="1px"></line></g></g><g transform="translate(50, 0)" clip-path="url(#clip_0)"><clipPath id="clip_0"><rect width="1446" height="377"></rect></clipPath><g><g><g><line x1="0" y1="0" x2="0" y2="377" fill="rgb(0, 0, 0)" stroke="rgb(189, 189, 189)" stroke-width="1px" opacity="0.25"></line><line x1="131.45454545454547" y1="0" x2="131.45454545454547" y2="377" fill="rgb(0, 0, 0)" stroke="rgb(189, 189, 189)" stroke-width="1px" opacity="0.25"></line><line x1="262.90909090909093" y1="0" x2="262.90909090909093" y2="377" fill="rgb(0, 0, 0)" stroke="rgb(189, 189, 189)" stroke-width="1px" opacity="0.25"></line><line x1="394.3636363636363" y1="0" x2="394.3636363636363" y2="377" fill="rgb(0, 0, 0)" stroke="rgb(189, 189, 189)" stroke-width="1px" opacity="0.25"></line><line x1="525.8181818181819" y1="0" x2="525.8181818181819" y2="377" fill="rgb(0, 0, 0)" stroke="rgb(189, 189, 189)" stroke-width="1px" opacity="0.25"></line><line x1="657.2727272727273" y1="0" x2="657.2727272727273" y2="377" fill="rgb(0, 0, 0)" stroke="rgb(189, 189, 189)" stroke-width="1px" opacity="0.25"></line><line x1="788.7272727272726" y1="0" x2="788.7272727272726" y2="377" fill="rgb(0, 0, 0)" stroke="rgb(189, 189, 189)" stroke-width="1px" opacity="0.25"></line><line x1="920.1818181818181" y1="0" x2="920.1818181818181" y2="377" fill="rgb(0, 0, 0)" stroke="rgb(189, 189, 189)" stroke-width="1px" opacity="0.25"></line><line x1="1051.6363636363637" y1="0" x2="1051.6363636363637" y2="377" fill="rgb(0, 0, 0)" stroke="rgb(189, 189, 189)" stroke-width="1px" opacity="0.25"></line><line x1="1183.0909090909092" y1="0" x2="1183.0909090909092" y2="377" fill="rgb(0, 0, 0)" stroke="rgb(189, 189, 189)" stroke-width="1px" opacity="0.25"></line><line x1="1314.5454545454545" y1="0" x2="1314.5454545454545" y2="377" fill="rgb(0, 0, 0)" stroke="rgb(189, 189, 189)" stroke-width="1px" opacity="0.25"></line><line x1="1446" y1="0" x2="1446" y2="377" fill="rgb(0, 0, 0)" stroke="rgb(189, 189, 189)" stroke-width="1px" opacity="0.25"></line></g><g><line x1="0" y1="377" x2="1446" y2="377" fill="rgb(0, 0, 0)" stroke="rgb(189, 189, 189)" stroke-width="1px" opacity="0.25"></line><line x1="0" y1="351.8666666666666" x2="1446" y2="351.8666666666666" fill="rgb(0, 0, 0)" stroke="rgb(189, 189, 189)" stroke-width="1px" opacity="0.25"></line><line x1="0" y1="326.7333333333333" x2="1446" y2="326.7333333333333" fill="rgb(0, 0, 0)" stroke="rgb(189, 189, 189)" stroke-width="1px" opacity="0.25"></line><line x1="0" y1="301.5999999999999" x2="1446" y2="301.5999999999999" fill="rgb(0, 0, 0)" stroke="rgb(189, 189, 189)" stroke-width="1px" opacity="0.25"></line><line x1="0" y1="276.46666666666675" x2="1446" y2="276.46666666666675" fill="rgb(0, 0, 0)" stroke="rgb(189, 189, 189)" stroke-width="1px" opacity="0.25"></line><line x1="0" y1="251.33333333333337" x2="1446" y2="251.33333333333337" fill="rgb(0, 0, 0)" stroke="rgb(189, 189, 189)" stroke-width="1px" opacity="0.25"></line><line x1="0" y1="226.20000000000005" x2="1446" y2="226.20000000000005" fill="rgb(0, 0, 0)" stroke="rgb(189, 189, 189)" stroke-width="1px" opacity="0.25"></line><line x1="0" y1="201.06666666666672" x2="1446" y2="201.06666666666672" fill="rgb(0, 0, 0)" stroke="rgb(189, 189, 189)" stroke-width="1px" opacity="0.25"></line><line x1="0" y1="175.93333333333334" x2="1446" y2="175.93333333333334" fill="rgb(0, 0, 0)" stroke="rgb(189, 189, 189)" stroke-width="1px" opacity="0.25"></line><line x1="0" y1="150.79999999999995" x2="1446" y2="150.79999999999995" fill="rgb(0, 0, 0)" stroke="rgb(189, 189, 189)" stroke-width="1px" opacity="0.25"></line><line x1="0" y1="125.66666666666677" x2="1446" y2="125.66666666666677" fill="rgb(0, 0, 0)" stroke="rgb(189, 189, 189)" stroke-width="1px" opacity="0.25"></line><line x1="0" y1="100.53333333333339" x2="1446" y2="100.53333333333339" fill="rgb(0, 0, 0)" stroke="rgb(189, 189, 189)" stroke-width="1px" opacity="0.25"></line><line x1="0" y1="75.40000000000006" x2="1446" y2="75.40000000000006" fill="rgb(0, 0, 0)" stroke="rgb(189, 189, 189)" stroke-width="1px" opacity="0.25"></line><line x1="0" y1="50.266666666666694" x2="1446" y2="50.266666666666694" fill="rgb(0, 0, 0)" stroke="rgb(189, 189, 189)" stroke-width="1px" opacity="0.25"></line><line x1="0" y1="25.13333333333337" x2="1446" y2="25.13333333333337" fill="rgb(0, 0, 0)" stroke="rgb(189, 189, 189)" stroke-width="1px" opacity="0.25"></line><line x1="0" y1="0" x2="1446" y2="0" fill="rgb(0, 0, 0)" stroke="rgb(189, 189, 189)" stroke-width="1px" opacity="0.25"></line></g></g></g><g><g><line x1="0" y1="1156.1333333333332" x2="1446" y2="1156.1333333333332" fill="rgb(0, 0, 0)" stroke="rgb(153, 153, 153)" stroke-width="1.5px"></line></g></g><g><g><line x1="131.45454545454547" y1="0" x2="131.45454545454547" y2="377" fill="rgb(0, 0, 0)" stroke="rgb(153, 153, 153)" stroke-width="1.5px"></line></g></g><g><g><g><g><g><path style="fill: none;" stroke="rgb(0, 119, 187)" stroke-width="2px" d="M157.74545454545455,480.6749700387319L184.0363636363636,355.00834831396736L210.3272727272727,205.7791367053986L236.61818181818182,229.3416516860326L262.90909090909093,127.23747003873193L289.2,197.92501498063405L315.4909090909091,103.67502996126812L341.78181818181815,111.52915168603265L368.0727272727272,142.94586329460145L394.3636363636363,111.52915168603265L420.6545454545454,111.52915168603265L446.94545454545454,260.75836329460145L473.23636363636365,103.67502996126812L499.52727272727276,72.25831835269933L525.8181818181819,103.67502996126812L552.1090909090909,64.40419662793481L578.4,142.94586329460145L604.690909090909,119.3833483139674L630.9818181818182,80.11251498063409L657.2727272727273,127.23747003873193L683.5636363636363,111.52915168603265L709.8545454545455,80.11251498063409L736.1454545454544,72.25831835269933L762.4363636363636,72.25831835269933L788.7272727272726,72.25831835269933L815.0181818181818,95.82083333333337L841.3090909090909,72.25831835269933L867.6,95.82083333333337L893.8909090909091,87.96663670539861L920.1818181818181,80.11251498063409L946.4727272727273,80.11251498063409L972.7636363636364,87.96663670539861L999.0545454545455,87.96663670539861L1025.3454545454545,87.96663670539861L1051.6363636363637,87.96663670539861L1077.9272727272728,87.96663670539861L1104.2181818181818,87.96663670539861L1130.509090909091,87.96663670539861L1156.8,87.96663670539861L1183.0909090909092,87.96663670539861L1209.381818181818,87.96663670539861L1235.6727272727271,87.96663670539861L1261.9636363636364,87.96663670539861L1288.2545454545455,87.96663670539861" fill="none"></path></g><g><path style="fill: none;" stroke="rgb(187, 187, 187)" stroke-width="2px" d="M184.0363636363636,417.84169662793477L210.3272727272727,268.612485019366L236.61818181818182,245.04997003873189L262.90909090909093,174.3625L289.2,174.3625L315.4909090909091,142.94586329460145L341.78181818181815,95.82083333333337L368.0727272727272,119.3833483139674L394.3636363636363,80.11251498063409L420.6545454545454,95.82083333333337L446.94545454545454,135.0916666666667L473.23636363636365,56.55000000000005L499.52727272727276,87.96663670539861L525.8181818181819,87.96663670539861L552.1090909090909,72.25831835269933L578.4,32.98748501936601L604.690909090909,80.11251498063409L630.9818181818182,135.0916666666667L657.2727272727273,111.52915168603265L683.5636363636363,72.25831835269933L709.8545454545455,48.69580337206525L736.1454545454544,48.69580337206525L762.4363636363636,64.40419662793481L788.7272727272726,64.40419662793481L815.0181818181818,48.69580337206525L841.3090909090909,56.55000000000005L867.6,56.55000000000005L893.8909090909091,56.55000000000005L920.1818181818181,56.55000000000005L946.4727272727273,56.55000000000005L972.7636363636364,56.55000000000005L999.0545454545455,56.55000000000005L1025.3454545454545,56.55000000000005L1051.6363636363637,56.55000000000005L1077.9272727272728,56.55000000000005L1104.2181818181818,56.55000000000005L1130.509090909091,56.55000000000005L1156.8,56.55000000000005L1183.0909090909092,56.55000000000005L1209.381818181818,56.55000000000005L1235.6727272727271,56.55000000000005L1261.9636363636364,56.55000000000005L1288.2545454545455,56.55000000000005" fill="none"></path></g><g><path style="fill: none;" stroke="rgb(238, 51, 119)" stroke-width="2px" d="M184.0363636363636,488.5291666666667L210.3272727272727,347.1541516860326L236.61818181818182,237.19584831396742L262.90909090909093,237.19584831396742L289.2,237.19584831396742L315.4909090909091,166.50830337206526L341.78181818181815,111.52915168603265L368.0727272727272,87.96663670539861L394.3636363636363,142.94586329460145L420.6545454545454,150.79998501936598L446.94545454545454,119.3833483139674L473.23636363636365,87.96663670539861L499.52727272727276,87.96663670539861L525.8181818181819,64.40419662793481L552.1090909090909,64.40419662793481L578.4,80.11251498063409L604.690909090909,56.55000000000005L630.9818181818182,72.25831835269933L657.2727272727273,40.84168164730077L683.5636363636363,64.40419662793481L709.8545454545455,119.3833483139674L736.1454545454544,72.25831835269933L762.4363636363636,56.55000000000005L788.7272727272726,135.0916666666667L815.0181818181818,80.11251498063409L841.3090909090909,56.55000000000005L867.6,80.11251498063409L893.8909090909091,48.69580337206525L920.1818181818181,40.84168164730077L946.4727272727273,40.84168164730077L972.7636363636364,32.98748501936601L999.0545454545455,32.98748501936601L1025.3454545454545,40.84168164730077L1051.6363636363637,48.69580337206525L1077.9272727272728,32.98748501936601L1104.2181818181818,32.98748501936601L1130.509090909091,64.40419662793481L1156.8,25.13336329460149L1183.0909090909092,40.84168164730077L1209.381818181818,32.98748501936601L1235.6727272727271,40.84168164730077L1261.9636363636364,32.98748501936601L1288.2545454545455,32.98748501936601" fill="none"></path></g><g><path style="fill: none;" stroke="rgb(204, 51, 17)" stroke-width="2px" d="M210.3272727272727,449.2583333333333L236.61818181818182,370.71666666666664L262.90909090909093,315.73751498063405L289.2,331.4458333333333L315.4909090909091,260.75836329460145L341.78181818181815,276.46668164730073L368.0727272727272,307.8833183526993L394.3636363636363,229.3416516860326L420.6545454545454,229.3416516860326L446.94545454545454,284.32080337206526L473.23636363636365,221.48752996126814L499.52727272727276,213.63333333333333L525.8181818181819,229.3416516860326L552.1090909090909,182.21669662793482L578.4,205.7791367053986L604.690909090909,205.7791367053986L630.9818181818182,166.50830337206526L657.2727272727273,190.07081835269932L683.5636363636363,158.65418164730073L709.8545454545455,190.07081835269932L736.1454545454544,158.65418164730073L762.4363636363636,174.3625L788.7272727272726,205.7791367053986L815.0181818181818,174.3625L841.3090909090909,174.3625L867.6,150.79998501936598L893.8909090909091,174.3625L920.1818181818181,190.07081835269932L946.4727272727273,166.50830337206526L972.7636363636364,127.23747003873193L999.0545454545455,174.3625L1025.3454545454545,135.0916666666667L1051.6363636363637,174.3625L1077.9272727272728,142.94586329460145L1104.2181818181818,127.23747003873193L1130.509090909091,150.79998501936598L1156.8,166.50830337206526L1183.0909090909092,135.0916666666667L1209.381818181818,142.94586329460145L1235.6727272727271,182.21669662793482L1261.9636363636364,142.94586329460145L1288.2545454545455,166.50830337206526" fill="none"></path></g><g><path style="fill: none;" stroke="rgb(255, 112, 67)" stroke-width="2px" d="M131.45454545454547,488.5291666666667L157.74545454545455,331.4458333333333L184.0363636363636,221.48752996126814L210.3272727272727,119.3833483139674L236.61818181818182,127.23747003873193L262.90909090909093,87.96663670539861L289.2,103.67502996126812L315.4909090909091,72.25831835269933L341.78181818181815,48.69580337206525L368.0727272727272,127.23747003873193L394.3636363636363,87.96663670539861L420.6545454545454,72.25831835269933L446.94545454545454,64.40419662793481L473.23636363636365,48.69580337206525L499.52727272727276,103.67502996126812L525.8181818181819,87.96663670539861L552.1090909090909,80.11251498063409L578.4,87.96663670539861L604.690909090909,95.82083333333337L630.9818181818182,56.55000000000005L657.2727272727273,64.40419662793481L683.5636363636363,56.55000000000005L709.8545454545455,48.69580337206525L736.1454545454544,56.55000000000005L762.4363636363636,40.84168164730077L788.7272727272726,40.84168164730077L815.0181818181818,32.98748501936601L841.3090909090909,40.84168164730077L867.6,40.84168164730077L893.8909090909091,40.84168164730077L920.1818181818181,40.84168164730077L946.4727272727273,40.84168164730077L972.7636363636364,40.84168164730077L999.0545454545455,40.84168164730077L1025.3454545454545,40.84168164730077L1051.6363636363637,40.84168164730077L1077.9272727272728,32.98748501936601L1104.2181818181818,40.84168164730077L1130.509090909091,40.84168164730077L1156.8,40.84168164730077L1183.0909090909092,32.98748501936601L1209.381818181818,40.84168164730077L1235.6727272727271,40.84168164730077L1261.9636363636364,40.84168164730077L1288.2545454545455,40.84168164730077" fill="none"></path></g><g><path style="fill: none;" stroke="rgb(0, 153, 136)" stroke-width="2px" d="M131.45454545454547,606.3416666666667L157.74545454545455,339.30002996126814L184.0363636363636,197.92501498063405L210.3272727272727,127.23747003873193L236.61818181818182,150.79998501936598L262.90909090909093,127.23747003873193L289.2,64.40419662793481L315.4909090909091,40.84168164730077L341.78181818181815,48.69580337206525L368.0727272727272,56.55000000000005L394.3636363636363,72.25831835269933L420.6545454545454,32.98748501936601L446.94545454545454,40.84168164730077L473.23636363636365,56.55000000000005L499.52727272727276,48.69580337206525L525.8181818181819,40.84168164730077L552.1090909090909,25.13336329460149L578.4,25.13336329460149L604.690909090909,25.13336329460149L630.9818181818182,32.98748501936601L657.2727272727273,40.84168164730077L683.5636363636363,48.69580337206525L709.8545454545455,40.84168164730077L736.1454545454544,40.84168164730077L762.4363636363636,48.69580337206525L788.7272727272726,48.69580337206525L815.0181818181818,40.84168164730077L841.3090909090909,48.69580337206525L867.6,56.55000000000005L893.8909090909091,40.84168164730077L920.1818181818181,40.84168164730077L946.4727272727273,48.69580337206525L972.7636363636364,40.84168164730077L999.0545454545455,56.55000000000005L1025.3454545454545,56.55000000000005L1051.6363636363637,40.84168164730077L1077.9272727272728,48.69580337206525L1104.2181818181818,48.69580337206525L1130.509090909091,40.84168164730077L1156.8,48.69580337206525L1183.0909090909092,40.84168164730077L1209.381818181818,48.69580337206525L1235.6727272727271,40.84168164730077L1261.9636363636364,40.84168164730077L1288.2545454545455,48.69580337206525" fill="none"></path></g><g><path style="fill: none;" stroke="rgb(51, 187, 238)" stroke-width="2px" d="M131.45454545454547,488.5291666666667L157.74545454545455,331.4458333333333L184.0363636363636,276.46668164730073L210.3272727272727,205.7791367053986L236.61818181818182,221.48752996126814L262.90909090909093,127.23747003873193L289.2,127.23747003873193L315.4909090909091,95.82083333333337L341.78181818181815,87.96663670539861L368.0727272727272,119.3833483139674L394.3636363636363,64.40419662793481L420.6545454545454,72.25831835269933L446.94545454545454,48.69580337206525L473.23636363636365,40.84168164730077L499.52727272727276,87.96663670539861L525.8181818181819,56.55000000000005L552.1090909090909,48.69580337206525L578.4,48.69580337206525L604.690909090909,87.96663670539861L630.9818181818182,80.11251498063409L657.2727272727273,56.55000000000005L683.5636363636363,56.55000000000005L709.8545454545455,40.84168164730077L736.1454545454544,48.69580337206525L762.4363636363636,40.84168164730077L788.7272727272726,40.84168164730077L815.0181818181818,25.13336329460149L841.3090909090909,25.13336329460149L867.6,32.98748501936601L893.8909090909091,32.98748501936601L920.1818181818181,25.13336329460149L946.4727272727273,32.98748501936601L972.7636363636364,25.13336329460149L999.0545454545455,32.98748501936601L1025.3454545454545,32.98748501936601L1051.6363636363637,32.98748501936601L1077.9272727272728,32.98748501936601L1104.2181818181818,32.98748501936601L1130.509090909091,32.98748501936601L1156.8,32.98748501936601L1183.0909090909092,48.69580337206525L1209.381818181818,40.84168164730077L1235.6727272727271,48.69580337206525L1261.9636363636364,48.69580337206525L1288.2545454545455,48.69580337206525" fill="none"></path></g><g><path style="fill: none;" stroke="rgb(0, 119, 187)" stroke-width="2px" d="M157.74545454545455,394.2791816473007L184.0363636363636,347.1541516860326L210.3272727272727,213.63333333333333L236.61818181818182,229.3416516860326L262.90909090909093,190.07081835269932L289.2,213.63333333333333L315.4909090909091,87.96663670539861L341.78181818181815,111.52915168603265L368.0727272727272,95.82083333333337L394.3636363636363,72.25831835269933L420.6545454545454,80.11251498063409L446.94545454545454,72.25831835269933L473.23636363636365,40.84168164730077L499.52727272727276,48.69580337206525L525.8181818181819,80.11251498063409L552.1090909090909,32.98748501936601L578.4,32.98748501936601L604.690909090909,80.11251498063409L630.9818181818182,56.55000000000005L657.2727272727273,87.96663670539861L683.5636363636363,95.82083333333337L709.8545454545455,40.84168164730077L736.1454545454544,48.69580337206525L762.4363636363636,56.55000000000005L788.7272727272726,87.96663670539861L815.0181818181818,40.84168164730077L841.3090909090909,64.40419662793481L867.6,40.84168164730077L893.8909090909091,56.55000000000005L920.1818181818181,80.11251498063409L946.4727272727273,64.40419662793481L972.7636363636364,64.40419662793481L999.0545454545455,56.55000000000005L1025.3454545454545,64.40419662793481L1051.6363636363637,80.11251498063409L1077.9272727272728,56.55000000000005L1104.2181818181818,80.11251498063409L1130.509090909091,80.11251498063409L1156.8,64.40419662793481L1183.0909090909092,56.55000000000005L1209.381818181818,64.40419662793481L1235.6727272727271,72.25831835269933L1261.9636363636364,64.40419662793481L1288.2545454545455,72.25831835269933" fill="none"></path></g></g></g></g></g></g><g transform="translate(50, 377)" clip-path="url(#clip_1)"><clipPath id="clip_1"><rect width="1446" height="23"></rect></clipPath><g><g><line x1="0" y1="0" x2="0" y2="5" style="visibility: inherit;" fill="rgb(0, 0, 0)" stroke="rgb(204, 204, 204)" stroke-width="1px"></line><line x1="131.45454545454547" y1="0" x2="131.45454545454547" y2="5" style="visibility: inherit;" fill="rgb(0, 0, 0)" stroke="rgb(204, 204, 204)" stroke-width="1px"></line><line x1="262.90909090909093" y1="0" x2="262.90909090909093" y2="5" style="visibility: inherit;" fill="rgb(0, 0, 0)" stroke="rgb(204, 204, 204)" stroke-width="1px"></line><line x1="394.3636363636363" y1="0" x2="394.3636363636363" y2="5" style="visibility: inherit;" fill="rgb(0, 0, 0)" stroke="rgb(204, 204, 204)" stroke-width="1px"></line><line x1="525.8181818181819" y1="0" x2="525.8181818181819" y2="5" style="visibility: inherit;" fill="rgb(0, 0, 0)" stroke="rgb(204, 204, 204)" stroke-width="1px"></line><line x1="657.2727272727273" y1="0" x2="657.2727272727273" y2="5" style="visibility: inherit;" fill="rgb(0, 0, 0)" stroke="rgb(204, 204, 204)" stroke-width="1px"></line><line x1="788.7272727272726" y1="0" x2="788.7272727272726" y2="5" style="visibility: inherit;" fill="rgb(0, 0, 0)" stroke="rgb(204, 204, 204)" stroke-width="1px"></line><line x1="920.1818181818181" y1="0" x2="920.1818181818181" y2="5" style="visibility: inherit;" fill="rgb(0, 0, 0)" stroke="rgb(204, 204, 204)" stroke-width="1px"></line><line x1="1051.6363636363637" y1="0" x2="1051.6363636363637" y2="5" style="visibility: inherit;" fill="rgb(0, 0, 0)" stroke="rgb(204, 204, 204)" stroke-width="1px"></line><line x1="1183.0909090909092" y1="0" x2="1183.0909090909092" y2="5" style="visibility: inherit;" fill="rgb(0, 0, 0)" stroke="rgb(204, 204, 204)" stroke-width="1px"></line><line x1="1314.5454545454545" y1="0" x2="1314.5454545454545" y2="5" style="visibility: inherit;" fill="rgb(0, 0, 0)" stroke="rgb(204, 204, 204)" stroke-width="1px"></line><line x1="1446" y1="0" x2="1446" y2="5" style="visibility: inherit;" fill="rgb(0, 0, 0)" stroke="rgb(204, 204, 204)" stroke-width="1px"></line></g><g transform="translate(0, 8)"><text x="0" y="0" dx="0em" dy="0.95em" style="text-anchor: middle; visibility: hidden; font-family: Roboto, sans-serif; font-size: 12px; font-weight: 200;" fill="rgb(255, 255, 255)" stroke="none" stroke-width="1px">-5</text><text x="131.45454545454547" y="0" dx="0em" dy="0.95em" style="text-anchor: middle; visibility: inherit; font-family: Roboto, sans-serif; font-size: 12px; font-weight: 200;" fill="rgb(255, 255, 255)" stroke="none" stroke-width="1px">0</text><text x="262.90909090909093" y="0" dx="0em" dy="0.95em" style="text-anchor: middle; visibility: inherit; font-family: Roboto, sans-serif; font-size: 12px; font-weight: 200;" fill="rgb(255, 255, 255)" stroke="none" stroke-width="1px">5</text><text x="394.3636363636363" y="0" dx="0em" dy="0.95em" style="text-anchor: middle; visibility: inherit; font-family: Roboto, sans-serif; font-size: 12px; font-weight: 200;" fill="rgb(255, 255, 255)" stroke="none" stroke-width="1px">10</text><text x="525.8181818181819" y="0" dx="0em" dy="0.95em" style="text-anchor: middle; visibility: inherit; font-family: Roboto, sans-serif; font-size: 12px; font-weight: 200;" fill="rgb(255, 255, 255)" stroke="none" stroke-width="1px">15</text><text x="657.2727272727273" y="0" dx="0em" dy="0.95em" style="text-anchor: middle; visibility: inherit; font-family: Roboto, sans-serif; font-size: 12px; font-weight: 200;" fill="rgb(255, 255, 255)" stroke="none" stroke-width="1px">20</text><text x="788.7272727272726" y="0" dx="0em" dy="0.95em" style="text-anchor: middle; visibility: inherit; font-family: Roboto, sans-serif; font-size: 12px; font-weight: 200;" fill="rgb(255, 255, 255)" stroke="none" stroke-width="1px">25</text><text x="920.1818181818181" y="0" dx="0em" dy="0.95em" style="text-anchor: middle; visibility: inherit; font-family: Roboto, sans-serif; font-size: 12px; font-weight: 200;" fill="rgb(255, 255, 255)" stroke="none" stroke-width="1px">30</text><text x="1051.6363636363637" y="0" dx="0em" dy="0.95em" style="text-anchor: middle; visibility: inherit; font-family: Roboto, sans-serif; font-size: 12px; font-weight: 200;" fill="rgb(255, 255, 255)" stroke="none" stroke-width="1px">35</text><text x="1183.0909090909092" y="0" dx="0em" dy="0.95em" style="text-anchor: middle; visibility: inherit; font-family: Roboto, sans-serif; font-size: 12px; font-weight: 200;" fill="rgb(255, 255, 255)" stroke="none" stroke-width="1px">40</text><text x="1314.5454545454545" y="0" dx="0em" dy="0.95em" style="text-anchor: middle; visibility: inherit; font-family: Roboto, sans-serif; font-size: 12px; font-weight: 200;" fill="rgb(255, 255, 255)" stroke="none" stroke-width="1px">45</text><text x="1446" y="0" dx="0em" dy="0.95em" style="text-anchor: middle; visibility: hidden; font-family: Roboto, sans-serif; font-size: 12px; font-weight: 200;" fill="rgb(255, 255, 255)" stroke="none" stroke-width="1px">50</text></g><line x1="0" y1="0" x2="1446" y2="0" fill="rgb(0, 0, 0)" stroke="rgb(204, 204, 204)" stroke-width="1px"></line></g></g></g></g></svg>