<svg viewBox="0 0 1496 400" xmlns="http://www.w3.org/2000/svg"><g><g><g><g><g><line x1="50" y1="377" x2="45" y2="377" style="visibility: inherit;" fill="rgb(0, 0, 0)" stroke="rgb(204, 204, 204)" stroke-width="1px"></line><line x1="50" y1="329.87499999999994" x2="45" y2="329.87499999999994" style="visibility: inherit;" fill="rgb(0, 0, 0)" stroke="rgb(204, 204, 204)" stroke-width="1px"></line><line x1="50" y1="282.75" x2="45" y2="282.75" style="visibility: inherit;" fill="rgb(0, 0, 0)" stroke="rgb(204, 204, 204)" stroke-width="1px"></line><line x1="50" y1="235.625" x2="45" y2="235.625" style="visibility: inherit;" fill="rgb(0, 0, 0)" stroke="rgb(204, 204, 204)" stroke-width="1px"></line><line x1="50" y1="188.50000000000003" x2="45" y2="188.50000000000003" style="visibility: inherit;" fill="rgb(0, 0, 0)" stroke="rgb(204, 204, 204)" stroke-width="1px"></line><line x1="50" y1="141.375" x2="45" y2="141.375" style="visibility: inherit;" fill="rgb(0, 0, 0)" stroke="rgb(204, 204, 204)" stroke-width="1px"></line><line x1="50" y1="94.24999999999996" x2="45" y2="94.24999999999996" style="visibility: inherit;" fill="rgb(0, 0, 0)" stroke="rgb(204, 204, 204)" stroke-width="1px"></line><line x1="50" y1="47.12500000000004" x2="45" y2="47.12500000000004" style="visibility: inherit;" fill="rgb(0, 0, 0)" stroke="rgb(204, 204, 204)" stroke-width="1px"></line><line x1="50" y1="0" x2="45" y2="0" style="visibility: inherit;" fill="rgb(0, 0, 0)" stroke="rgb(204, 204, 204)" stroke-width="1px"></line></g><g transform="translate(40, 0)"><text x="0" y="377" dx="0em" dy="0.3em" style="text-anchor: end; visibility: hidden; font-family: Roboto, sans-serif; font-size: 12px; font-weight: 200;" fill="rgb(255, 255, 255)" stroke="none" stroke-width="1px">0.5</text><text x="0" y="329.87499999999994" dx="0em" dy="0.3em" style="text-anchor: end; visibility: inherit; font-family: Roboto, sans-serif; font-size: 12px; font-weight: 200;" fill="rgb(255, 255, 255)" stroke="none" stroke-width="1px">0.55</text><text x="0" y="282.75" dx="0em" dy="0.3em" style="text-anchor: end; visibility: inherit; font-family: Roboto, sans-serif; font-size: 12px; font-weight: 200;" fill="rgb(255, 255, 255)" stroke="none" stroke-width="1px">0.6</text><text x="0" y="235.625" dx="0em" dy="0.3em" style="text-anchor: end; visibility: inherit; font-family: Roboto, sans-serif; font-size: 12px; font-weight: 200;" fill="rgb(255, 255, 255)" stroke="none" stroke-width="1px">0.65</text><text x="0" y="188.50000000000003" dx="0em" dy="0.3em" style="text-anchor: end; visibility: inherit; font-family: Roboto, sans-serif; font-size: 12px; font-weight: 200;" fill="rgb(255, 255, 255)" stroke="none" stroke-width="1px">0.7</text><text x="0" y="141.375" dx="0em" dy="0.3em" style="text-anchor: end; visibility: inherit; font-family: Roboto, sans-serif; font-size: 12px; font-weight: 200;" fill="rgb(255, 255, 255)" stroke="none" stroke-width="1px">0.75</text><text x="0" y="94.24999999999996" dx="0em" dy="0.3em" style="text-anchor: end; visibility: inherit; font-family: Roboto, sans-serif; font-size: 12px; font-weight: 200;" fill="rgb(255, 255, 255)" stroke="none" stroke-width="1px">0.8</text><text x="0" y="47.12500000000004" dx="0em" dy="0.3em" style="text-anchor: end; visibility: inherit; font-family: Roboto, sans-serif; font-size: 12px; font-weight: 200;" fill="rgb(255, 255, 255)" stroke="none" stroke-width="1px">0.85</text><text x="0" y="0" dx="0em" dy="0.3em" style="text-anchor: end; visibility: hidden; font-family: Roboto, sans-serif; font-size: 12px; font-weight: 200;" fill="rgb(255, 255, 255)" stroke="none" stroke-width="1px">0.9</text></g><line x1="50" y1="0" x2="50" y2="377" fill="rgb(0, 0, 0)" stroke="rgb(204, 204, 204)" stroke-width="1px"></line></g></g><g transform="translate(50, 0)" clip-path="url(#clip_0)"><clipPath id="clip_0"><rect width="1446" height="377"></rect></clipPath><g><g><g><line x1="0" y1="0" x2="0" y2="377" fill="rgb(0, 0, 0)" stroke="rgb(189, 189, 189)" stroke-width="1px" opacity="0.25"></line><line x1="120.5" y1="0" x2="120.5" y2="377" fill="rgb(0, 0, 0)" stroke="rgb(189, 189, 189)" stroke-width="1px" opacity="0.25"></line><line x1="241" y1="0" x2="241" y2="377" fill="rgb(0, 0, 0)" stroke="rgb(189, 189, 189)" stroke-width="1px" opacity="0.25"></line><line x1="361.5" y1="0" x2="361.5" y2="377" fill="rgb(0, 0, 0)" stroke="rgb(189, 189, 189)" stroke-width="1px" opacity="0.25"></line><line x1="482" y1="0" x2="482" y2="377" fill="rgb(0, 0, 0)" stroke="rgb(189, 189, 189)" stroke-width="1px" opacity="0.25"></line><line x1="602.5" y1="0" x2="602.5" y2="377" fill="rgb(0, 0, 0)" stroke="rgb(189, 189, 189)" stroke-width="1px" opacity="0.25"></line><line x1="723" y1="0" x2="723" y2="377" fill="rgb(0, 0, 0)" stroke="rgb(189, 189, 189)" stroke-width="1px" opacity="0.25"></line><line x1="843.5" y1="0" x2="843.5" y2="377" fill="rgb(0, 0, 0)" stroke="rgb(189, 189, 189)" stroke-width="1px" opacity="0.25"></line><line x1="964" y1="0" x2="964" y2="377" fill="rgb(0, 0, 0)" stroke="rgb(189, 189, 189)" stroke-width="1px" opacity="0.25"></line><line x1="1084.5" y1="0" x2="1084.5" y2="377" fill="rgb(0, 0, 0)" stroke="rgb(189, 189, 189)" stroke-width="1px" opacity="0.25"></line><line x1="1205" y1="0" x2="1205" y2="377" fill="rgb(0, 0, 0)" stroke="rgb(189, 189, 189)" stroke-width="1px" opacity="0.25"></line><line x1="1325.5" y1="0" x2="1325.5" y2="377" fill="rgb(0, 0, 0)" stroke="rgb(189, 189, 189)" stroke-width="1px" opacity="0.25"></line><line x1="1446" y1="0" x2="1446" y2="377" fill="rgb(0, 0, 0)" stroke="rgb(189, 189, 189)" stroke-width="1px" opacity="0.25"></line></g><g><line x1="0" y1="377" x2="1446" y2="377" fill="rgb(0, 0, 0)" stroke="rgb(189, 189, 189)" stroke-width="1px" opacity="0.25"></line><line x1="0" y1="329.87499999999994" x2="1446" y2="329.87499999999994" fill="rgb(0, 0, 0)" stroke="rgb(189, 189, 189)" stroke-width="1px" opacity="0.25"></line><line x1="0" y1="282.75" x2="1446" y2="282.75" fill="rgb(0, 0, 0)" stroke="rgb(189, 189, 189)" stroke-width="1px" opacity="0.25"></line><line x1="0" y1="235.625" x2="1446" y2="235.625" fill="rgb(0, 0, 0)" stroke="rgb(189, 189, 189)" stroke-width="1px" opacity="0.25"></line><line x1="0" y1="188.50000000000003" x2="1446" y2="188.50000000000003" fill="rgb(0, 0, 0)" stroke="rgb(189, 189, 189)" stroke-width="1px" opacity="0.25"></line><line x1="0" y1="141.375" x2="1446" y2="141.375" fill="rgb(0, 0, 0)" stroke="rgb(189, 189, 189)" stroke-width="1px" opacity="0.25"></line><line x1="0" y1="94.24999999999996" x2="1446" y2="94.24999999999996" fill="rgb(0, 0, 0)" stroke="rgb(189, 189, 189)" stroke-width="1px" opacity="0.25"></line><line x1="0" y1="47.12500000000004" x2="1446" y2="47.12500000000004" fill="rgb(0, 0, 0)" stroke="rgb(189, 189, 189)" stroke-width="1px" opacity="0.25"></line><line x1="0" y1="0" x2="1446" y2="0" fill="rgb(0, 0, 0)" stroke="rgb(189, 189, 189)" stroke-width="1px" opacity="0.25"></line></g></g></g><g><g><line x1="0" y1="848.25" x2="1446" y2="848.25" fill="rgb(0, 0, 0)" stroke="rgb(153, 153, 153)" stroke-width="1.5px"></line></g></g><g><g><line x1="120.5" y1="0" x2="120.5" y2="377" fill="rgb(0, 0, 0)" stroke="rgb(153, 153, 153)" stroke-width="1.5px"></line></g></g><g><g><g><g><g><path stroke="rgb(0, 119, 187)" stroke-width="2px" d="M168.7,406.453125L192.8,312.2031025290489L216.9,259.1875L241,194.39060252904892L265.09999999999997,147.26564747095108L289.2,88.35939747095108L313.3,117.81252247095108L337.4,106.03122752904892L361.5,100.14063623547554L385.6,94.24998876452446L409.7,76.57810252904892L433.8,94.24998876452446L457.9,82.46875L482,76.57810252904892L506.09999999999997,53.015625L530.1999999999999,94.24998876452446L554.3000000000001,29.45314747095108L578.4,76.57810252904892L602.5,94.24998876452446L626.6,64.79686376452446L650.7,70.68751123547554L674.8,111.921875L698.9,53.015625L723,41.23438623547554L747.1,58.90627247095108L771.2,58.90627247095108L795.3000000000001,53.015625L819.4,41.23438623547554L843.5,47.12497752904892L867.6,106.03122752904892L891.7,53.015625L915.8,58.90627247095108L939.9,23.5625L964,47.12497752904892L988.1,41.23438623547554L1012.1999999999999,41.23438623547554L1036.3,41.23438623547554L1060.3999999999999,41.23438623547554L1084.5,41.23438623547554L1108.6000000000001,53.015625L1132.7,58.90627247095108L1156.8,100.14063623547554L1180.9,53.015625L1205,76.57810252904892L1229.1,70.68751123547554L1253.2,58.90627247095108L1277.3,41.23438623547554L1301.4,47.12497752904892" style="fill: none;" fill="none"></path></g><g><path stroke="rgb(0, 153, 136)" stroke-width="2px" d="M144.6,488.92188061773777L168.7,371.1093525290489L192.8,323.9843974709511L216.9,300.42186376452446L241,241.51561376452446L265.09999999999997,206.17189747095108L289.2,188.50001123547554L313.3,159.04688623547554L337.4,159.04688623547554L361.5,141.375L385.6,117.81252247095108L409.7,111.921875L433.8,94.24998876452446L457.9,106.03122752904892L482,76.57810252904892L506.09999999999997,64.79686376452446L530.1999999999999,94.24998876452446L554.3000000000001,76.57810252904892L578.4,100.14063623547554L602.5,100.14063623547554L626.6,47.12497752904892L650.7,64.79686376452446L674.8,29.45314747095108L698.9,64.79686376452446L723,106.03122752904892L747.1,47.12497752904892L771.2,76.57810252904892L795.3000000000001,76.57810252904892L819.4,58.90627247095108L843.5,23.5625L867.6,58.90627247095108L891.7,53.015625L915.8,53.015625L939.9,53.015625L964,76.57810252904892L988.1,47.12497752904892L1012.1999999999999,64.79686376452446L1036.3,135.48435252904892L1060.3999999999999,82.46875L1084.5,53.015625L1108.6000000000001,47.12497752904892L1132.7,35.34373876452446L1156.8,29.45314747095108L1180.9,29.45314747095108L1205,58.90627247095108L1229.1,29.45314747095108L1253.2,29.45314747095108L1277.3,41.23438623547554L1301.4,41.23438623547554" style="fill: none;" fill="none"></path></g><g><path stroke="rgb(204, 51, 17)" stroke-width="2px" d="M120.5,382.89061938226223L144.6,229.734375L168.7,182.60936376452446L192.8,135.48435252904892L216.9,123.70311376452446L241,76.57810252904892L265.09999999999997,88.35939747095108L289.2,53.015625L313.3,58.90627247095108L337.4,47.12497752904892L361.5,64.79686376452446L385.6,41.23438623547554L409.7,29.45314747095108L433.8,53.015625L457.9,29.45314747095108L482,70.68751123547554L506.09999999999997,5.89061376452446L530.1999999999999,29.45314747095108L554.3000000000001,41.23438623547554L578.4,23.5625L602.5,23.5625L626.6,11.78126123547554L650.7,17.67185252904892L674.8,17.67185252904892L698.9,29.45314747095108L723,17.67185252904892L747.1,23.5625L771.2,17.67185252904892L795.3000000000001,23.5625L819.4,29.45314747095108L843.5,17.67185252904892L867.6,17.67185252904892L891.7,17.67185252904892L915.8,17.67185252904892L939.9,23.5625L964,11.78126123547554L988.1,11.78126123547554L1012.1999999999999,17.67185252904892L1036.3,11.78126123547554L1060.3999999999999,11.78126123547554L1084.5,11.78126123547554L1108.6000000000001,11.78126123547554L1132.7,11.78126123547554L1156.8,11.78126123547554L1180.9,11.78126123547554L1205,11.78126123547554L1229.1,17.67185252904892L1253.2,17.67185252904892L1277.3,11.78126123547554L1301.4,11.78126123547554" style="fill: none;" fill="none"></path></g><g><path stroke="rgb(204, 51, 17)" stroke-width="2px" d="M241,382.89061938226223L265.09999999999997,347.546875L289.2,300.42186376452446L313.3,270.96873876452446L337.4,235.62502247095108L361.5,276.85938623547554L385.6,217.95313623547554L409.7,206.17189747095108L433.8,229.734375L457.9,200.28125L482,200.28125L506.09999999999997,170.828125L530.1999999999999,170.828125L554.3000000000001,200.28125L578.4,170.828125L602.5,164.93747752904892L626.6,200.28125L650.7,159.04688623547554L674.8,164.93747752904892L698.9,129.59376123547554L723,141.375L747.1,135.48435252904892L771.2,123.70311376452446L795.3000000000001,147.26564747095108L819.4,135.48435252904892L843.5,159.04688623547554L867.6,135.48435252904892L891.7,88.35939747095108L915.8,100.14063623547554L939.9,123.70311376452446L964,141.375L988.1,141.375L1012.1999999999999,88.35939747095108L1036.3,135.48435252904892L1060.3999999999999,106.03122752904892L1084.5,117.81252247095108L1108.6000000000001,106.03122752904892L1132.7,141.375L1156.8,106.03122752904892L1180.9,94.24998876452446L1205,88.35939747095108L1229.1,82.46875L1253.2,111.921875L1277.3,117.81252247095108L1301.4,82.46875" style="fill: none;" fill="none"></path></g><g><path stroke="rgb(187, 187, 187)" stroke-width="2px" d="M168.7,430.01563061773777L192.8,359.32811376452446L216.9,294.5312724709511L241,270.96873876452446L265.09999999999997,294.5312724709511L289.2,276.85938623547554L313.3,270.96873876452446L337.4,229.734375L361.5,223.84372752904892L385.6,188.50001123547554L409.7,212.06248876452446L433.8,188.50001123547554L457.9,188.50001123547554L482,129.59376123547554L506.09999999999997,117.81252247095108L530.1999999999999,117.81252247095108L554.3000000000001,117.81252247095108L578.4,100.14063623547554L602.5,117.81252247095108L626.6,106.03122752904892L650.7,82.46875L674.8,88.35939747095108L698.9,64.79686376452446L723,123.70311376452446L747.1,94.24998876452446L771.2,88.35939747095108L795.3000000000001,82.46875L819.4,70.68751123547554L843.5,64.79686376452446L867.6,76.57810252904892L891.7,70.68751123547554L915.8,70.68751123547554L939.9,58.90627247095108L964,29.45314747095108L988.1,47.12497752904892L1012.1999999999999,41.23438623547554L1036.3,53.015625L1060.3999999999999,58.90627247095108L1084.5,47.12497752904892L1108.6000000000001,82.46875L1132.7,53.015625L1156.8,29.45314747095108L1180.9,53.015625L1205,47.12497752904892L1229.1,47.12497752904892L1253.2,29.45314747095108L1277.3,76.57810252904892L1301.4,35.34373876452446" style="fill: none;" fill="none"></path></g><g><path stroke="rgb(51, 187, 238)" stroke-width="2px" d="M120.5,565.4999887645245L144.6,300.42186376452446L168.7,223.84372752904892L192.8,159.04688623547554L216.9,164.93747752904892L241,111.921875L265.09999999999997,153.15623876452446L289.2,123.70311376452446L313.3,135.48435252904892L337.4,117.81252247095108L361.5,117.81252247095108L385.6,129.59376123547554L409.7,111.921875L433.8,106.03122752904892L457.9,94.24998876452446L482,94.24998876452446L506.09999999999997,76.57810252904892L530.1999999999999,88.35939747095108L554.3000000000001,117.81252247095108L578.4,88.35939747095108L602.5,82.46875L626.6,94.24998876452446L650.7,94.24998876452446L674.8,106.03122752904892L698.9,82.46875L723,100.14063623547554L747.1,82.46875L771.2,76.57810252904892L795.3000000000001,70.68751123547554L819.4,94.24998876452446L843.5,88.35939747095108L867.6,94.24998876452446L891.7,64.79686376452446L915.8,94.24998876452446L939.9,70.68751123547554L964,106.03122752904892L988.1,82.46875L1012.1999999999999,88.35939747095108L1036.3,58.90627247095108L1060.3999999999999,53.015625L1084.5,53.015625L1108.6000000000001,47.12497752904892L1132.7,53.015625L1156.8,53.015625L1180.9,47.12497752904892L1205,70.68751123547554L1229.1,53.015625L1253.2,53.015625L1277.3,64.79686376452446L1301.4,58.90627247095108" style="fill: none;" fill="none"></path></g><g><path stroke="rgb(0, 119, 187)" stroke-width="2px" d="M120.5,406.453125L144.6,212.06248876452446L168.7,170.828125L192.8,129.59376123547554L216.9,123.70311376452446L241,100.14063623547554L265.09999999999997,117.81252247095108L289.2,58.90627247095108L313.3,100.14063623547554L337.4,82.46875L361.5,58.90627247095108L385.6,70.68751123547554L409.7,64.79686376452446L433.8,82.46875L457.9,76.57810252904892L482,64.79686376452446L506.09999999999997,82.46875L530.1999999999999,70.68751123547554L554.3000000000001,70.68751123547554L578.4,76.57810252904892L602.5,70.68751123547554L626.6,64.79686376452446L650.7,70.68751123547554L674.8,70.68751123547554L698.9,82.46875L723,70.68751123547554L747.1,64.79686376452446L771.2,64.79686376452446L795.3000000000001,64.79686376452446L819.4,76.57810252904892L843.5,70.68751123547554L867.6,64.79686376452446L891.7,58.90627247095108L915.8,70.68751123547554L939.9,70.68751123547554L964,76.57810252904892L988.1,70.68751123547554L1012.1999999999999,64.79686376452446L1036.3,64.79686376452446L1060.3999999999999,64.79686376452446L1084.5,64.79686376452446L1108.6000000000001,76.57810252904892L1132.7,64.79686376452446L1156.8,64.79686376452446L1180.9,70.68751123547554L1205,70.68751123547554L1229.1,64.79686376452446L1253.2,70.68751123547554L1277.3,70.68751123547554L1301.4,70.68751123547554" style="fill: none;" fill="none"></path></g><g><path stroke="rgb(187, 187, 187)" stroke-width="2px" d="M120.5,524.265625L144.6,312.2031025290489L168.7,170.828125L192.8,182.60936376452446L216.9,123.70311376452446L241,70.68751123547554L265.09999999999997,88.35939747095108L289.2,64.79686376452446L313.3,94.24998876452446L337.4,64.79686376452446L361.5,82.46875L385.6,76.57810252904892L409.7,94.24998876452446L433.8,88.35939747095108L457.9,106.03122752904892L482,88.35939747095108L506.09999999999997,88.35939747095108L530.1999999999999,70.68751123547554L554.3000000000001,94.24998876452446L578.4,53.015625L602.5,82.46875L626.6,76.57810252904892L650.7,82.46875L674.8,58.90627247095108L698.9,76.57810252904892L723,76.57810252904892L747.1,88.35939747095108L771.2,82.46875L795.3000000000001,82.46875L819.4,70.68751123547554L843.5,58.90627247095108L867.6,70.68751123547554L891.7,88.35939747095108L915.8,70.68751123547554L939.9,70.68751123547554L964,82.46875L988.1,47.12497752904892L1012.1999999999999,76.57810252904892L1036.3,64.79686376452446L1060.3999999999999,76.57810252904892L1084.5,76.57810252904892L1108.6000000000001,76.57810252904892L1132.7,82.46875L1156.8,82.46875L1180.9,82.46875L1205,70.68751123547554L1229.1,64.79686376452446L1253.2,82.46875L1277.3,58.90627247095108L1301.4,82.46875" style="fill: none;" fill="none"></path></g></g></g></g></g></g><g transform="translate(50, 377)" clip-path="url(#clip_1)"><clipPath id="clip_1"><rect width="1446" height="23"></rect></clipPath><g><g><line x1="0" y1="0" x2="0" y2="5" style="visibility: inherit;" fill="rgb(0, 0, 0)" stroke="rgb(204, 204, 204)" stroke-width="1px"></line><line x1="120.5" y1="0" x2="120.5" y2="5" style="visibility: inherit;" fill="rgb(0, 0, 0)" stroke="rgb(204, 204, 204)" stroke-width="1px"></line><line x1="241" y1="0" x2="241" y2="5" style="visibility: inherit;" fill="rgb(0, 0, 0)" stroke="rgb(204, 204, 204)" stroke-width="1px"></line><line x1="361.5" y1="0" x2="361.5" y2="5" style="visibility: inherit;" fill="rgb(0, 0, 0)" stroke="rgb(204, 204, 204)" stroke-width="1px"></line><line x1="482" y1="0" x2="482" y2="5" style="visibility: inherit;" fill="rgb(0, 0, 0)" stroke="rgb(204, 204, 204)" stroke-width="1px"></line><line x1="602.5" y1="0" x2="602.5" y2="5" style="visibility: inherit;" fill="rgb(0, 0, 0)" stroke="rgb(204, 204, 204)" stroke-width="1px"></line><line x1="723" y1="0" x2="723" y2="5" style="visibility: inherit;" fill="rgb(0, 0, 0)" stroke="rgb(204, 204, 204)" stroke-width="1px"></line><line x1="843.5" y1="0" x2="843.5" y2="5" style="visibility: inherit;" fill="rgb(0, 0, 0)" stroke="rgb(204, 204, 204)" stroke-width="1px"></line><line x1="964" y1="0" x2="964" y2="5" style="visibility: inherit;" fill="rgb(0, 0, 0)" stroke="rgb(204, 204, 204)" stroke-width="1px"></line><line x1="1084.5" y1="0" x2="1084.5" y2="5" style="visibility: inherit;" fill="rgb(0, 0, 0)" stroke="rgb(204, 204, 204)" stroke-width="1px"></line><line x1="1205" y1="0" x2="1205" y2="5" style="visibility: inherit;" fill="rgb(0, 0, 0)" stroke="rgb(204, 204, 204)" stroke-width="1px"></line><line x1="1325.5" y1="0" x2="1325.5" y2="5" style="visibility: inherit;" fill="rgb(0, 0, 0)" stroke="rgb(204, 204, 204)" stroke-width="1px"></line><line x1="1446" y1="0" x2="1446" y2="5" style="visibility: inherit;" fill="rgb(0, 0, 0)" stroke="rgb(204, 204, 204)" stroke-width="1px"></line></g><g transform="translate(0, 8)"><text x="0" y="0" dx="0em" dy="0.95em" style="text-anchor: middle; visibility: hidden; font-family: Roboto, sans-serif; font-size: 12px; font-weight: 200;" fill="rgb(255, 255, 255)" stroke="none" stroke-width="1px">-5</text><text x="120.5" y="0" dx="0em" dy="0.95em" style="text-anchor: middle; visibility: inherit; font-family: Roboto, sans-serif; font-size: 12px; font-weight: 200;" fill="rgb(255, 255, 255)" stroke="none" stroke-width="1px">0</text><text x="241" y="0" dx="0em" dy="0.95em" style="text-anchor: middle; visibility: inherit; font-family: Roboto, sans-serif; font-size: 12px; font-weight: 200;" fill="rgb(255, 255, 255)" stroke="none" stroke-width="1px">5</text><text x="361.5" y="0" dx="0em" dy="0.95em" style="text-anchor: middle; visibility: inherit; font-family: Roboto, sans-serif; font-size: 12px; font-weight: 200;" fill="rgb(255, 255, 255)" stroke="none" stroke-width="1px">10</text><text x="482" y="0" dx="0em" dy="0.95em" style="text-anchor: middle; visibility: inherit; font-family: Roboto, sans-serif; font-size: 12px; font-weight: 200;" fill="rgb(255, 255, 255)" stroke="none" stroke-width="1px">15</text><text x="602.5" y="0" dx="0em" dy="0.95em" style="text-anchor: middle; visibility: inherit; font-family: Roboto, sans-serif; font-size: 12px; font-weight: 200;" fill="rgb(255, 255, 255)" stroke="none" stroke-width="1px">20</text><text x="723" y="0" dx="0em" dy="0.95em" style="text-anchor: middle; visibility: inherit; font-family: Roboto, sans-serif; font-size: 12px; font-weight: 200;" fill="rgb(255, 255, 255)" stroke="none" stroke-width="1px">25</text><text x="843.5" y="0" dx="0em" dy="0.95em" style="text-anchor: middle; visibility: inherit; font-family: Roboto, sans-serif; font-size: 12px; font-weight: 200;" fill="rgb(255, 255, 255)" stroke="none" stroke-width="1px">30</text><text x="964" y="0" dx="0em" dy="0.95em" style="text-anchor: middle; visibility: inherit; font-family: Roboto, sans-serif; font-size: 12px; font-weight: 200;" fill="rgb(255, 255, 255)" stroke="none" stroke-width="1px">35</text><text x="1084.5" y="0" dx="0em" dy="0.95em" style="text-anchor: middle; visibility: inherit; font-family: Roboto, sans-serif; font-size: 12px; font-weight: 200;" fill="rgb(255, 255, 255)" stroke="none" stroke-width="1px">40</text><text x="1205" y="0" dx="0em" dy="0.95em" style="text-anchor: middle; visibility: inherit; font-family: Roboto, sans-serif; font-size: 12px; font-weight: 200;" fill="rgb(255, 255, 255)" stroke="none" stroke-width="1px">45</text><text x="1325.5" y="0" dx="0em" dy="0.95em" style="text-anchor: middle; visibility: inherit; font-family: Roboto, sans-serif; font-size: 12px; font-weight: 200;" fill="rgb(255, 255, 255)" stroke="none" stroke-width="1px">50</text><text x="1446" y="0" dx="0em" dy="0.95em" style="text-anchor: middle; visibility: hidden; font-family: Roboto, sans-serif; font-size: 12px; font-weight: 200;" fill="rgb(255, 255, 255)" stroke="none" stroke-width="1px">55</text></g><line x1="0" y1="0" x2="1446" y2="0" fill="rgb(0, 0, 0)" stroke="rgb(204, 204, 204)" stroke-width="1px"></line></g></g></g></g></svg>