<svg viewBox="0 0 1496 400" xmlns="http://www.w3.org/2000/svg"><g><g><g><g><g><line x1="40" y1="377" x2="35" y2="377" style="visibility: inherit;" fill="rgb(0, 0, 0)" stroke="rgb(204, 204, 204)" stroke-width="1px"></line><line x1="40" y1="351.8666666666667" x2="35" y2="351.8666666666667" style="visibility: inherit;" fill="rgb(0, 0, 0)" stroke="rgb(204, 204, 204)" stroke-width="1px"></line><line x1="40" y1="326.73333333333335" x2="35" y2="326.73333333333335" style="visibility: inherit;" fill="rgb(0, 0, 0)" stroke="rgb(204, 204, 204)" stroke-width="1px"></line><line x1="40" y1="301.6" x2="35" y2="301.6" style="visibility: inherit;" fill="rgb(0, 0, 0)" stroke="rgb(204, 204, 204)" stroke-width="1px"></line><line x1="40" y1="276.4666666666667" x2="35" y2="276.4666666666667" style="visibility: inherit;" fill="rgb(0, 0, 0)" stroke="rgb(204, 204, 204)" stroke-width="1px"></line><line x1="40" y1="251.33333333333337" x2="35" y2="251.33333333333337" style="visibility: inherit;" fill="rgb(0, 0, 0)" stroke="rgb(204, 204, 204)" stroke-width="1px"></line><line x1="40" y1="226.19999999999996" x2="35" y2="226.19999999999996" style="visibility: inherit;" fill="rgb(0, 0, 0)" stroke="rgb(204, 204, 204)" stroke-width="1px"></line><line x1="40" y1="201.06666666666672" x2="35" y2="201.06666666666672" style="visibility: inherit;" fill="rgb(0, 0, 0)" stroke="rgb(204, 204, 204)" stroke-width="1px"></line><line x1="40" y1="175.93333333333334" x2="35" y2="175.93333333333334" style="visibility: inherit;" fill="rgb(0, 0, 0)" stroke="rgb(204, 204, 204)" stroke-width="1px"></line><line x1="40" y1="150.79999999999995" x2="35" y2="150.79999999999995" style="visibility: inherit;" fill="rgb(0, 0, 0)" stroke="rgb(204, 204, 204)" stroke-width="1px"></line><line x1="40" y1="125.66666666666669" x2="35" y2="125.66666666666669" style="visibility: inherit;" fill="rgb(0, 0, 0)" stroke="rgb(204, 204, 204)" stroke-width="1px"></line><line x1="40" y1="100.53333333333332" x2="35" y2="100.53333333333332" style="visibility: inherit;" fill="rgb(0, 0, 0)" stroke="rgb(204, 204, 204)" stroke-width="1px"></line><line x1="40" y1="75.40000000000002" x2="35" y2="75.40000000000002" style="visibility: inherit;" fill="rgb(0, 0, 0)" stroke="rgb(204, 204, 204)" stroke-width="1px"></line><line x1="40" y1="50.26666666666666" x2="35" y2="50.26666666666666" style="visibility: inherit;" fill="rgb(0, 0, 0)" stroke="rgb(204, 204, 204)" stroke-width="1px"></line><line x1="40" y1="25.133333333333287" x2="35" y2="25.133333333333287" style="visibility: inherit;" fill="rgb(0, 0, 0)" stroke="rgb(204, 204, 204)" stroke-width="1px"></line><line x1="40" y1="0" x2="35" y2="0" style="visibility: inherit;" fill="rgb(0, 0, 0)" stroke="rgb(204, 204, 204)" stroke-width="1px"></line></g><g transform="translate(30, 0)"><text x="0" y="377" dx="0em" dy="0.3em" style="text-anchor: end; visibility: hidden; font-family: Roboto, sans-serif; font-size: 12px; font-weight: 200;" fill="rgb(255, 255, 255)" stroke="none" stroke-width="1px">0.4</text><text x="0" y="351.8666666666667" dx="0em" dy="0.3em" style="text-anchor: end; visibility: inherit; font-family: Roboto, sans-serif; font-size: 12px; font-weight: 200;" fill="rgb(255, 255, 255)" stroke="none" stroke-width="1px">0.6</text><text x="0" y="326.73333333333335" dx="0em" dy="0.3em" style="text-anchor: end; visibility: inherit; font-family: Roboto, sans-serif; font-size: 12px; font-weight: 200;" fill="rgb(255, 255, 255)" stroke="none" stroke-width="1px">0.8</text><text x="0" y="301.6" dx="0em" dy="0.3em" style="text-anchor: end; visibility: inherit; font-family: Roboto, sans-serif; font-size: 12px; font-weight: 200;" fill="rgb(255, 255, 255)" stroke="none" stroke-width="1px">1</text><text x="0" y="276.4666666666667" dx="0em" dy="0.3em" style="text-anchor: end; visibility: inherit; font-family: Roboto, sans-serif; font-size: 12px; font-weight: 200;" fill="rgb(255, 255, 255)" stroke="none" stroke-width="1px">1.2</text><text x="0" y="251.33333333333337" dx="0em" dy="0.3em" style="text-anchor: end; visibility: inherit; font-family: Roboto, sans-serif; font-size: 12px; font-weight: 200;" fill="rgb(255, 255, 255)" stroke="none" stroke-width="1px">1.4</text><text x="0" y="226.19999999999996" dx="0em" dy="0.3em" style="text-anchor: end; visibility: inherit; font-family: Roboto, sans-serif; font-size: 12px; font-weight: 200;" fill="rgb(255, 255, 255)" stroke="none" stroke-width="1px">1.6</text><text x="0" y="201.06666666666672" dx="0em" dy="0.3em" style="text-anchor: end; visibility: inherit; font-family: Roboto, sans-serif; font-size: 12px; font-weight: 200;" fill="rgb(255, 255, 255)" stroke="none" stroke-width="1px">1.8</text><text x="0" y="175.93333333333334" dx="0em" dy="0.3em" style="text-anchor: end; visibility: inherit; font-family: Roboto, sans-serif; font-size: 12px; font-weight: 200;" fill="rgb(255, 255, 255)" stroke="none" stroke-width="1px">2</text><text x="0" y="150.79999999999995" dx="0em" dy="0.3em" style="text-anchor: end; visibility: inherit; font-family: Roboto, sans-serif; font-size: 12px; font-weight: 200;" fill="rgb(255, 255, 255)" stroke="none" stroke-width="1px">2.2</text><text x="0" y="125.66666666666669" dx="0em" dy="0.3em" style="text-anchor: end; visibility: inherit; font-family: Roboto, sans-serif; font-size: 12px; font-weight: 200;" fill="rgb(255, 255, 255)" stroke="none" stroke-width="1px">2.4</text><text x="0" y="100.53333333333332" dx="0em" dy="0.3em" style="text-anchor: end; visibility: inherit; font-family: Roboto, sans-serif; font-size: 12px; font-weight: 200;" fill="rgb(255, 255, 255)" stroke="none" stroke-width="1px">2.6</text><text x="0" y="75.40000000000002" dx="0em" dy="0.3em" style="text-anchor: end; visibility: inherit; font-family: Roboto, sans-serif; font-size: 12px; font-weight: 200;" fill="rgb(255, 255, 255)" stroke="none" stroke-width="1px">2.8</text><text x="0" y="50.26666666666666" dx="0em" dy="0.3em" style="text-anchor: end; visibility: inherit; font-family: Roboto, sans-serif; font-size: 12px; font-weight: 200;" fill="rgb(255, 255, 255)" stroke="none" stroke-width="1px">3</text><text x="0" y="25.133333333333287" dx="0em" dy="0.3em" style="text-anchor: end; visibility: inherit; font-family: Roboto, sans-serif; font-size: 12px; font-weight: 200;" fill="rgb(255, 255, 255)" stroke="none" stroke-width="1px">3.2</text><text x="0" y="0" dx="0em" dy="0.3em" style="text-anchor: end; visibility: hidden; font-family: Roboto, sans-serif; font-size: 12px; font-weight: 200;" fill="rgb(255, 255, 255)" stroke="none" stroke-width="1px">3.4</text></g><line x1="40" y1="0" x2="40" y2="377" fill="rgb(0, 0, 0)" stroke="rgb(204, 204, 204)" stroke-width="1px"></line></g></g><g transform="translate(40, 0)" clip-path="url(#clip_0)"><clipPath id="clip_0"><rect width="1456" height="377"></rect></clipPath><g><g><g><line x1="0" y1="0" x2="0" y2="377" fill="rgb(0, 0, 0)" stroke="rgb(189, 189, 189)" stroke-width="1px" opacity="0.25"></line><line x1="121.33333333333333" y1="0" x2="121.33333333333333" y2="377" fill="rgb(0, 0, 0)" stroke="rgb(189, 189, 189)" stroke-width="1px" opacity="0.25"></line><line x1="242.66666666666666" y1="0" x2="242.66666666666666" y2="377" fill="rgb(0, 0, 0)" stroke="rgb(189, 189, 189)" stroke-width="1px" opacity="0.25"></line><line x1="364" y1="0" x2="364" y2="377" fill="rgb(0, 0, 0)" stroke="rgb(189, 189, 189)" stroke-width="1px" opacity="0.25"></line><line x1="485.3333333333333" y1="0" x2="485.3333333333333" y2="377" fill="rgb(0, 0, 0)" stroke="rgb(189, 189, 189)" stroke-width="1px" opacity="0.25"></line><line x1="606.6666666666667" y1="0" x2="606.6666666666667" y2="377" fill="rgb(0, 0, 0)" stroke="rgb(189, 189, 189)" stroke-width="1px" opacity="0.25"></line><line x1="728" y1="0" x2="728" y2="377" fill="rgb(0, 0, 0)" stroke="rgb(189, 189, 189)" stroke-width="1px" opacity="0.25"></line><line x1="849.3333333333334" y1="0" x2="849.3333333333334" y2="377" fill="rgb(0, 0, 0)" stroke="rgb(189, 189, 189)" stroke-width="1px" opacity="0.25"></line><line x1="970.6666666666666" y1="0" x2="970.6666666666666" y2="377" fill="rgb(0, 0, 0)" stroke="rgb(189, 189, 189)" stroke-width="1px" opacity="0.25"></line><line x1="1092" y1="0" x2="1092" y2="377" fill="rgb(0, 0, 0)" stroke="rgb(189, 189, 189)" stroke-width="1px" opacity="0.25"></line><line x1="1213.3333333333335" y1="0" x2="1213.3333333333335" y2="377" fill="rgb(0, 0, 0)" stroke="rgb(189, 189, 189)" stroke-width="1px" opacity="0.25"></line><line x1="1334.6666666666665" y1="0" x2="1334.6666666666665" y2="377" fill="rgb(0, 0, 0)" stroke="rgb(189, 189, 189)" stroke-width="1px" opacity="0.25"></line><line x1="1456" y1="0" x2="1456" y2="377" fill="rgb(0, 0, 0)" stroke="rgb(189, 189, 189)" stroke-width="1px" opacity="0.25"></line></g><g><line x1="0" y1="377" x2="1456" y2="377" fill="rgb(0, 0, 0)" stroke="rgb(189, 189, 189)" stroke-width="1px" opacity="0.25"></line><line x1="0" y1="351.8666666666667" x2="1456" y2="351.8666666666667" fill="rgb(0, 0, 0)" stroke="rgb(189, 189, 189)" stroke-width="1px" opacity="0.25"></line><line x1="0" y1="326.73333333333335" x2="1456" y2="326.73333333333335" fill="rgb(0, 0, 0)" stroke="rgb(189, 189, 189)" stroke-width="1px" opacity="0.25"></line><line x1="0" y1="301.6" x2="1456" y2="301.6" fill="rgb(0, 0, 0)" stroke="rgb(189, 189, 189)" stroke-width="1px" opacity="0.25"></line><line x1="0" y1="276.4666666666667" x2="1456" y2="276.4666666666667" fill="rgb(0, 0, 0)" stroke="rgb(189, 189, 189)" stroke-width="1px" opacity="0.25"></line><line x1="0" y1="251.33333333333337" x2="1456" y2="251.33333333333337" fill="rgb(0, 0, 0)" stroke="rgb(189, 189, 189)" stroke-width="1px" opacity="0.25"></line><line x1="0" y1="226.19999999999996" x2="1456" y2="226.19999999999996" fill="rgb(0, 0, 0)" stroke="rgb(189, 189, 189)" stroke-width="1px" opacity="0.25"></line><line x1="0" y1="201.06666666666672" x2="1456" y2="201.06666666666672" fill="rgb(0, 0, 0)" stroke="rgb(189, 189, 189)" stroke-width="1px" opacity="0.25"></line><line x1="0" y1="175.93333333333334" x2="1456" y2="175.93333333333334" fill="rgb(0, 0, 0)" stroke="rgb(189, 189, 189)" stroke-width="1px" opacity="0.25"></line><line x1="0" y1="150.79999999999995" x2="1456" y2="150.79999999999995" fill="rgb(0, 0, 0)" stroke="rgb(189, 189, 189)" stroke-width="1px" opacity="0.25"></line><line x1="0" y1="125.66666666666669" x2="1456" y2="125.66666666666669" fill="rgb(0, 0, 0)" stroke="rgb(189, 189, 189)" stroke-width="1px" opacity="0.25"></line><line x1="0" y1="100.53333333333332" x2="1456" y2="100.53333333333332" fill="rgb(0, 0, 0)" stroke="rgb(189, 189, 189)" stroke-width="1px" opacity="0.25"></line><line x1="0" y1="75.40000000000002" x2="1456" y2="75.40000000000002" fill="rgb(0, 0, 0)" stroke="rgb(189, 189, 189)" stroke-width="1px" opacity="0.25"></line><line x1="0" y1="50.26666666666666" x2="1456" y2="50.26666666666666" fill="rgb(0, 0, 0)" stroke="rgb(189, 189, 189)" stroke-width="1px" opacity="0.25"></line><line x1="0" y1="25.133333333333287" x2="1456" y2="25.133333333333287" fill="rgb(0, 0, 0)" stroke="rgb(189, 189, 189)" stroke-width="1px" opacity="0.25"></line><line x1="0" y1="0" x2="1456" y2="0" fill="rgb(0, 0, 0)" stroke="rgb(189, 189, 189)" stroke-width="1px" opacity="0.25"></line></g></g></g><g><g><line x1="0" y1="427.26666666666665" x2="1456" y2="427.26666666666665" fill="rgb(0, 0, 0)" stroke="rgb(153, 153, 153)" stroke-width="1.5px"></line></g></g><g><g><line x1="121.33333333333333" y1="0" x2="121.33333333333333" y2="377" fill="rgb(0, 0, 0)" stroke="rgb(153, 153, 153)" stroke-width="1.5px"></line></g></g><g><g><g><g><g><path stroke="rgb(0, 119, 187)" stroke-width="2px" d="M121.33333333333333,106.74368700981138L145.6,178.5183016618093L169.86666666666667,229.1064047972361L194.13333333333333,269.49467358589175L218.4,282.5825045267741L242.66666666666666,316.8964033484459L266.93333333333334,331.6942661762238L291.2,341.8377808292707L315.4666666666667,345.34034295479455L339.73333333333335,348.50196082989373L364,349.435876027743L388.26666666666665,353.65882688363394L412.5333333333333,359.1157026052475L436.8,348.5401314854622L461.06666666666666,365.54602367281916L485.3333333333333,347.27526412010195L509.59999999999997,363.1331041812897L533.8666666666667,354.39121510187783L558.1333333333333,364.0916325608889L582.4,353.01337128480276L606.6666666666667,359.9601309855779L630.9333333333334,369.39273215929666L655.2,343.0004203478495L679.4666666666667,317.10419223308566L703.7333333333333,356.9578171730042L728,366.4599509596825L752.2666666666668,357.5391631484032L776.5333333333333,358.76305098930993L800.8000000000001,347.5970331589381L825.0666666666666,356.60109831492105L849.3333333333334,323.657103574276L873.6,294.5408705631892L897.8666666666667,322.1468534231186L922.1333333333333,351.6450102090836L946.4,359.5405758579572L970.6666666666666,359.87644167343774L994.9333333333334,359.70147535800936L1019.1999999999999,361.12351953585943L1043.4666666666667,358.04624263048174L1067.7333333333333,356.25670102834704L1092,356.8073067426682L1116.2666666666667,345.8310710748037L1140.5333333333333,302.9851094245911L1164.8,309.2864285071691L1189.0666666666666,325.8695110241572L1213.3333333333335,333.29502182801565L1237.6,336.13338009119036L1261.8666666666668,332.1469359954198L1286.1333333333332,340.1020122130712L1310.4,341.011171913147" style="fill: none;" fill="none"></path></g><g><path stroke="rgb(0, 153, 136)" stroke-width="2px" d="M121.33333333333333,27.300126250584924L145.6,188.55700430870058L169.86666666666667,228.84419875939682L194.13333333333333,251.31738195419314L218.4,263.9957022825877L242.66666666666666,285.95046565532687L266.93333333333334,299.0885566234589L291.2,311.6497283935547L315.4666666666667,317.02116206884386L339.73333333333335,327.2394151051839L364,335.0156225522359L388.26666666666665,343.46320958534875L412.5333333333333,341.02280437548956L436.8,348.03809298674264L461.06666666666666,347.40454699198403L485.3333333333333,350.9409578601519L509.59999999999997,356.6305951833725L533.8666666666667,352.9313672939936L558.1333333333333,345.1623655319214L582.4,346.3393939495087L606.6666666666667,346.192883348465L630.9333333333334,352.6812805891037L655.2,349.18975170056024L679.4666666666667,340.63167500098547L703.7333333333333,336.8695733904839L728,321.8216538190842L752.2666666666668,351.5305132230123L776.5333333333333,324.99815495411553L800.8000000000001,324.3074203888575L825.0666666666666,317.57206739584603L849.3333333333334,332.6005945364634L873.6,329.2385432680448L897.8666666666667,315.52939802010854L922.1333333333333,309.10174725055697L946.4,299.3069443066915L970.6666666666666,293.02886018753054L994.9333333333334,303.4743020296097L1019.1999999999999,299.5446270465851L1043.4666666666667,220.52720540364578L1067.7333333333333,298.6684547026952L1092,315.2009775797526L1116.2666666666667,308.29047101338705L1140.5333333333333,317.83680516084036L1164.8,313.6578299562136L1189.0666666666666,311.28975124756494L1213.3333333333335,304.52202510436376L1237.6,308.46259100834527L1261.8666666666668,300.9405674695969L1286.1333333333332,300.4143427371979L1310.4,295.86106890042623" style="fill: none;" fill="none"></path></g><g><path stroke="rgb(204, 51, 17)" stroke-width="2px" d="M121.33333333333333,218.48428135712936L145.6,280.7068092981974L169.86666666666667,304.6853664477666L194.13333333333333,333.75351911385854L218.4,331.7744874715805L242.66666666666666,356.55263596375784L266.93333333333334,351.5104541540146L291.2,363.39808163642886L315.4666666666667,360.902660048008L339.73333333333335,361.5495537877083L364,364.39806892077127L388.26666666666665,365.1213414231936L412.5333333333333,362.74685100317004L436.8,363.02573048671087L461.06666666666666,356.6225880344709L485.3333333333333,345.19912051757177L509.59999999999997,366.85443599621453L533.8666666666667,357.26492766141894L558.1333333333333,331.48559343417486L582.4,336.90444830656054L606.6666666666667,324.24738549788793L630.9333333333334,324.83357021808627L655.2,328.166281914711L679.4666666666667,321.624373849233L703.7333333333333,319.29228611389794L728,314.5155611395836L752.2666666666668,312.55289584000906L776.5333333333333,311.18472951253256L800.8000000000001,307.51721562544503L825.0666666666666,308.55228755474093L849.3333333333334,308.78169349431994L873.6,304.640709177653L897.8666666666667,304.45661216576895L922.1333333333333,301.251415626208L946.4,301.2332890590032L970.6666666666666,299.0426859219869L994.9333333333334,298.56213714281716L1019.1999999999999,297.92665864626565L1043.4666666666667,297.0093644618988L1067.7333333333333,295.0954985777537L1092,295.1161418914795L1116.2666666666667,293.31831599871316L1140.5333333333333,292.1361941655477L1164.8,292.1039708216985L1189.0666666666666,290.5312589168549L1213.3333333333335,291.49463353157046L1237.6,288.00306719144186L1261.8666666666668,288.85233431657156L1286.1333333333332,288.44972977638247L1310.4,287.0213712612788" style="fill: none;" fill="none"></path></g><g><path stroke="rgb(204, 51, 17)" stroke-width="2px" d="M121.33333333333333,30.806852992375696L145.6,123.21848950386045L169.86666666666667,169.92924501101174L194.13333333333333,201.35096015135446L218.4,212.66637235482528L242.66666666666666,241.2601632436116L266.93333333333334,249.98025550047555L291.2,258.73718513647714L315.4666666666667,270.98434783617654L339.73333333333335,281.98630525271096L364,282.2522414684296L388.26666666666665,297.04963240623476L412.5333333333333,299.3472571929296L436.8,305.47289088964465L461.06666666666666,306.9482511440913L485.3333333333333,303.5217906395594L509.59999999999997,315.24638388156893L533.8666666666667,321.763409113884L558.1333333333333,316.88751983245214L582.4,321.22036112944284L606.6666666666667,321.9060547113419L630.9333333333334,297.88983624776205L655.2,322.53014043569567L679.4666666666667,316.3028706272443L703.7333333333333,327.2807242035866L728,324.3066488862038L752.2666666666668,329.94120990832647L776.5333333333333,324.8920845746994L800.8000000000001,320.60106171766915L825.0666666666666,331.45459101200106L849.3333333333334,325.78361206849416L873.6,331.36182343562444L897.8666666666667,324.41276420752206L922.1333333333333,327.09753352006277L946.4,320.9071759939194L970.6666666666666,330.65705950657525L994.9333333333334,327.2272133787473L1019.1999999999999,337.0990542332331L1043.4666666666667,333.2942578156789L1067.7333333333333,333.347716208299L1092,337.4892997503281L1116.2666666666667,330.6835078159968L1140.5333333333333,336.45750108957293L1164.8,336.4787286480268L1189.0666666666666,343.3072761654854L1213.3333333333335,336.1681726137797L1237.6,340.70868295033773L1261.8666666666668,330.7520442167918L1286.1333333333332,323.4255029718081L1310.4,336.46375550429025" style="fill: none;" fill="none"></path></g><g><path stroke="rgb(187, 187, 187)" stroke-width="2px" d="M121.33333333333333,38.66856989860532L145.6,153.20297759373983L169.86666666666667,213.01133141517641L194.13333333333333,248.31141286691025L218.4,255.4694294691086L242.66666666666666,259.5293760458628L266.93333333333334,261.1961064100266L291.2,272.03505954742434L315.4666666666667,277.98312029838564L339.73333333333335,291.5775663216909L364,290.09303042888644L388.26666666666665,304.83926999171575L412.5333333333333,301.47456715106966L436.8,308.26677914063134L461.06666666666666,317.39447946945825L485.3333333333333,321.10775919357934L509.59999999999997,329.48801576693853L533.8666666666667,338.3448437611262L558.1333333333333,334.96441125472387L582.4,332.5626860419909L606.6666666666667,338.6479244589806L630.9333333333334,337.3466616431872L655.2,347.6392336050669L679.4666666666667,347.6872315565745L703.7333333333333,345.47194033463796L728,329.7686929265658L752.2666666666668,350.4083963195483L776.5333333333333,349.4427296678225L800.8000000000001,345.40989054838815L825.0666666666666,343.9683865269025L849.3333333333334,345.733809308211L873.6,350.5651162226995L897.8666666666667,348.4392294247945L922.1333333333333,344.29773576656976L946.4,348.84298747380575L970.6666666666666,351.7898130178452L994.9333333333334,354.56362721920016L1019.1999999999999,351.8512036561966L1043.4666666666667,347.7354242563248L1067.7333333333333,352.4010977904002L1092,352.73176532586416L1116.2666666666667,339.26666209697726L1140.5333333333333,351.2131559809049L1164.8,351.08570823669436L1189.0666666666666,355.46468988657L1213.3333333333335,353.09430416027703L1237.6,348.5981365005175L1261.8666666666668,350.9178052902222L1286.1333333333332,334.6347698926926L1310.4,350.2932926177979" style="fill: none;" fill="none"></path></g><g><path stroke="rgb(51, 187, 238)" stroke-width="2px" d="M121.33333333333333,93.13461988766988L145.6,267.0859374364217L169.86666666666667,277.69979156653085L194.13333333333333,309.395502503713L218.4,310.48527621825536L242.66666666666666,326.5060980876287L266.93333333333334,323.2807376146317L291.2,334.0444580078125L315.4666666666667,320.2096851627032L339.73333333333335,332.5701014558474L364,337.62250754833224L388.26666666666665,337.6295184850693L412.5333333333333,331.1000892877579L436.8,344.108125881354L461.06666666666666,342.86849339405694L485.3333333333333,337.462424492836L509.59999999999997,348.12327287197115L533.8666666666667,347.59248653650286L558.1333333333333,315.3852993011475L582.4,332.24513405164083L606.6666666666667,327.24913004636767L630.9333333333334,338.8503502766291L655.2,335.32396145264306L679.4666666666667,331.53533662954965L703.7333333333333,326.6571927626928L728,306.3047430276871L752.2666666666668,327.41444134314855L776.5333333333333,325.33893441756567L800.8000000000001,320.4211892445882L825.0666666666666,300.70695946216586L849.3333333333334,297.71904203891756L873.6,307.63217701117196L897.8666666666667,280.78697067101797L922.1333333333333,255.89224288463595L946.4,292.5746174017588L970.6666666666666,277.91774481137594L994.9333333333334,255.9523751497269L1019.1999999999999,285.34786965052285L1043.4666666666667,302.4125495910645L1067.7333333333333,299.54777297973635L1092,317.3848319411278L1116.2666666666667,303.51663730144503L1140.5333333333333,308.7404518087705L1164.8,306.94357718626657L1189.0666666666666,297.9727091153463L1213.3333333333335,295.7306025584539L1237.6,296.9888110319773L1261.8666666666668,290.0317895968755L1286.1333333333332,286.98430917263033L1310.4,284.7795792977015" style="fill: none;" fill="none"></path></g><g><path stroke="rgb(0, 119, 187)" stroke-width="2px" d="M121.33333333333333,115.26170549392698L145.6,281.7302113135656L169.86666666666667,313.1088196794192L194.13333333333333,333.299029147625L218.4,334.6110555489858L242.66666666666666,340.3474549214045L266.93333333333334,344.0735580682755L291.2,351.2851229468981L315.4666666666667,348.07991891702017L339.73333333333335,352.1860507885615L364,354.2604042053223L388.26666666666665,345.71697856585183L412.5333333333333,343.0855702718099L436.8,340.43667208751043L461.06666666666666,348.33888913790383L485.3333333333333,346.54342269500097L509.59999999999997,341.2875046888987L533.8666666666667,331.7618662873904L558.1333333333333,330.84066964785256L582.4,321.4641784389814L606.6666666666667,323.065690612793L630.9333333333334,319.5427623152733L655.2,317.5626820286115L679.4666666666667,318.26877174377444L703.7333333333333,314.15007861057916L728,308.2229607860247L752.2666666666668,311.2779240369797L776.5333333333333,306.28548542261126L800.8000000000001,301.88926106293997L825.0666666666666,310.0875478744507L849.3333333333334,304.2226521134377L873.6,302.1777281522751L897.8666666666667,300.78920314311983L922.1333333333333,299.30959587891897L946.4,295.7707057158152L970.6666666666666,295.6692568620046L994.9333333333334,292.3501026391983L1019.1999999999999,292.0183864593506L1043.4666666666667,288.1326646566391L1067.7333333333333,287.8372914950053L1092,290.33293030261996L1116.2666666666667,286.3048774957657L1140.5333333333333,281.94819451967874L1164.8,286.94526964028677L1189.0666666666666,280.60509079297384L1213.3333333333335,282.3657796939214L1237.6,279.4186994791031L1261.8666666666668,275.3507981856664L1286.1333333333332,277.09536792437234L1310.4,272.64583497842153" style="fill: none;" fill="none"></path></g><g><path stroke="rgb(187, 187, 187)" stroke-width="2px" d="M121.33333333333333,54.39311227798459L145.6,161.32709528605142L169.86666666666667,237.10992838541665L194.13333333333333,280.15622605482736L218.4,303.67625595728555L242.66666666666666,320.5310122728348L266.93333333333334,328.74565044641497L291.2,335.30005985101064L315.4666666666667,338.8515487273534L339.73333333333335,347.55841308434805L364,350.84153139193853L388.26666666666665,353.0074689149857L412.5333333333333,352.1269596775373L436.8,354.3607370018959L461.06666666666666,357.8076310912768L485.3333333333333,361.5101472298304L509.59999999999997,358.9349837263425L533.8666666666667,359.3952711979548L558.1333333333333,359.60493266185125L582.4,357.7107213695844L606.6666666666667,357.4580729762713L630.9333333333334,360.09392302831014L655.2,355.31201475461324L679.4666666666667,364.33961448669436L703.7333333333333,360.3164903084437L728,356.81822013457617L752.2666666666668,357.94229950110116L776.5333333333333,353.3403386036555L800.8000000000001,355.38673815727236L825.0666666666666,359.26625048716863L849.3333333333334,355.64447996616366L873.6,353.55412723223367L897.8666666666667,353.57551208734515L922.1333333333333,356.54735529025396L946.4,353.34012887477877L970.6666666666666,353.2281636158625L994.9333333333334,357.5663380185763L1019.1999999999999,352.42122427225115L1043.4666666666667,354.21418145895007L1067.7333333333333,349.32660728295645L1092,351.0371335307757L1116.2666666666667,351.03071432908376L1140.5333333333333,346.2677865187327L1164.8,351.3708271543185L1189.0666666666666,346.7529942750931L1213.3333333333335,348.75173294146856L1237.6,347.8296824057897L1261.8666666666668,346.7455563902855L1286.1333333333332,347.8810135483742L1310.4,340.9068692485491" style="fill: none;" fill="none"></path></g></g></g></g></g></g><g transform="translate(40, 377)" clip-path="url(#clip_1)"><clipPath id="clip_1"><rect width="1456" height="23"></rect></clipPath><g><g><line x1="0" y1="0" x2="0" y2="5" style="visibility: inherit;" fill="rgb(0, 0, 0)" stroke="rgb(204, 204, 204)" stroke-width="1px"></line><line x1="121.33333333333333" y1="0" x2="121.33333333333333" y2="5" style="visibility: inherit;" fill="rgb(0, 0, 0)" stroke="rgb(204, 204, 204)" stroke-width="1px"></line><line x1="242.66666666666666" y1="0" x2="242.66666666666666" y2="5" style="visibility: inherit;" fill="rgb(0, 0, 0)" stroke="rgb(204, 204, 204)" stroke-width="1px"></line><line x1="364" y1="0" x2="364" y2="5" style="visibility: inherit;" fill="rgb(0, 0, 0)" stroke="rgb(204, 204, 204)" stroke-width="1px"></line><line x1="485.3333333333333" y1="0" x2="485.3333333333333" y2="5" style="visibility: inherit;" fill="rgb(0, 0, 0)" stroke="rgb(204, 204, 204)" stroke-width="1px"></line><line x1="606.6666666666667" y1="0" x2="606.6666666666667" y2="5" style="visibility: inherit;" fill="rgb(0, 0, 0)" stroke="rgb(204, 204, 204)" stroke-width="1px"></line><line x1="728" y1="0" x2="728" y2="5" style="visibility: inherit;" fill="rgb(0, 0, 0)" stroke="rgb(204, 204, 204)" stroke-width="1px"></line><line x1="849.3333333333334" y1="0" x2="849.3333333333334" y2="5" style="visibility: inherit;" fill="rgb(0, 0, 0)" stroke="rgb(204, 204, 204)" stroke-width="1px"></line><line x1="970.6666666666666" y1="0" x2="970.6666666666666" y2="5" style="visibility: inherit;" fill="rgb(0, 0, 0)" stroke="rgb(204, 204, 204)" stroke-width="1px"></line><line x1="1092" y1="0" x2="1092" y2="5" style="visibility: inherit;" fill="rgb(0, 0, 0)" stroke="rgb(204, 204, 204)" stroke-width="1px"></line><line x1="1213.3333333333335" y1="0" x2="1213.3333333333335" y2="5" style="visibility: inherit;" fill="rgb(0, 0, 0)" stroke="rgb(204, 204, 204)" stroke-width="1px"></line><line x1="1334.6666666666665" y1="0" x2="1334.6666666666665" y2="5" style="visibility: inherit;" fill="rgb(0, 0, 0)" stroke="rgb(204, 204, 204)" stroke-width="1px"></line><line x1="1456" y1="0" x2="1456" y2="5" style="visibility: inherit;" fill="rgb(0, 0, 0)" stroke="rgb(204, 204, 204)" stroke-width="1px"></line></g><g transform="translate(0, 8)"><text x="0" y="0" dx="0em" dy="0.95em" style="text-anchor: middle; visibility: hidden; font-family: Roboto, sans-serif; font-size: 12px; font-weight: 200;" fill="rgb(255, 255, 255)" stroke="none" stroke-width="1px">-5</text><text x="121.33333333333333" y="0" dx="0em" dy="0.95em" style="text-anchor: middle; visibility: inherit; font-family: Roboto, sans-serif; font-size: 12px; font-weight: 200;" fill="rgb(255, 255, 255)" stroke="none" stroke-width="1px">0</text><text x="242.66666666666666" y="0" dx="0em" dy="0.95em" style="text-anchor: middle; visibility: inherit; font-family: Roboto, sans-serif; font-size: 12px; font-weight: 200;" fill="rgb(255, 255, 255)" stroke="none" stroke-width="1px">5</text><text x="364" y="0" dx="0em" dy="0.95em" style="text-anchor: middle; visibility: inherit; font-family: Roboto, sans-serif; font-size: 12px; font-weight: 200;" fill="rgb(255, 255, 255)" stroke="none" stroke-width="1px">10</text><text x="485.3333333333333" y="0" dx="0em" dy="0.95em" style="text-anchor: middle; visibility: inherit; font-family: Roboto, sans-serif; font-size: 12px; font-weight: 200;" fill="rgb(255, 255, 255)" stroke="none" stroke-width="1px">15</text><text x="606.6666666666667" y="0" dx="0em" dy="0.95em" style="text-anchor: middle; visibility: inherit; font-family: Roboto, sans-serif; font-size: 12px; font-weight: 200;" fill="rgb(255, 255, 255)" stroke="none" stroke-width="1px">20</text><text x="728" y="0" dx="0em" dy="0.95em" style="text-anchor: middle; visibility: inherit; font-family: Roboto, sans-serif; font-size: 12px; font-weight: 200;" fill="rgb(255, 255, 255)" stroke="none" stroke-width="1px">25</text><text x="849.3333333333334" y="0" dx="0em" dy="0.95em" style="text-anchor: middle; visibility: inherit; font-family: Roboto, sans-serif; font-size: 12px; font-weight: 200;" fill="rgb(255, 255, 255)" stroke="none" stroke-width="1px">30</text><text x="970.6666666666666" y="0" dx="0em" dy="0.95em" style="text-anchor: middle; visibility: inherit; font-family: Roboto, sans-serif; font-size: 12px; font-weight: 200;" fill="rgb(255, 255, 255)" stroke="none" stroke-width="1px">35</text><text x="1092" y="0" dx="0em" dy="0.95em" style="text-anchor: middle; visibility: inherit; font-family: Roboto, sans-serif; font-size: 12px; font-weight: 200;" fill="rgb(255, 255, 255)" stroke="none" stroke-width="1px">40</text><text x="1213.3333333333335" y="0" dx="0em" dy="0.95em" style="text-anchor: middle; visibility: inherit; font-family: Roboto, sans-serif; font-size: 12px; font-weight: 200;" fill="rgb(255, 255, 255)" stroke="none" stroke-width="1px">45</text><text x="1334.6666666666665" y="0" dx="0em" dy="0.95em" style="text-anchor: middle; visibility: inherit; font-family: Roboto, sans-serif; font-size: 12px; font-weight: 200;" fill="rgb(255, 255, 255)" stroke="none" stroke-width="1px">50</text><text x="1456" y="0" dx="0em" dy="0.95em" style="text-anchor: middle; visibility: hidden; font-family: Roboto, sans-serif; font-size: 12px; font-weight: 200;" fill="rgb(255, 255, 255)" stroke="none" stroke-width="1px">55</text></g><line x1="0" y1="0" x2="1456" y2="0" fill="rgb(0, 0, 0)" stroke="rgb(204, 204, 204)" stroke-width="1px"></line></g></g></g></g></svg>